<svg width="64" height="64" viewBox="0 0 64 64" fill="none" xmlns="http://www.w3.org/2000/svg">
<path d="M36.1665 20.6409C35.3995 20.6409 34.7776 21.2379 34.7776 21.9742C34.7776 22.7106 35.3995 23.3076 36.1665 23.3076H60.7713L51.8579 53.2593C51.1406 55.6698 50.0595 57.9188 48.483 59.4324C47.2644 60.6023 45.7193 61.3332 43.7737 61.3332H20.2266C18.2809 61.3332 16.7358 60.6024 15.5172 59.4324C13.9408 57.9189 12.8596 55.6699 12.1423 53.2593L3.22893 23.3076H27.8338C28.6008 23.3076 29.2226 22.7106 29.2226 21.9742C29.2226 21.2379 28.6008 20.6409 27.8338 20.6409H1.41696C1.28194 20.6383 1.14421 20.6548 1.00761 20.6922C0.270141 20.8945 -0.156898 21.6325 0.0537765 22.3405L9.47331 53.9885C10.3079 56.793 11.6069 59.4491 13.5534 61.3179C15.2729 62.9688 17.4612 64 20.2266 64H43.7737C46.5391 64 48.7273 62.9687 50.4469 61.3179C52.3935 59.4489 53.6925 56.7928 54.527 53.9885L63.9267 22.4029C63.9742 22.2684 64 22.1243 64 21.9743C64 21.238 63.3782 20.641 62.6112 20.641L36.1665 20.6409Z" fill="#11A21B"/>
<path d="M29.6988 0H34.3023C35.1984 0 36.0122 0.351033 36.6011 0.916485C37.1902 1.48194 37.5558 2.26313 37.5558 3.12352V28.9319C37.5558 29.7922 37.1902 30.5735 36.6012 31.1389C36.0122 31.7045 35.1984 32.0555 34.3023 32.0555H29.6988C28.8027 32.0555 27.9889 31.7044 27.3999 31.1389C26.8109 30.5735 26.4453 29.7922 26.4453 28.9319V3.12352C26.4453 2.26314 26.8109 1.48193 27.4 0.916485C27.9889 0.351033 28.8027 0 29.6988 0ZM34.3023 2.66673H29.6988C29.5694 2.66673 29.4506 2.71855 29.3638 2.80192C29.2769 2.88534 29.2229 2.99931 29.2229 3.12352V28.9319C29.2229 29.0561 29.2769 29.1702 29.3638 29.2535C29.4506 29.3369 29.5694 29.3888 29.6988 29.3888H34.3023C34.4317 29.3888 34.5505 29.3369 34.6373 29.2535C34.7242 29.1702 34.7782 29.0561 34.7782 28.9319V3.12352C34.7782 2.99931 34.7242 2.88534 34.6373 2.80192C34.5505 2.71855 34.4317 2.66673 34.3023 2.66673Z" fill="#11A21B"/>
<path d="M44.8799 33.4136H49.8735C50.257 33.4136 50.5679 33.7121 50.5679 34.0803V38.8744C50.5679 39.2426 50.257 39.5411 49.8735 39.5411H44.8799C44.4965 39.5411 44.1855 39.2426 44.1855 38.8744V34.0803C44.1855 33.7121 44.4965 33.4136 44.8799 33.4136ZM49.1791 34.7469H45.5744V38.2078H49.1791V34.7469Z" fill="#11A21B"/>
<path d="M18.4252 34.7469H14.8205V38.2078H18.4252V34.7469ZM14.126 33.4136H19.1196C19.503 33.4136 19.814 33.7121 19.814 34.0803V38.8744C19.814 39.2426 19.503 39.5411 19.1196 39.5411H14.126C13.7426 39.5411 13.4316 39.2426 13.4316 38.8744V34.0803C13.4316 33.7121 13.7426 33.4136 14.126 33.4136Z" fill="#11A21B"/>
<path d="M34.629 33.4136H39.6225C40.0059 33.4136 40.3169 33.7121 40.3169 34.0803V38.8744C40.3169 39.2426 40.0059 39.5411 39.6225 39.5411H34.629C34.2455 39.5411 33.9346 39.2426 33.9346 38.8744V34.0803C33.9346 33.7121 34.2455 33.4136 34.629 33.4136ZM38.9281 34.7469H35.3234V38.2078H38.9281V34.7469Z" fill="#11A21B"/>
<path d="M24.378 33.4136H29.3715C29.755 33.4136 30.0659 33.7121 30.0659 34.0803V38.8744C30.0659 39.2426 29.755 39.5411 29.3715 39.5411H24.378C23.9945 39.5411 23.6836 39.2426 23.6836 38.8744V34.0803C23.6836 33.7121 23.9945 33.4136 24.378 33.4136ZM28.6771 34.7469H25.0724V38.2078H28.6771V34.7469Z" fill="#11A21B"/>
<path d="M23.5512 44.3348H19.9464V47.7956H23.5512V44.3348ZM19.252 43.0015H24.2456C24.629 43.0015 24.94 43.3 24.94 43.6681V48.4623C24.94 48.8304 24.629 49.129 24.2456 49.129H19.252C18.8686 49.129 18.5576 48.8304 18.5576 48.4623V43.6681C18.5576 43.3 18.8686 43.0015 19.252 43.0015Z" fill="#11A21B"/>
<path d="M39.755 43.0015H44.7485C45.132 43.0015 45.4429 43.3 45.4429 43.6681V48.4623C45.4429 48.8304 45.132 49.129 44.7485 49.129H39.755C39.3715 49.129 39.0605 48.8304 39.0605 48.4623V43.6681C39.0605 43.3 39.3715 43.0015 39.755 43.0015ZM44.0541 44.3348H40.4494V47.7956H44.0541V44.3348Z" fill="#11A21B"/>
<path d="M29.503 43.0015H34.4965C34.88 43.0015 35.1909 43.3 35.1909 43.6681V48.4623C35.1909 48.8304 34.88 49.129 34.4965 49.129H29.503C29.1195 49.129 28.8086 48.8304 28.8086 48.4623V43.6681C28.8086 43.3 29.1195 43.0015 29.503 43.0015ZM33.8021 44.3348H30.1974V47.7956H33.8021V44.3348Z" fill="#11A21B"/>
<path d="M28.6772 53.9232H25.0724V57.384H28.6772V53.9232ZM24.378 52.5898H29.3716C29.755 52.5898 30.066 52.8884 30.066 53.2565V58.0507C30.066 58.4188 29.755 58.7173 29.3716 58.7173H24.378C23.9945 58.7173 23.6836 58.4188 23.6836 58.0507V53.2565C23.6836 52.8884 23.9945 52.5898 24.378 52.5898Z" fill="#11A21B"/>
<path d="M34.629 52.5898H39.6225C40.0059 52.5898 40.3169 52.8884 40.3169 53.2565V58.0507C40.3169 58.4188 40.0059 58.7173 39.6225 58.7173H34.629C34.2455 58.7173 33.9346 58.4188 33.9346 58.0507V53.2565C33.9346 52.8884 34.2455 52.5898 34.629 52.5898ZM38.9281 53.9232H35.3234V57.384H38.9281V53.9232Z" fill="#11A21B"/>
<path d="M43.6315 19.3073C44.1092 18.1285 44.6444 17.0191 45.2371 16.0334C45.2581 15.9986 45.2809 15.9632 45.2983 15.9274C46.1431 14.5442 47.0939 13.4338 48.1439 12.7745C49.0744 12.1903 50.1073 11.9804 51.2405 12.2981C51.6343 12.4084 52.0458 12.5798 52.4754 12.8175C52.5003 12.8313 52.5242 12.8502 52.5496 12.8623C52.6222 12.9038 52.6958 12.9478 52.7705 12.9941C54.0768 13.8041 54.6498 14.8356 54.6912 15.9865C54.7273 16.992 54.403 18.1204 53.8225 19.3072H56.8174C57.2633 18.14 57.4972 16.9951 57.458 15.9031C57.3851 13.8776 56.4329 12.0971 54.2678 10.7545C54.1682 10.6927 54.062 10.6299 53.9493 10.5661C53.9213 10.5479 53.8925 10.5305 53.8628 10.514C53.2348 10.166 52.6136 9.91493 52.0108 9.74599C50.0172 9.18708 48.223 9.5419 46.6249 10.5454C45.2029 11.4383 43.9669 12.8579 42.9087 14.5908C42.8827 14.6258 42.8583 14.6621 42.8355 14.7001C42.0112 16.0712 41.2945 17.6465 40.6787 19.3072L43.6315 19.3073Z" fill="#11A21B"/>
<path d="M49.5981 10.5738C49.4603 11.2958 49.9583 11.9884 50.7102 12.1207C51.4622 12.253 52.1836 11.7749 52.3214 11.053L53.2705 6.07669L54.849 8.4913C55.1438 8.94228 55.6703 9.16757 56.1867 9.10867L58.5119 9.02811L54.6213 13.1002C54.103 13.6409 54.1395 14.4828 54.7027 14.9804C55.2659 15.478 56.1428 15.443 56.6611 14.9023L62.7339 8.54612C63.0085 8.29233 63.1738 7.9317 63.159 7.53721C63.1313 6.80134 62.4875 6.22629 61.721 6.25281L56.7703 6.42875L53.7799 1.85444C53.5883 1.50439 53.2369 1.23943 52.8004 1.16266C52.0459 1.03003 51.3223 1.50971 51.1842 2.23402L49.5981 10.5738Z" fill="#11A21B"/>
<path d="M7.51119 19.3074L7.46936 19.2779L7.44712 19.3074H7.51119ZM7.44712 19.3074L7.46936 19.2779C7.35669 19.1996 7.23665 19.1382 7.11168 19.0964C6.65788 18.8424 6.46822 17.3488 6.55039 15.9151C6.57909 15.4136 6.65357 14.9376 6.77536 14.5331C6.87593 14.199 7.00239 13.9266 7.15284 13.7546C7.18451 13.7183 7.24034 13.7093 7.3263 13.7449C7.34419 13.7523 7.43066 13.8652 7.55809 13.9984C7.77497 14.2248 7.99856 14.4583 8.29269 14.6694C9.54115 15.5652 11.0809 15.7754 13.5025 12.6647C13.8334 12.2395 15.5659 13.3273 16.8695 14.1458C18.3841 15.0969 19.6102 15.8669 20.6833 14.9605C20.8022 14.8601 20.9875 14.6887 21.1894 14.5018C21.6761 14.0516 22.348 13.4299 22.7338 13.3043C23.1071 13.9418 23.8593 14.3555 24.7463 14.6152C24.8477 14.6449 24.9512 14.6726 25.056 14.6987V11.6174C24.9817 11.4991 24.8869 11.3901 24.7719 11.2952C22.6649 9.55545 20.7246 11.2393 19.3855 12.4774L19.269 12.5852C17.1531 10.9788 13.3651 8.3901 11.2782 11.0708C10.2603 12.3785 10.0165 12.5797 9.95276 12.5339C9.85199 12.4616 9.72297 12.3269 9.5979 12.1963C9.26389 11.8474 8.94337 11.5127 8.42212 11.297C6.99316 10.7053 5.86531 11.0868 5.0263 12.0462C4.62335 12.5069 4.32241 13.1119 4.11717 13.7935C3.9331 14.4049 3.82289 15.0836 3.78362 15.7692C3.71463 16.9727 3.88353 18.2474 4.26997 19.3074L7.44712 19.3074Z" fill="#11A21B"/>
</svg>
