<svg width="64" height="64" viewBox="0 0 64 64" fill="none" xmlns="http://www.w3.org/2000/svg">
<path d="M62 10H53V9C53 8.73478 52.8946 8.48043 52.7071 8.29289C52.5196 8.10536 52.2652 8 52 8C51.7348 8 51.4804 8.10536 51.2929 8.29289C51.1054 8.48043 51 8.73478 51 9V10H42C41.7348 10 41.4804 10.1054 41.2929 10.2929C41.1054 10.4804 41 10.7348 41 11C41 11.2652 41.1054 11.5196 41.2929 11.7071C41.4804 11.8946 41.7348 12 42 12H51V13.14C50.1435 13.3611 49.3845 13.8599 48.8417 14.5584C48.2989 15.2568 48.0029 16.1154 48 17H41.57C41.1817 16.1103 40.5428 15.3529 39.7313 14.8201C38.9198 14.2874 37.9707 14.0024 37 14H31C30.7348 14 30.4804 14.1054 30.2929 14.2929C30.1054 14.4804 30 14.7348 30 15C30 15.2652 30.1054 15.5196 30.2929 15.7071C30.4804 15.8946 30.7348 16 31 16H37C37.6626 16.0033 38.3054 16.2258 38.8282 16.6328C39.351 17.0398 39.7244 17.6085 39.89 18.25C39.9467 18.47 40.0766 18.6642 40.2584 18.8005C40.4401 18.9368 40.6629 19.0072 40.89 19H48V21H46C45.7348 21 45.4804 21.1054 45.2929 21.2929C45.1054 21.4804 45 21.7348 45 22C45 22.2652 45.1054 22.5196 45.2929 22.7071C45.4804 22.8946 45.7348 23 46 23H48C48 24.0609 48.4214 25.0783 49.1716 25.8284C49.9217 26.5786 50.9391 27 52 27C53.0609 27 54.0783 26.5786 54.8284 25.8284C55.5786 25.0783 56 24.0609 56 23V22C56 21.7348 55.8946 21.4804 55.7071 21.2929C55.5196 21.1054 55.2652 21 55 21C54.7348 21 54.4804 21.1054 54.2929 21.2929C54.1054 21.4804 54 21.7348 54 22V23C54 23.5304 53.7893 24.0391 53.4142 24.4142C53.0391 24.7893 52.5304 25 52 25C51.4696 25 50.9609 24.7893 50.5858 24.4142C50.2107 24.0391 50 23.5304 50 23V17C50.0017 16.6057 50.1199 16.2206 50.3397 15.8933C50.5596 15.5659 50.8713 15.3108 51.2358 15.1602C51.6002 15.0095 52.001 14.9699 52.3879 15.0464C52.7747 15.1228 53.1303 15.312 53.41 15.59C54.12 16.3 54 17.05 54 18C54 18.2652 54.1054 18.5196 54.2929 18.7071C54.4804 18.8946 54.7348 19 55 19C55.2652 19 55.5196 18.8946 55.7071 18.7071C55.8946 18.5196 56 18.2652 56 18C56 16.7 56.1 15.45 54.83 14.17C54.3169 13.6838 53.6863 13.3392 53 13.17V12H62C62.2652 12 62.5196 11.8946 62.7071 11.7071C62.8946 11.5196 63 11.2652 63 11C63 10.7348 62.8946 10.4804 62.7071 10.2929C62.5196 10.1054 62.2652 10 62 10Z" fill="#11A21B"/>
<path d="M47 34H46V31C46.0002 29.8473 45.6022 28.73 44.8733 27.8371C44.1444 26.9442 43.1294 26.3305 42 26.1C42 24.87 41.89 24.1 42.74 23.45C42.9461 23.285 43.0785 23.0452 43.1085 22.783C43.1384 22.5207 43.0635 22.2572 42.9 22.05C41.81 20.67 40 23.11 40 25V26H36C36 24.9391 35.5786 23.9217 34.8284 23.1716C34.0783 22.4214 33.0609 22 32 22C30.9391 22 29.9217 22.4214 29.1716 23.1716C28.4214 23.9217 28 24.9391 28 26H24V25C24 23.9391 23.5786 22.9217 22.8284 22.1716C22.0783 21.4214 21.0609 21 20 21H16V19H23.14C23.3671 19.0072 23.5899 18.9368 23.7716 18.8005C23.9534 18.6642 24.0833 18.47 24.14 18.25C24.3043 17.6134 24.6732 17.0484 25.1899 16.6419C25.7066 16.2353 26.3426 16.0098 27 16C27.2652 16 27.5196 15.8946 27.7071 15.7071C27.8946 15.5196 28 15.2652 28 15C28 14.7348 27.8946 14.4804 27.7071 14.2929C27.5196 14.1054 27.2652 14 27 14C26.0293 14.0024 25.0802 14.2874 24.2687 14.8201C23.4572 15.3529 22.8183 16.1103 22.43 17H16C15.9971 16.1154 15.7011 15.2568 15.1583 14.5584C14.6155 13.8599 13.8565 13.3611 13 13.14V12H22C22.2652 12 22.5196 11.8946 22.7071 11.7071C22.8946 11.5196 23 11.2652 23 11C23 10.7348 22.8946 10.4804 22.7071 10.2929C22.5196 10.1054 22.2652 10 22 10H13V9C13 8.73478 12.8946 8.48043 12.7071 8.29289C12.5196 8.10536 12.2652 8 12 8C11.7348 8 11.4804 8.10536 11.2929 8.29289C11.1054 8.48043 11 8.73478 11 9V10H2C1.73478 10 1.48043 10.1054 1.29289 10.2929C1.10536 10.4804 1 10.7348 1 11C1 11.2652 1.10536 11.5196 1.29289 11.7071C1.48043 11.8946 1.73478 12 2 12H11V13.14C10.1435 13.3611 9.38451 13.8599 8.84169 14.5584C8.29887 15.2568 8.00287 16.1154 8 17V23C8 24.0609 8.42143 25.0783 9.17157 25.8284C9.92172 26.5786 10.9391 27 12 27C13.0609 27 14.0783 26.5786 14.8284 25.8284C15.5786 25.0783 16 24.0609 16 23H20C20.5304 23 21.0391 23.2107 21.4142 23.5858C21.7893 23.9609 22 24.4696 22 25V26.1C20.8706 26.3305 19.8556 26.9442 19.1267 27.8371C18.3978 28.73 17.9998 29.8473 18 31V34H17C16.7348 34 16.4804 34.1054 16.2929 34.2929C16.1054 34.4804 16 34.7348 16 35C16 35.2652 16.1054 35.5196 16.2929 35.7071C16.4804 35.8946 16.7348 36 17 36H19V39C19 39.2652 19.1054 39.5196 19.2929 39.7071C19.4804 39.8946 19.7348 40 20 40C20.2652 40 20.5196 39.8946 20.7071 39.7071C20.8946 39.5196 21 39.2652 21 39V34H28V38C28 38.2652 28.1054 38.5196 28.2929 38.7071C28.4804 38.8946 28.7348 39 29 39H35C35.2652 39 35.5196 38.8946 35.7071 38.7071C35.8946 38.5196 36 38.2652 36 38V34H43V54H21V48C21 47.7348 20.8946 47.4804 20.7071 47.2929C20.5196 47.1054 20.2652 47 20 47C19.7348 47 19.4804 47.1054 19.2929 47.2929C19.1054 47.4804 19 47.7348 19 48V55C19 55.2652 19.1054 55.5196 19.2929 55.7071C19.4804 55.8946 19.7348 56 20 56H44C44.2652 56 44.5196 55.8946 44.7071 55.7071C44.8946 55.5196 45 55.2652 45 55V36H47C47.2652 36 47.5196 35.8946 47.7071 35.7071C47.8946 35.5196 48 35.2652 48 35C48 34.7348 47.8946 34.4804 47.7071 34.2929C47.5196 34.1054 47.2652 34 47 34ZM14 23C14 23.5304 13.7893 24.0391 13.4142 24.4142C13.0391 24.7893 12.5304 25 12 25C11.4696 25 10.9609 24.7893 10.5858 24.4142C10.2107 24.0391 10 23.5304 10 23V17C10 16.4696 10.2107 15.9609 10.5858 15.5858C10.9609 15.2107 11.4696 15 12 15C12.5304 15 13.0391 15.2107 13.4142 15.5858C13.7893 15.9609 14 16.4696 14 17V23ZM32 24C32.3681 23.9991 32.7292 24.0998 33.0438 24.291C33.3583 24.4822 33.6139 24.7565 33.7826 25.0836C33.9512 25.4108 34.0263 25.7781 33.9995 26.1452C33.9728 26.5123 33.8453 26.8649 33.6311 27.1642C33.4168 27.4635 33.1241 27.6978 32.7852 27.8415C32.4463 27.9851 32.0744 28.0324 31.7103 27.9782C31.3463 27.924 31.0042 27.7704 30.7219 27.5343C30.4395 27.2982 30.2278 26.9887 30.11 26.64C30.0085 26.3395 29.9799 26.0192 30.0266 25.7055C30.0733 25.3918 30.194 25.0937 30.3786 24.8358C30.5632 24.5779 30.8066 24.3676 31.0885 24.2223C31.3704 24.077 31.6828 24.0008 32 24ZM34 37H30V34H34V37ZM20 32V31C20 30.2044 20.3161 29.4413 20.8787 28.8787C21.4413 28.3161 22.2044 28 23 28H28.55C28.9023 28.6038 29.4067 29.1048 30.0129 29.4529C30.6191 29.8011 31.3059 29.9843 32.005 29.9843C32.7041 29.9843 33.3909 29.8011 33.9971 29.4529C34.6033 29.1048 35.1077 28.6038 35.46 28H41C41.7956 28 42.5587 28.3161 43.1213 28.8787C43.6839 29.4413 44 30.2044 44 31V32H20Z" fill="#11A21B"/>
<path d="M21 44V43C21 42.7348 20.8946 42.4804 20.7071 42.2929C20.5196 42.1054 20.2652 42 20 42C19.7348 42 19.4804 42.1054 19.2929 42.2929C19.1054 42.4804 19 42.7348 19 43V44C19 44.2652 19.1054 44.5196 19.2929 44.7071C19.4804 44.8946 19.7348 45 20 45C20.2652 45 20.5196 44.8946 20.7071 44.7071C20.8946 44.5196 21 44.2652 21 44Z" fill="#11A21B"/>
<path d="M25 52H29C29.2652 52 29.5196 51.8946 29.7071 51.7071C29.8946 51.5196 30 51.2652 30 51C30 50.7348 29.8946 50.4804 29.7071 50.2929C29.5196 50.1054 29.2652 50 29 50H25C24.7348 50 24.4804 50.1054 24.2929 50.2929C24.1054 50.4804 24 50.7348 24 51C24 51.2652 24.1054 51.5196 24.2929 51.7071C24.4804 51.8946 24.7348 52 25 52Z" fill="#11A21B"/>
<path d="M25 48H29C29.2652 48 29.5196 47.8946 29.7071 47.7071C29.8946 47.5196 30 47.2652 30 47C30 46.7348 29.8946 46.4804 29.7071 46.2929C29.5196 46.1054 29.2652 46 29 46H25C24.7348 46 24.4804 46.1054 24.2929 46.2929C24.1054 46.4804 24 46.7348 24 47C24 47.2652 24.1054 47.5196 24.2929 47.7071C24.4804 47.8946 24.7348 48 25 48Z" fill="#11A21B"/>
</svg>
