<svg width="28" height="12" viewBox="0 0 28 12" fill="none" xmlns="http://www.w3.org/2000/svg">
<path d="M11.0058 0.500081C10.8058 0.851932 16.0327 7.02267 20.073 6.09077C16.5987 8.5858 14.3139 6.68738 11.1608 11.5002C13.1226 10.7183 16.1709 10.9889 18.2851 11.3335C22.4051 12.0048 25.8381 9.49126 26.0183 7.47279L27.5001 7.47279L27.5001 4.97279C27.5001 4.97279 26.2891 5.04222 26.0001 4.97279C24.9718 1.50147 22.5655 1.00357 18.5867 1.66496C16.0166 2.02816 13.2982 1.54703 11.0058 0.500081Z" stroke="white" stroke-linecap="round" stroke-linejoin="round"/>
<path d="M12.493 9.47275C9.85977 9.47275 2.82395 9.4727 0.84905 7.21917C0.38365 6.688 0.383651 5.49682 0.849051 4.96565C3.48225 1.96094 9.85977 2.51354 12.493 2.51354" stroke="white" stroke-linecap="round" stroke-linejoin="round"/>
<path d="M3.00012 5.9728L2.52771 7.65207" stroke="white" stroke-linecap="round" stroke-linejoin="round"/>
<path d="M6.34534 3.08823L5.00012 8.47281" stroke="white" stroke-linecap="round" stroke-linejoin="round"/>
<path d="M9.27295 2.94291L7.92725 9.00278" stroke="white" stroke-linecap="round" stroke-linejoin="round"/>
<path d="M12.5001 2.47281L11.0001 9.47281" stroke="white" stroke-linecap="round" stroke-linejoin="round"/>
<path d="M14.9756 4.60159L14.5001 6.47281" stroke="white" stroke-linecap="round" stroke-linejoin="round"/>
</svg>
