<svg width="28" height="12" viewBox="0 0 28 12" fill="none" xmlns="http://www.w3.org/2000/svg">
<path d="M16.9942 11.5001C17.1942 11.1483 11.9673 4.97751 7.92705 5.90941C11.4013 3.41438 13.6861 5.31281 16.8392 0.500031C14.8774 1.28186 11.8291 1.01132 9.71489 0.666696C5.59489 -0.00462945 2.16193 2.50892 1.98173 4.52739L0.499924 4.52739L0.499923 7.02739C0.499923 7.02739 1.71092 6.95796 1.99992 7.02739C3.02822 10.4987 5.43445 10.9966 9.41325 10.3352C11.9834 9.97202 14.7018 10.4532 16.9942 11.5001Z" stroke="#2F2F2F" stroke-linecap="round" stroke-linejoin="round"/>
<path d="M15.507 2.52743C18.1402 2.52743 25.176 2.52749 27.1509 4.78101C27.6163 5.31218 27.6163 6.50336 27.1509 7.03454C24.5177 10.0392 18.1402 9.48664 15.507 9.48664" stroke="#2F2F2F" stroke-linecap="round" stroke-linejoin="round"/>
<path d="M25 6.02739L25.4724 4.34811" stroke="#2F2F2F" stroke-linecap="round" stroke-linejoin="round"/>
<path d="M21.6548 8.91198L23 3.5274" stroke="#2F2F2F" stroke-linecap="round" stroke-linejoin="round"/>
<path d="M18.7271 9.05731L20.0728 2.99744" stroke="#2F2F2F" stroke-linecap="round" stroke-linejoin="round"/>
<path d="M15.5 9.5274L17 2.5274" stroke="#2F2F2F" stroke-linecap="round" stroke-linejoin="round"/>
<path d="M13.0245 7.39859L13.5 5.52737" stroke="#2F2F2F" stroke-linecap="round" stroke-linejoin="round"/>
</svg>
