<svg width="66" height="63" viewBox="0 0 66 63" fill="none" xmlns="http://www.w3.org/2000/svg">
<g clip-path="url(#clip0_145_31)">
<path d="M0.459034 25.3576C0.568194 25.4 11.3855 29.6849 12.1363 37.0185C12.8048 43.5497 14.1634 47.8097 16.2899 50.042C18.0047 51.8422 19.8755 52.0085 21.3549 52.0085C21.5289 52.0085 21.6976 52.0062 21.8599 52.004C22.0049 52.002 22.1457 52.0001 22.2815 52.0001C24.9079 52.0001 27.0557 50.6118 28.8477 47.7559C29.836 46.1814 31.1062 43.6898 33.0374 37.1515L36.1165 26.868C36.4433 25.7766 40.5145 19.4649 43.004 15.7434C43.0886 15.6169 43.1308 15.4669 43.1247 15.3149C43.1186 15.1629 43.0644 15.0167 42.9699 14.8975C42.8754 14.7783 42.7456 14.6921 42.599 14.6513C42.4524 14.6106 42.2967 14.6174 42.1543 14.6708L30.7312 18.9544C29.1906 10.9392 25.9916 6 22.292 6C19.9232 6 17.7715 7.96273 16.0696 11.6759C14.5888 14.9067 13.5601 19.2969 13.147 24.1158C11.4024 23.7458 9.46713 23.5438 7.34125 23.5096C5.08238 23.47 2.82435 23.6274 0.592811 23.9799C0.438481 24.0075 0.2974 24.0847 0.19107 24.2C0.08474 24.3152 0.018993 24.462 0.00384993 24.618C-0.0112932 24.774 0.024998 24.9308 0.107192 25.0643C0.189387 25.1978 0.312976 25.3007 0.459124 25.3575L0.459034 25.3576ZM40.5815 16.7954C38.631 19.7582 35.1174 25.1929 34.7394 26.4553L31.6596 36.7417C29.5552 43.8663 27.598 48.5485 24.5544 50.0446C25.3315 47.86 25.3001 43.7742 24.4608 37.843C24.5079 35.4725 27.4809 30.4319 28.6327 28.6754L27.4307 27.887C27.3857 27.9549 26.3272 29.5737 25.251 31.6C24.7076 32.6231 24.2633 33.5551 23.918 34.396C23.8836 34.1961 23.8488 33.9951 23.8129 33.7918C23.6594 32.9018 23.4039 32.0324 23.0515 31.2008C26.4524 23.7707 28.477 21.6833 31.1948 20.3158L40.5815 16.7954ZM14.673 23.25H17.9691V21.8125H14.8449C14.9435 21.0777 15.0568 20.3589 15.1849 19.6562H17.9691V18.2188H15.4728C15.6929 17.212 15.9433 16.2499 16.2227 15.3438H18.6879V13.9062H16.7068C16.9177 13.3332 17.1408 12.7894 17.3763 12.2749C17.4588 12.0952 17.5423 11.9202 17.6268 11.75H20.8441V10.3125H18.4331C19.6268 8.44375 20.9609 7.4375 22.292 7.4375C23.6448 7.4375 24.9764 8.47609 26.1498 10.3125H23.7191V11.75H26.9556C27.3002 12.4519 27.6071 13.1716 27.8749 13.9062H25.8754V15.3438H28.36C28.6375 16.2422 28.8901 17.203 29.112 18.2188H26.5941V19.6562H29.4001C29.4012 19.6622 29.4024 19.668 29.4035 19.6742C27.4932 20.8756 25.8187 22.6887 23.7192 26.5905V25.4062H20.8441V26.8438H23.5837C23.1449 27.6708 22.6872 28.5892 22.2049 29.6115C21.4351 28.4368 20.4441 27.4232 19.2871 26.6271C17.9616 25.7011 16.3821 24.9791 14.5606 24.4637C14.5938 24.0559 14.6312 23.6513 14.673 23.25ZM7.34762 24.9475C10.6302 25.0014 15.2239 25.5405 18.4665 27.8074C20.6096 29.3054 21.932 31.4029 22.3972 34.0415C23.9256 42.71 24.0858 48.7816 22.8257 50.2834C22.6615 50.479 22.4988 50.5625 22.2816 50.5625C22.1394 50.5625 21.9921 50.5645 21.8403 50.5665H21.8303C18.7317 47.8419 18.6879 41.2855 18.6879 41.2188H17.9691H17.2504C17.2504 41.4858 17.2841 46.9931 19.7923 50.4401C18.9686 50.271 18.1315 49.8911 17.3306 49.0505C15.4587 47.0855 14.1921 42.988 13.5662 36.8721C13.2152 33.4432 10.9097 30.1264 6.89903 27.2801C5.75147 26.4705 4.54968 25.7406 3.30214 25.0956C4.64722 24.9771 5.99749 24.9277 7.34762 24.9475Z" fill="#F5D83E"/>
<path d="M20.125 21.8125H24.4375V23.25H20.125V21.8125Z" fill="#F5D83E"/>
<path d="M20.125 18.2188H24.4375V19.6562H20.125V18.2188Z" fill="#F5D83E"/>
<path d="M20.125 13.9062H24.4375V15.3438H20.125V13.9062Z" fill="#F5D83E"/>
</g>
<g clip-path="url(#clip1_145_31)">
<path d="M16.7186 16.9936C16.7919 17.0849 24.0175 26.2044 21.0009 32.9309C18.3143 38.9213 17.3609 43.2899 18.0862 46.2864C18.6712 48.7029 20.2083 49.7823 21.4894 50.522C21.6401 50.609 21.7874 50.6913 21.9291 50.7705C22.0556 50.8413 22.1785 50.9101 22.2962 50.978C24.5706 52.2911 27.1248 52.1628 30.1047 50.5855C31.7478 49.716 34.0937 48.1934 39.0353 43.4967L46.8436 36.1304C47.6724 35.3487 54.354 31.9182 58.3707 29.94C58.5072 29.8727 58.6188 29.764 58.6895 29.6292C58.7602 29.4945 58.7863 29.3409 58.7641 29.1904C58.7419 29.0399 58.6725 28.9003 58.566 28.7918C58.4594 28.6832 58.3211 28.6112 58.1711 28.5863L46.1366 26.5844C48.8101 18.8727 48.5092 12.9957 45.3052 11.146C43.2538 9.96159 40.409 10.5855 37.0785 12.9502C34.1807 15.0078 31.0947 18.2954 28.3276 22.2623C27.0017 21.0695 25.4267 19.9269 23.6027 18.8344C21.6663 17.6706 19.6321 16.6779 17.5233 15.8674C17.3758 15.8141 17.215 15.8105 17.0653 15.8571C16.9156 15.9037 16.7853 15.998 16.6942 16.1256C16.603 16.2531 16.5561 16.407 16.5605 16.5637C16.565 16.7204 16.6205 16.8714 16.7187 16.9936L16.7186 16.9936ZM55.7467 29.6398C52.5762 31.2305 46.816 34.1802 45.8574 35.0844L38.047 42.4528C32.6622 47.5707 28.6261 50.647 25.2422 50.421C27.0075 48.9175 29.0233 45.3634 31.262 39.8072C32.488 37.7779 37.583 34.8991 39.4588 33.9538L38.812 32.67C38.7391 32.7064 37.013 33.579 35.0678 34.7957C34.0857 35.41 33.2349 35.995 32.5154 36.5506C32.5856 36.3603 32.6559 36.1689 32.7265 35.9749C33.0386 35.1273 33.252 34.2466 33.3626 33.3503C40.0229 28.6161 42.82 27.8206 45.8574 27.9952L55.7467 29.6398ZM30.082 22.2754L32.9365 23.9235L33.6553 22.6786L30.9496 21.1164C31.4024 20.5294 31.8599 19.9636 32.3222 19.4191L34.7334 20.8112L35.4522 19.5663L33.2903 18.3181C33.9842 17.5562 34.6822 16.8483 35.3772 16.2032L37.5121 17.4358L38.2309 16.1909L36.5152 15.2004C36.9844 14.8095 37.4495 14.4502 37.9107 14.1223C38.072 14.0079 38.2317 13.8982 38.3901 13.793L41.1764 15.4017L41.8951 14.1568L39.8071 12.9512C41.7752 11.9297 43.4338 11.7253 44.5865 12.3909C45.7581 13.0673 46.392 14.6325 46.4899 16.8096L44.3849 15.5943L43.6662 16.8392L46.469 18.4574C46.4166 19.2376 46.3224 20.0143 46.1871 20.7845L44.4554 19.7847L43.7367 21.0296L45.8884 22.2719C45.6796 23.1887 45.4179 24.1471 45.1022 25.1377L42.9216 23.8788L42.2029 25.1237L44.633 26.5267C44.6309 26.5324 44.629 26.538 44.6269 26.5439C42.3718 26.6292 40.0151 27.3621 36.246 29.6915L36.8381 28.6659L34.3482 27.2283L33.6295 28.4733L36.0021 29.8431C35.2085 30.3399 34.3529 30.9064 33.4241 31.5506C33.3447 30.1484 32.9933 28.7751 32.3894 27.5072C31.7045 26.0424 30.6976 24.6274 29.3779 23.2703C29.6105 22.9337 29.8452 22.6021 30.082 22.2754ZM22.8893 20.0828C25.7051 21.7708 29.4138 24.5345 31.0886 28.119C32.1955 30.4878 32.292 32.9655 31.3756 35.4832C28.365 43.7545 25.4679 49.0928 23.6258 49.7633C23.3857 49.8507 23.2031 49.8416 23.015 49.733C22.8919 49.6619 22.7633 49.59 22.6308 49.5159L22.6221 49.5109C21.301 45.602 24.5413 39.9021 24.5746 39.8442L23.9522 39.4849L23.3297 39.1255C23.1962 39.3567 20.4717 44.1431 20.9204 48.3824C20.2915 47.8241 19.7566 47.0765 19.4833 45.9481C18.8447 43.3104 19.7965 39.1286 22.3124 33.5191C23.7229 30.3741 23.3848 26.3489 21.3345 21.8786C20.7455 20.6037 20.0697 19.3707 19.3118 18.1883C20.5359 18.7582 21.7299 19.3906 22.8893 20.0828Z" fill="#F5D83E"/>
<path d="M35.5225 23.7565L39.2572 25.9128L38.5384 27.1577L34.8037 25.0014L35.5225 23.7565Z" fill="#F5D83E"/>
<path d="M37.3193 20.6443L41.0541 22.8005L40.3353 24.0454L36.6006 21.8892L37.3193 20.6443Z" fill="#F5D83E"/>
<path d="M39.4756 16.9095L43.2103 19.0658L42.4916 20.3107L38.7568 18.1544L39.4756 16.9095Z" fill="#F5D83E"/>
</g>
<defs>
<clipPath id="clip0_145_31">
<rect width="46" height="46" fill="white" transform="translate(0 6)"/>
</clipPath>
<clipPath id="clip1_145_31">
<rect width="46" height="46" fill="white" transform="translate(26) rotate(30)"/>
</clipPath>
</defs>
</svg>
