<svg width="13" height="14" viewBox="0 0 13 14" fill="none" xmlns="http://www.w3.org/2000/svg">
<path d="M12.4977 11.073C11.974 9.94665 11.2422 9.17902 10.3813 8.84901C8.66669 8.18899 6.71533 9.15749 5.26616 10.4488C5.5029 8.57639 5.15137 6.53176 3.55872 5.62782C2.76239 5.18303 1.67909 5.08976 0.423622 5.35521C0.229921 5.39825 0.07209 5.54173 0.0218711 5.73543C-0.0355219 5.92914 0.0218711 6.13719 0.172528 6.27349C0.932985 6.99091 1.41365 7.71549 1.6217 8.41856C1.77236 8.94944 1.74366 9.37272 1.70779 9.82469C1.66475 10.3986 1.60735 11.0515 1.96606 11.8908C2.24585 12.558 2.71217 13.1822 3.35067 13.7633C3.36501 13.7776 3.38654 13.7848 3.40806 13.7992C3.42241 13.8063 3.43676 13.8135 3.4511 13.8279C3.49415 13.8494 3.53719 13.8709 3.58741 13.8852C3.60894 13.8852 3.62328 13.9068 3.65198 13.9139C4.02503 13.9713 4.39091 14 4.74245 14C5.20159 14 5.63921 13.9498 6.05531 13.8422C6.96643 13.6126 7.49014 13.1894 7.94928 12.8235C8.31516 12.5222 8.6667 12.2424 9.22628 12.0343C9.96521 11.7617 10.8835 11.6971 11.9596 11.8406C12.1533 11.8693 12.347 11.7832 12.4618 11.6254C12.5766 11.4676 12.5981 11.2595 12.5192 11.0802L12.4977 11.073Z" fill="#F5D83E"/>
<path d="M6.33515 8.37548C7.22474 7.88764 8.20042 7.55763 9.2048 7.55763C9.54916 7.55763 9.87917 7.60785 10.202 7.68677L11.766 4.83146C12.2825 3.87013 12.4045 2.78684 12.1031 1.86855C11.8664 1.13679 11.3714 0.570032 10.7114 0.25437C9.19045 -0.463043 7.18887 0.390678 6.24188 2.14117L5.88318 2.75097L7.63366 3.92035C7.87759 4.08535 7.94933 4.42254 7.78432 4.66646C7.68388 4.82429 7.5117 4.90321 7.33235 4.90321C7.23191 4.90321 7.1243 4.87451 7.03104 4.80994L5.33794 3.67643L4.57031 5.00364C5.63208 5.81432 6.15579 7.04827 6.33515 8.36831V8.37548ZM10.8692 3.69078C11.1275 3.84143 11.2136 4.16427 11.0701 4.42254C10.9696 4.59472 10.7903 4.69516 10.6038 4.69516C10.5105 4.69516 10.4244 4.67363 10.3383 4.62341L9.80743 4.3221C9.54916 4.17144 9.46307 3.84861 9.60655 3.59034C9.75003 3.33207 10.08 3.23881 10.3383 3.38946L10.8692 3.69078ZM8.80305 1.29462C8.94653 1.03635 9.27654 0.943086 9.53481 1.09374L10.0657 1.39506C10.324 1.54571 10.4101 1.86855 10.2666 2.12682C10.1661 2.299 9.98678 2.39943 9.80025 2.39943C9.70699 2.39943 9.6209 2.37791 9.53481 2.32769L9.00392 2.02638C8.74566 1.87572 8.65957 1.55289 8.80305 1.29462ZM6.58624 5.83584C6.75125 5.59192 7.08126 5.52018 7.33235 5.68519L7.61932 5.87889C7.86324 6.04389 7.93498 6.38108 7.76997 6.625C7.66954 6.78283 7.49736 6.86174 7.318 6.86174C7.21757 6.86174 7.10995 6.83305 7.01669 6.76848L6.72973 6.57478C6.4858 6.40977 6.41406 6.07259 6.57907 5.82867L6.58624 5.83584Z" fill="#F5D83E"/>
</svg>
