<svg width="20" height="20" viewBox="0 0 20 20" fill="none" xmlns="http://www.w3.org/2000/svg">
<g clip-path="url(#clip0_231_455)">
<path d="M15.2056 13.2304C14.5522 12.5853 13.7365 12.5853 13.0872 13.2304C12.592 13.7215 12.0967 14.2126 11.6098 14.712C11.4766 14.8494 11.3642 14.8785 11.2019 14.7869C10.8815 14.6121 10.5402 14.4706 10.2322 14.2792C8.7964 13.3761 7.59364 12.2149 6.52822 10.9081C5.99967 10.2589 5.52938 9.56385 5.2006 8.78143C5.13401 8.62328 5.1465 8.51924 5.27551 8.39022C5.77077 7.91162 6.25354 7.42052 6.74047 6.92943C7.41884 6.24689 7.41884 5.44782 6.73631 4.76112C6.34926 4.36991 5.96221 3.98703 5.57516 3.59582C5.17563 3.19628 4.78026 2.79259 4.37656 2.39721C3.72316 1.76046 2.90744 1.76046 2.2582 2.40138C1.75878 2.89247 1.28017 3.39605 0.772432 3.87882C0.302147 4.32413 0.064924 4.86933 0.0149823 5.50609C-0.0640921 6.54238 0.189778 7.5204 0.547694 8.47346C1.28017 10.4462 2.39554 12.1983 3.74813 13.8047C5.57516 15.9772 7.75595 17.696 10.3071 18.9363C11.4558 19.4939 12.6461 19.9226 13.9404 19.9934C14.831 20.0433 15.6051 19.8186 16.2252 19.1235C16.6497 18.6491 17.1284 18.2163 17.5778 17.7626C18.2437 17.0884 18.2479 16.2727 17.5861 15.6068C16.7954 14.8119 16.0005 14.0212 15.2056 13.2304Z" fill="#F5D83E"/>
<path d="M14.4103 9.91346L15.946 9.65126C15.7047 8.24041 15.0388 6.96273 14.0274 5.94725C12.9579 4.87766 11.6053 4.20345 10.1153 3.99536L9.89893 5.53939C11.0517 5.7017 12.1005 6.22193 12.9287 7.05013C13.7111 7.83255 14.223 8.82306 14.4103 9.91346Z" fill="#F5D83E"/>
<path d="M16.8119 3.23789C15.0389 1.46496 12.7957 0.34543 10.3194 0L10.103 1.54403C12.2422 1.84368 14.1816 2.81338 15.7131 4.34077C17.1656 5.79324 18.1187 7.6286 18.4641 9.64708L19.9998 9.38488C19.5961 7.04595 18.4932 4.92342 16.8119 3.23789Z" fill="#F5D83E"/>
</g>
<defs>
<clipPath id="clip0_231_455">
<rect width="20" height="20" fill="white"/>
</clipPath>
</defs>
</svg>
