<svg width="60" height="60" viewBox="0 0 60 60" fill="none" xmlns="http://www.w3.org/2000/svg">
<path d="M48.8909 47.6562C47.1719 45.0864 40.9913 38.9376 32.7491 38.6586C33.5867 38.0202 34.3637 37.1844 34.8233 36.5406C36.0065 34.8828 36.7775 30.8028 36.8099 30.6294C36.9161 30.147 36.3461 29.7378 35.9243 29.997C35.6495 30.1404 31.3541 32.6166 30.5333 34.4892V29.355C31.7021 28.2846 34.4705 26.0328 36.1097 26.0556C38.7263 26.1084 45.7583 27.4932 45.8291 27.507C46.4279 27.6438 46.8131 26.8038 46.3109 26.4426C45.0635 25.4844 38.7065 20.7216 36.2699 21.036C34.4807 21.267 31.9481 23.3454 30.5333 24.627V24.5424L34.7279 19.0674H38.6639C38.9951 19.0674 39.2639 18.7992 39.2639 18.4674C39.2639 18.1356 38.9951 17.8674 38.6639 17.8674H36.9071L38.9345 16.8234C39.2291 16.6716 39.3449 16.3104 39.1931 16.0152C39.0419 15.7206 38.6801 15.603 38.3849 15.7566L36.5339 16.7094L38.7365 13.8342C38.9381 13.5714 38.8877 13.1946 38.6249 12.993C38.3621 12.7926 37.9859 12.8418 37.7837 13.1046L35.4815 16.1094L35.9165 13.779C36.0485 13.0002 34.8953 12.789 34.7369 13.5588L34.1873 16.5048L33.4145 14.829C33.0719 14.1186 32.0069 14.6094 32.3249 15.3318L33.7349 18.3894L30.5333 22.5684V13.236C31.3085 12.03 33.2963 9.21538 34.5353 8.61958C36.4709 7.68658 42.1493 6.08818 42.2063 6.07258C42.8033 5.92438 42.7661 5.00038 42.1547 4.90558C40.8731 4.66438 34.3937 3.52018 32.6777 4.68658C31.7075 5.34658 30.8267 6.99718 30.2153 8.39578C30.1385 8.35378 30.0545 8.32618 29.9615 8.32138C29.0741 5.98678 26.4989 2.77138 26.3795 2.62318C26.0807 2.22838 25.4021 2.39578 25.3235 2.88478C25.2833 3.08938 24.3497 7.92838 24.9269 10.2618C25.2257 11.469 25.9451 13.1436 26.8307 14.283C23.4695 12.7818 17.4365 10.332 15.7673 11.2656C13.7537 12.393 11.6423 18.2088 11.4077 18.8682C11.3117 19.1382 11.4203 19.4388 11.6669 19.5852C11.9117 19.7304 12.2285 19.6836 12.4205 19.4694C13.2671 18.522 15.7187 15.9252 16.8725 15.2904C17.6873 14.8992 22.9601 16.5252 27.5381 18.2988L27.4661 23.5866C26.6711 21.705 22.4447 19.1676 22.1831 19.0248C21.9821 18.906 21.7313 18.9144 21.5381 19.0458C21.3455 19.1784 21.2471 19.4094 21.2855 19.6398C21.3143 19.8132 22.0079 23.907 23.1599 25.587C24.0179 26.8368 25.9607 28.7814 27.3923 28.7316L27.3545 31.4988C25.6355 28.809 22.4477 24.3018 19.5641 24.438C15.9641 24.672 11.4359 27.9372 11.2451 28.0764C10.7783 28.3938 11.0345 29.1834 11.6009 29.1618C11.6471 29.1618 16.7429 29.1444 18.6767 29.6724C20.9249 30.2856 25.5191 35.52 27.2705 37.692L27.2219 41.289C25.7645 40.008 23.0855 37.8588 21.2735 37.6248C18.8303 37.3122 12.4799 42.0732 11.2325 43.0314C10.7327 43.392 11.1131 44.2344 11.7143 44.0958C11.7851 44.082 18.8165 42.6972 21.4337 42.6444C23.0465 42.6198 25.9445 44.904 27.1583 45.9918L27.0641 52.944C26.4677 53.127 25.9499 53.3766 25.5569 53.622C22.0637 52.542 20.5577 54.4236 20.0825 55.2534C19.3859 55.2738 16.6643 56.4264 17.5199 57.4242C17.7545 57.6588 18.1349 57.6588 18.3683 57.4242C18.9935 56.799 19.7105 56.4606 20.5007 56.418C20.7413 56.4048 20.9513 56.2488 21.0329 56.022C21.0683 55.9242 21.9377 53.6364 25.4507 54.8502C25.6343 54.9126 25.8383 54.8832 25.9961 54.7704C26.0525 54.7296 26.7617 54.2358 27.7703 53.9892C27.8111 53.9814 27.8537 53.9796 27.8909 53.964C28.8647 53.7498 30.0917 53.7768 31.2833 54.642C31.4633 54.7722 31.6991 54.7926 31.8983 54.696C32.8145 54.222 35.5991 53.4552 36.0527 55.4286C36.1289 55.6776 36.3563 55.8492 36.6167 55.854C36.6389 55.854 38.8349 55.9086 40.1723 57.4008C40.2905 57.5334 40.4549 57.6006 40.6193 57.6006C41.1179 57.6174 41.4173 56.9664 41.0657 56.6004C39.7625 55.1448 37.8881 54.7776 37.0571 54.6852C36.1475 52.3458 33.0767 52.8438 31.6991 53.4744C31.3133 53.2296 30.9221 53.0538 30.5309 52.9254V41.6178C32.5157 43.0518 36.3335 44.253 36.9257 44.4342C39.0215 45.075 40.2299 45.5616 41.7599 46.1766C43.2995 46.7964 45.0443 47.4984 48.2039 48.5694C48.7271 48.768 49.2287 48.1074 48.8879 47.6568L48.8909 47.6562ZM30.5357 26.2692C31.7687 25.0692 34.7687 22.44 36.4241 22.227C37.5911 22.071 40.7969 23.9934 43.4531 25.8426C41.1197 25.4262 37.8215 24.8898 36.1343 24.8556C34.3091 24.8262 31.9079 26.6094 30.5351 27.7572V26.2692H30.5357ZM21.4121 41.4444C19.7249 41.4786 16.4261 42.0144 14.0933 42.4314C16.7501 40.5816 19.9493 38.6586 21.1223 38.8158C22.7801 39.0294 25.9061 41.676 27.2009 42.8868L27.1805 44.427C25.7735 43.269 23.2613 41.4156 21.4121 41.4444ZM31.9565 34.494C32.5673 33.6384 34.1351 32.5254 35.3375 31.7574C35.0015 33.1434 34.4579 34.9878 33.8471 35.844C32.7059 37.4418 30.9557 38.544 30.5921 38.4252C30.5627 38.388 30.5435 38.325 30.5339 38.244V37.974C30.5903 37.2192 31.0715 35.7324 31.9565 34.494ZM30.5357 10.8948C30.9617 9.62338 32.2103 6.45718 33.3539 5.67958C34.0607 5.19958 36.7535 5.34178 39.3155 5.67298C37.4921 6.22918 35.1737 6.98158 34.0157 7.53838C32.8787 8.08618 31.4909 9.79078 30.5363 11.109L30.5357 10.8948ZM29.0075 9.25258C29.0921 9.59518 29.1545 9.93898 29.2013 10.278C27.9023 9.59638 26.5631 8.04538 25.9715 7.25038C26.0315 6.25498 26.1605 5.24038 26.2763 4.46458C27.2171 5.74498 28.6655 7.87138 29.0075 9.25258ZM25.9727 9.12958C26.8127 10.0572 28.0343 11.1936 29.3015 11.6298C29.2859 13.1298 29.0825 14.4978 28.5677 14.3202C28.5143 14.2758 28.4561 14.2398 28.3895 14.2158C27.6767 13.7448 26.0783 11.0982 25.9727 9.12958ZM17.1881 14.076C16.8065 14.076 16.5017 14.1264 16.2983 14.2386C15.6029 14.6214 14.6141 15.504 13.7171 16.3824C14.5583 14.5428 15.5693 12.753 16.3559 12.3126C17.3213 11.7756 22.8533 13.7478 27.5699 15.9378L27.5573 17.019C24.9323 16.0134 19.5647 14.0766 17.1887 14.0766L17.1881 14.076ZM27.3773 27.5376C26.9951 27.6786 25.2623 26.529 24.1517 24.909C23.5571 24.042 23.0489 22.1874 22.7393 20.7954C23.9267 21.5856 25.4735 22.7286 26.0675 23.5956C26.8841 24.7866 27.3341 26.1948 27.4217 26.9754C27.4223 27.129 27.4127 27.3144 27.4109 27.4668C27.4019 27.4956 27.3905 27.5202 27.3767 27.5376H27.3773ZM18.9953 28.5144C17.7137 28.1646 15.3047 28.0356 13.5827 27.9882C15.1961 27.0234 17.6819 25.728 19.7393 25.6332C21.9623 25.6332 25.5185 30.5454 27.3269 33.7866L27.2993 35.8386C25.3835 33.5736 21.4187 29.1756 18.9953 28.5144ZM28.2701 52.6956C28.3073 49.8126 28.4963 36.2046 28.5287 33.633L28.6139 27.3564C28.6505 25.443 28.7513 17.2908 28.7777 15.5388C28.9727 15.537 29.1689 15.4758 29.3339 15.3762V52.6836C28.9703 52.6542 28.6133 52.6596 28.2695 52.6962L28.2701 52.6956ZM42.2111 45.063C40.7159 44.4618 39.4247 43.9422 37.2797 43.2864C33.1121 42.012 30.9299 40.6206 30.5765 40.0812C31.0997 39.7668 33.5837 39.5574 37.5485 40.7694C41.7245 42.0468 44.8787 44.907 46.5557 46.7244C44.6423 46.041 43.3679 45.5286 42.2111 45.0624V45.063Z" fill="#2F2F2F"/>
</svg>
