<svg width="60" height="60" viewBox="0 0 60 60" fill="none" xmlns="http://www.w3.org/2000/svg">
<path d="M18.0549 36.3243C15.2257 33.4951 10.6223 33.4951 7.79324 36.3243C4.9641 39.1535 4.9641 43.7568 7.79324 46.586C9.20781 48.0005 11.0659 48.7079 12.9241 48.7079C14.7822 48.7079 16.6403 48.0005 18.0549 46.586C20.884 43.7568 20.884 39.1535 18.0549 36.3243ZM9.03613 45.3431C6.89242 43.1993 6.89242 39.7111 9.03613 37.5672C10.108 36.4953 11.5161 35.9594 12.9241 35.9594C14.3321 35.9594 15.7401 36.4953 16.812 37.5672C18.9557 39.7111 18.9557 43.1993 16.812 45.3431C14.668 47.4869 11.18 47.4869 9.03613 45.3431Z" fill="#2F2F2F"/>
<path d="M16.0422 38.337C14.3229 36.6175 11.525 36.6175 9.80564 38.337C8.08627 40.0564 8.08627 42.8541 9.80564 44.5736C10.6653 45.4333 11.7947 45.8631 12.9239 45.8631C14.0531 45.8631 15.1824 45.4333 16.0421 44.5736C17.7616 42.8541 17.7616 40.0564 16.0422 38.337ZM14.7994 43.3306C13.7653 44.3646 12.0827 44.3646 11.0487 43.3306C10.0146 42.2965 10.0146 40.6139 11.0487 39.5799C11.5657 39.0628 12.2449 38.8043 12.924 38.8043C13.6031 38.8043 14.2823 39.0628 14.7994 39.5799C15.8333 40.6139 15.8333 42.2965 14.7994 43.3306Z" fill="#2F2F2F"/>
<path d="M54.9135 43.3133C55.3562 43.1144 55.554 42.5941 55.3552 42.1513C54.4307 40.0938 52.3762 38.7642 50.1209 38.7642C46.9582 38.7642 44.3853 41.3372 44.3853 44.4999C44.3853 47.6626 46.9582 50.2356 50.1209 50.2356C52.3001 50.2356 54.2636 49.0262 55.2453 47.0792C55.4637 46.6457 55.2895 46.1173 54.8562 45.8988C54.4228 45.6802 53.8942 45.8544 53.6756 46.2878C52.9946 47.6387 51.6325 48.4778 50.121 48.4778C47.9276 48.4778 46.1432 46.6933 46.1432 44.4999C46.1432 42.3065 47.9277 40.522 50.121 40.522C51.6855 40.522 53.1106 41.4444 53.7517 42.8717C53.9506 43.3144 54.4704 43.512 54.9135 43.3133Z" fill="#2F2F2F"/>
<path d="M50.1206 41.4331C48.4295 41.4331 47.0537 42.8089 47.0537 44.5C47.0537 46.1912 48.4295 47.5669 50.1206 47.5669C51.8119 47.5669 53.1877 46.1912 53.1877 44.5C53.1877 42.8089 51.8119 41.4331 50.1206 41.4331ZM50.1206 45.8092C49.3989 45.8092 48.8115 45.222 48.8115 44.5001C48.8115 43.7783 49.3989 43.191 50.1206 43.191C50.8425 43.191 51.4298 43.7783 51.4298 44.5001C51.4298 45.222 50.8425 45.8092 50.1206 45.8092Z" fill="#2F2F2F"/>
<path d="M59.1211 52.6214H55.7365C58.3102 50.8362 60 47.8624 60 44.4999C60 41.5702 58.7169 38.9357 56.6847 37.1249V28.0121C56.6847 26.7295 55.719 25.6212 54.4385 25.4344C54.4282 25.4329 54.4179 25.4316 54.4075 25.4305L48.9274 24.8286V23.3203C48.9274 22.8349 48.534 22.4414 48.0485 22.4414C47.563 22.4414 47.1696 22.8349 47.1696 23.3203V24.6356L44.7432 24.3691V17.4814C44.7432 17.3199 44.8746 17.1884 45.0362 17.1884H46.8766C47.0382 17.1884 47.1696 17.3199 47.1696 17.4814V19.1015C47.1696 19.5869 47.563 19.9804 48.0485 19.9804C48.534 19.9804 48.9274 19.5869 48.9274 19.1015V17.4814C48.9274 16.3648 48.03 15.4556 46.9188 15.4327V10.2732L48.0188 9.44819C48.407 9.15698 48.4857 8.60596 48.1945 8.21772C47.9032 7.82924 47.3522 7.75073 46.9641 8.04194L45.5126 9.13061C45.2912 9.29666 45.161 9.55717 45.161 9.83373V15.4306H45.0362C43.9055 15.4306 42.9854 16.3506 42.9854 17.4814V24.176L33.7179 23.1581L29.8936 10.6548H29.9869C31.1177 10.6548 32.0377 9.73471 32.0377 8.60397V7.67151C32.0377 6.54077 31.1176 5.62073 29.9869 5.62073H5.64316C4.51242 5.62073 3.59238 6.54077 3.59238 7.67151V8.60397C3.59238 9.73471 4.51242 10.6548 5.64316 10.6548H5.9168V27.308C4.51254 27.9815 3.20191 28.864 2.02758 29.9421C1.72734 30.2177 1.55027 30.61 1.54148 31.0187C1.5327 31.4299 1.69441 31.8325 1.98527 32.1233L2.98195 33.1199L2.37586 33.726C1.78723 34.3147 1.75816 35.2543 2.28879 35.8776C1.95316 36.5171 1.67473 37.1893 1.46004 37.879C0.644062 37.9443 0 38.6294 0 39.462V43.4484C0 44.2809 0.643945 44.9658 1.46016 45.0314C1.67484 45.7211 1.95316 46.3932 2.28891 47.0328C1.75828 47.6561 1.78734 48.5957 2.37598 49.1844L5.1948 52.0032C5.78344 52.5917 6.72305 52.6209 7.34637 52.0903C7.7243 52.2887 8.11465 52.4643 8.51227 52.6214H0.878906C0.393516 52.6214 0 53.0149 0 53.5003C0 53.9856 0.393516 54.3792 0.878906 54.3792H59.1211C59.6066 54.3792 60 53.9856 60 53.5003C60 53.0149 59.6066 52.6214 59.1211 52.6214ZM33.9257 24.9493L54.1975 27.1758C54.6143 27.243 54.9268 27.6003 54.9268 28.0122V31.2531H36.071C34.888 31.2531 33.9257 30.2908 33.9257 29.1078V24.9493ZM31.8588 23.0896H21.3671C20.8818 23.0896 20.4882 23.4831 20.4882 23.9685C20.4882 24.4539 20.8818 24.8474 21.3671 24.8474H32.1679V29.1078C32.1679 31.2599 33.9188 33.011 36.071 33.011H54.9268V35.8729C53.5032 35.0766 51.8646 34.6206 50.1207 34.6206C44.6739 34.6206 40.2425 39.0516 40.2416 44.4984H28.5316C28.9364 42.2034 28.8383 39.8323 28.2364 37.5771C27.5167 34.8803 26.0875 32.4062 24.1031 30.4217C21.1734 27.492 17.2793 25.8326 13.1381 25.7492C11.2552 25.7121 9.41156 26.002 7.67461 26.5912V24.8472H17.2266C17.712 24.8472 18.1055 24.4537 18.1055 23.9683C18.1055 23.4829 17.712 23.0894 17.2266 23.0894H15.2254V10.6548H28.0554L31.8588 23.0896ZM7.67473 23.0896V10.6548H13.4677V23.0896H7.67473ZM5.64316 8.89694C5.48168 8.89694 5.35019 8.76545 5.35019 8.60397V7.67151C5.35019 7.51002 5.48168 7.37854 5.64316 7.37854H29.9869C30.1484 7.37854 30.2798 7.51002 30.2798 7.67151V8.60397C30.2798 8.76545 30.1484 8.89694 29.9869 8.89694H5.64316ZM13.1029 27.5069C16.7878 27.5811 20.2532 29.0576 22.8602 31.6648C24.6263 33.4308 25.8981 35.6321 26.5382 38.0305C27.1008 40.1385 27.1702 42.3606 26.7446 44.4985H25.4486C25.6964 44.2183 25.8479 43.851 25.8479 43.4484V39.462C25.8479 38.6295 25.204 37.9446 24.3878 37.879C24.1731 37.1894 23.8948 36.5171 23.559 35.8776C24.0896 35.2543 24.0606 34.3147 23.472 33.726L20.6531 30.9072C20.0644 30.3186 19.1248 30.2895 18.5016 30.8201C17.8621 30.4845 17.1899 30.2061 16.5001 29.9914C16.4347 29.1753 15.7496 28.5312 14.917 28.5312H10.9308C10.0983 28.5312 9.41332 29.1752 9.34781 29.9914C8.65805 30.2061 7.98598 30.4844 7.34637 30.8201C6.72316 30.2896 5.78367 30.3185 5.1948 30.9072L4.22508 31.8769L3.41039 31.0622C6.08426 28.6954 9.51527 27.4359 13.1029 27.5069ZM14.7564 52.6214H11.0917C11.0252 51.9887 10.5899 51.4573 9.96656 51.2701C9.3123 51.0735 8.67562 50.8099 8.0741 50.4864C7.50129 50.1782 6.81797 50.2463 6.32391 50.6464L3.73254 48.055C4.13285 47.561 4.2007 46.8778 3.89262 46.3049C3.56918 45.7033 3.30551 45.0666 3.10898 44.4124C2.92172 43.7892 2.39051 43.3538 1.7577 43.2874V39.6227C2.39039 39.5562 2.92172 39.1209 3.10887 38.4976C3.30539 37.8433 3.56906 37.2066 3.89262 36.6051C4.2007 36.0322 4.13273 35.3491 3.73254 34.855L6.32391 32.2637C6.81809 32.664 7.50129 32.7317 8.07399 32.4237C8.67562 32.1003 9.3123 31.8366 9.96656 31.6401C10.5898 31.4528 11.0251 30.9216 11.0916 30.2888H14.7562C14.8227 30.9215 15.258 31.4528 15.8814 31.64C16.5356 31.8365 17.1723 32.1002 17.7738 32.4237C18.3466 32.7318 19.0297 32.6638 19.5239 32.2637L22.1153 34.855C21.7151 35.3492 21.6472 36.0324 21.9552 36.6051C22.2786 37.2066 22.5423 37.8434 22.7388 38.4976C22.9261 39.1209 23.4573 39.5561 24.0901 39.6227V43.2874C23.4574 43.3538 22.9261 43.7892 22.7388 44.4125C22.5423 45.0667 22.2786 45.7034 21.9552 46.3049C21.6472 46.8778 21.7151 47.5608 22.1153 48.055L19.5239 50.6464C19.0298 50.2463 18.3466 50.1782 17.7738 50.4863C17.1723 50.8097 16.5355 51.0734 15.8814 51.2699C15.2582 51.4573 14.8228 51.9885 14.7564 52.6214ZM17.3358 52.6214C17.7334 52.4643 18.1237 52.2887 18.5017 52.0903C19.125 52.621 20.0647 52.5918 20.6532 52.0032L23.4721 49.1844C24.0607 48.5957 24.0898 47.656 23.5591 47.0328C23.6923 46.7792 23.8137 46.5192 23.9284 46.2563H40.4012C40.875 48.8848 42.3905 51.1546 44.5052 52.6214H17.3358ZM41.9995 44.4999C41.9995 40.0217 45.6428 36.3785 50.1209 36.3785C54.5991 36.3785 58.2423 40.0217 58.2423 44.4999C58.2423 48.978 54.5991 52.6212 50.1209 52.6212C45.6427 52.6213 41.9995 48.9781 41.9995 44.4999Z" fill="#2F2F2F"/>
<path d="M31.7163 43.0095C32.2018 43.0095 32.5952 42.616 32.5952 42.1306V37.776C32.5952 37.2906 32.2018 36.8971 31.7163 36.8971C31.2308 36.8971 30.8374 37.2906 30.8374 37.776V42.1306C30.8374 42.616 31.2308 43.0095 31.7163 43.0095Z" fill="#2F2F2F"/>
<path d="M34.8008 43.0095C35.2863 43.0095 35.6797 42.616 35.6797 42.1306V37.776C35.6797 37.2906 35.2863 36.8971 34.8008 36.8971C34.3153 36.8971 33.9219 37.2906 33.9219 37.776V42.1306C33.9219 42.616 34.3153 43.0095 34.8008 43.0095Z" fill="#2F2F2F"/>
<path d="M37.8853 43.0095C38.3708 43.0095 38.7642 42.616 38.7642 42.1306V37.776C38.7642 37.2906 38.3708 36.8971 37.8853 36.8971C37.3997 36.8971 37.0063 37.2906 37.0063 37.776V42.1306C37.0063 42.616 37.3999 43.0095 37.8853 43.0095Z" fill="#2F2F2F"/>
</svg>
