<svg width="60" height="60" viewBox="0 0 60 60" fill="none" xmlns="http://www.w3.org/2000/svg">
<g clip-path="url(#clip0_231_332)">
<path d="M17.8973 22.9963C17.5488 23.3342 17.5401 23.8906 17.8781 24.2391C18.2158 24.5876 18.7722 24.5964 19.1208 24.2584C19.5387 23.8533 20.245 23.8535 20.6624 24.2584C20.8332 24.424 21.0538 24.5063 21.2741 24.5063C21.5037 24.5063 21.7329 24.4169 21.9053 24.2391C22.2433 23.8906 22.2346 23.3342 21.8861 22.9963C20.7863 21.9301 18.9971 21.9304 17.8973 22.9963Z" fill="#2F2F2F"/>
<path d="M31.0705 24.2584C31.4957 23.8464 32.1895 23.847 32.6169 24.2598C32.7876 24.4245 33.0075 24.5064 33.2272 24.5064C33.4574 24.5064 33.6873 24.4165 33.8597 24.2378C34.1967 23.8886 34.1869 23.3322 33.8377 22.995C32.7352 21.9311 30.9449 21.9318 29.8467 22.9964C29.4982 23.3343 29.4895 23.8907 29.8275 24.2392C30.1654 24.5876 30.7218 24.5964 31.0705 24.2584Z" fill="#2F2F2F"/>
<path d="M25.8671 31.3473C26.8596 31.3473 27.7927 30.9608 28.4948 30.2587C28.838 29.9155 28.838 29.359 28.4948 29.0159C28.1514 28.6726 27.595 28.6726 27.2518 29.0159C26.8818 29.3858 26.3901 29.5895 25.8672 29.5895C25.8667 29.5895 25.8661 29.5895 25.8657 29.5895C25.3437 29.5891 24.8536 29.3857 24.4859 29.0168C24.143 28.673 23.5865 28.6723 23.243 29.0149C22.8992 29.3576 22.8985 29.9141 23.241 30.2578C23.9407 30.9596 24.8724 31.3465 25.8644 31.3472C25.8652 31.3473 25.8661 31.3473 25.8671 31.3473Z" fill="#2F2F2F"/>
<path d="M37.5899 53.1108H35.5234C35.0379 53.1108 34.6445 53.5044 34.6445 53.9897C34.6445 54.4751 35.0379 54.8687 35.5234 54.8687H37.5899C38.0754 54.8687 38.4688 54.4751 38.4688 53.9897C38.4688 53.5044 38.0753 53.1108 37.5899 53.1108Z" fill="#2F2F2F"/>
<path d="M16.2131 53.1108H14.1433C13.6578 53.1108 13.2644 53.5044 13.2644 53.9897C13.2644 54.4751 13.6578 54.8687 14.1433 54.8687H16.2131C16.6986 54.8687 17.092 54.4751 17.092 53.9897C17.092 53.5044 16.6985 53.1108 16.2131 53.1108Z" fill="#2F2F2F"/>
<path d="M58.8935 19.2177C58.408 19.2177 58.0146 19.6112 58.0146 20.0966V29.5009C58.0146 30.8916 56.8832 32.0229 55.4926 32.0229H53.0505V20.0966C53.0505 19.6112 52.6571 19.2177 52.1716 19.2177C51.6861 19.2177 51.2927 19.6112 51.2927 20.0966V32.0229H48.8472C47.4584 32.0229 46.3286 30.8916 46.3286 29.5009V20.0966C46.3286 19.6112 45.9352 19.2177 45.4497 19.2177C44.9642 19.2177 44.5708 19.6112 44.5708 20.0966V29.5009C44.5708 31.8608 46.4892 33.7807 48.8472 33.7807H51.2927V40.269H49.393C48.5799 40.269 47.9184 40.9305 47.9184 41.7436V42.8079C45.9477 40.9283 43.2513 39.5732 40.5328 38.556C40.473 38.5253 40.4093 38.5015 40.3425 38.4851C38.9843 37.9848 37.6248 37.568 36.3515 37.2111C36.3335 37.2053 36.315 37.2005 36.2965 37.1958C35.2542 36.9046 34.2705 36.6532 33.3944 36.4296L33.0697 36.3466C32.9989 36.3285 32.9518 36.312 32.9217 36.2995C32.9216 36.2945 32.9214 36.2889 32.9214 36.2828V34.1242C35.5604 32.012 37.5734 29.0157 38.1981 26.1206C40.1496 25.4741 41.5401 24.1358 42.0499 22.3815C42.4459 21.0192 42.2278 19.5688 41.4777 18.3165C43.3673 17.5559 44.6261 16.5853 45.2974 15.3925C45.7187 14.6429 45.7775 13.9984 45.4722 13.4768C44.9623 12.6054 43.7749 12.6054 42.8207 12.6054H39.3989L37.0809 4.42266C36.3191 1.73602 34.378 0 32.1358 0H19.5972C17.3551 0 15.4141 1.73602 14.652 4.42301L12.334 12.6055H8.91208C7.95829 12.6055 6.77118 12.6055 6.26106 13.4774C5.95591 13.9991 6.0145 14.6435 6.43567 15.3929C7.1068 16.5855 8.36563 17.5561 10.2553 18.3165C9.50516 19.5687 9.28719 21.0189 9.68317 22.3808C10.1931 24.1348 11.5834 25.4727 13.5348 26.1196C14.1593 29.0145 16.1724 32.0111 18.8114 34.1236V36.2827C18.8114 36.289 18.8113 36.2948 18.8111 36.3002C18.7816 36.3124 18.7357 36.3286 18.6671 36.3464L18.3207 36.435C17.4508 36.6573 16.487 36.9045 15.4742 37.1861C15.4399 37.1932 15.4066 37.2029 15.3738 37.2139C14.087 37.5736 12.7225 37.9921 11.362 38.4925C11.3188 38.5046 11.2769 38.52 11.2366 38.5384C10.0019 38.9972 8.77356 39.5234 7.61481 40.1381C3.28555 42.4354 0.979421 45.4455 0.760515 49.0848L0.238093 57.7407C0.203757 58.3151 0.229655 58.9669 0.682116 59.4473C1.14079 59.9344 1.81801 60 2.41989 60H49.3698C49.3738 60 49.3775 59.9994 49.3815 59.9994C49.3854 59.9994 49.3892 60 49.3931 60H54.9502C55.7633 60 56.4248 59.3371 56.4248 58.5221V41.7436C56.4248 40.9305 55.7633 40.269 54.9502 40.269H53.0506V33.7807H55.4927C57.8526 33.7807 59.7725 31.8608 59.7725 29.5009V20.0966C59.7724 19.6112 59.3789 19.2177 58.8935 19.2177ZM36.958 39.2166C37.7103 39.4413 38.4815 39.6877 39.2532 39.9601V47.9825L36.958 47.9906V39.2166ZM40.3622 21.891C40.0845 22.8461 39.3916 23.627 38.4022 24.1365V19.2486C38.879 19.1402 39.3314 19.0241 39.7606 18.9007C40.4363 19.8124 40.6565 20.878 40.3622 21.891ZM15.1732 9.03223H24.1295C24.615 9.03223 25.0084 8.63871 25.0084 8.15332C25.0084 7.66793 24.615 7.27441 24.1295 7.27441H15.6711L16.3431 4.9023C16.8849 2.99215 18.1622 1.75781 19.5972 1.75781H32.1358C33.5709 1.75781 34.8482 2.99215 35.39 4.90207L36.0621 7.27441H28.1926C27.7071 7.27441 27.3137 7.66793 27.3137 8.15332C27.3137 8.63871 27.7071 9.03223 28.1926 9.03223H36.56L37.5723 12.6055H14.1609L15.1732 9.03223ZM13.3309 24.1354C12.3415 23.6257 11.6486 22.845 11.371 21.8903C11.0766 20.8775 11.2967 19.8123 11.9723 18.9007C12.4017 19.0242 12.854 19.1402 13.3309 19.2486V24.1354ZM7.96778 14.5314C7.94235 14.4861 7.92149 14.4459 7.90438 14.4105C8.2161 14.3633 42.8209 14.3633 42.8209 14.3633C43.0164 14.3633 43.5167 14.3633 43.8287 14.4103C43.8116 14.4457 43.7908 14.4858 43.7654 14.5309C42.77 16.2997 38.8571 18.4547 25.8665 18.6785C12.8758 18.4547 8.96294 16.2997 7.96778 14.5314ZM15.0887 24.2995V19.5961C17.9565 20.0864 21.5273 20.3624 25.8515 20.4363C25.8565 20.4363 25.8615 20.4364 25.8665 20.4364C25.8716 20.4364 25.8766 20.4364 25.8815 20.4363C30.2057 20.3623 33.7766 20.0864 36.6445 19.5961V24.2996C36.6445 28.2225 32.8291 33.0763 28.4782 34.6871C27.5 35.0514 26.6701 35.2209 25.8665 35.2209C25.0631 35.2209 24.2332 35.0514 23.2535 34.6867C18.9041 33.0751 15.0887 28.2213 15.0887 24.2995ZM31.1638 35.34V36.2829C31.1638 39.2057 28.7874 41.5835 25.8665 41.5835C22.9456 41.5835 20.5693 39.2057 20.5693 36.2829V35.3398C21.2384 35.7343 21.9318 36.0715 22.6416 36.3344C23.8223 36.7739 24.847 36.9788 25.8666 36.9788C26.8863 36.9788 27.911 36.774 29.0902 36.335C29.8003 36.072 30.4941 35.7347 31.1638 35.34ZM12.4797 39.9577C13.2501 39.6864 14.0203 39.4413 14.775 39.2167V47.9794H12.4797V39.9577ZM10.7219 48.1494C9.84208 48.5002 9.21782 49.359 9.21782 50.3624V58.2422H2.41989C2.20016 58.2422 2.06809 58.2291 1.99192 58.2165C1.98536 58.1467 1.98184 58.0309 1.99286 57.8463L2.51528 49.1906C2.69751 46.1625 4.63509 43.7094 8.43887 41.691C9.17177 41.3021 9.93981 40.9507 10.722 40.6281L10.7219 48.1494ZM40.7606 58.2422H10.9756V50.3625C10.9756 50.0177 11.2562 49.7373 11.6008 49.7373H23.444C23.9295 49.7373 24.3229 49.3438 24.3229 48.8584C24.3229 48.373 23.9295 47.9795 23.444 47.9795H16.5328V38.7185C17.3175 38.5063 18.0672 38.3142 18.7561 38.1382L19.0394 38.0657C19.8309 41.0973 22.5917 43.3413 25.8665 43.3413C29.1417 43.3413 31.9027 41.0972 32.6939 38.0648L32.9597 38.1328C33.6458 38.308 34.4018 38.5011 35.2003 38.7176V47.997L27.8707 47.9796C27.3852 47.9814 26.9932 48.3762 26.9948 48.8616C26.9966 49.3459 27.3896 49.7374 27.8736 49.7374C27.8747 49.7374 27.8785 49.7807 27.8796 49.7807L40.1357 49.7374H40.1382C40.3017 49.7374 40.4567 49.8022 40.5751 49.92C40.6947 50.0393 40.7607 50.1964 40.7607 50.3627V58.2422H40.7606ZM47.9184 58.2422H42.5184V50.3625C42.5184 49.7254 42.2687 49.1258 41.8154 48.6743C41.5813 48.4411 41.308 48.2651 41.011 48.1479V40.6308C43.8126 41.7874 46.4254 43.3361 47.9184 45.4794V58.2422ZM54.6669 58.2422H49.6762V54.7322H54.6669V58.2422ZM54.6669 52.9744H49.6762V50.1632H54.6669V52.9744ZM54.6669 42.0268V48.4053H49.6762V42.0268H54.6669Z" fill="#2F2F2F"/>
</g>
<defs>
<clipPath id="clip0_231_332">
<rect width="60" height="60" fill="white"/>
</clipPath>
</defs>
</svg>
