<svg width="20" height="20" viewBox="0 0 20 20" fill="none" xmlns="http://www.w3.org/2000/svg">
<g clip-path="url(#clip0_371_2109)">
<path d="M15.2053 13.2302C14.5519 12.5851 13.7362 12.5851 13.087 13.2302C12.5917 13.7213 12.0965 14.2124 11.6095 14.7118C11.4764 14.8491 11.364 14.8782 11.2017 14.7867C10.8812 14.6119 10.54 14.4704 10.232 14.2789C8.79616 13.3758 7.5934 12.2147 6.52797 10.9079C5.99942 10.2586 5.52914 9.56361 5.20036 8.78119C5.13377 8.62304 5.14625 8.519 5.27527 8.38998C5.77052 7.91137 6.25329 7.42028 6.74022 6.92918C7.4186 6.24665 7.4186 5.44758 6.73606 4.76088C6.34902 4.36967 5.96197 3.98678 5.57492 3.59557C5.17538 3.19604 4.78001 2.79234 4.37632 2.39697C3.72291 1.76021 2.9072 1.76021 2.25795 2.40113C1.75854 2.89223 1.27993 3.39581 0.772188 3.87858C0.301903 4.32389 0.0646799 4.86909 0.0147382 5.50584C-0.0643362 6.54213 0.189534 7.52016 0.54745 8.47322C1.27993 10.4459 2.39529 12.198 3.74788 13.8045C5.57492 15.977 7.75571 17.6958 10.3069 18.936C11.4556 19.4937 12.6458 19.9224 13.9402 19.9931C14.8308 20.043 15.6049 19.8183 16.225 19.1233C16.6495 18.6488 17.1281 18.216 17.5776 17.7624C18.2435 17.0882 18.2476 16.2724 17.5859 15.6066C16.7952 14.8117 16.0003 14.0209 15.2053 13.2302Z" fill="#2F2F2F"/>
<path d="M14.4105 9.91321L15.9462 9.65102C15.7048 8.24016 15.0389 6.96249 14.0276 5.94701C12.958 4.87742 11.6054 4.20321 10.1155 3.99512L9.89905 5.53915C11.0519 5.70146 12.1006 6.22169 12.9288 7.04989C13.7113 7.83231 14.2232 8.82282 14.4105 9.91321Z" fill="#2F2F2F"/>
<path d="M16.8118 3.23789C15.0389 1.46496 12.7957 0.34543 10.3194 0L10.103 1.54403C12.2421 1.84368 14.1815 2.81338 15.7131 4.34077C17.1656 5.79324 18.1186 7.6286 18.464 9.64708L19.9998 9.38488C19.5961 7.04595 18.4932 4.92342 16.8118 3.23789Z" fill="#2F2F2F"/>
</g>
<defs>
<clipPath id="clip0_371_2109">
<rect width="20" height="20" fill="white"/>
</clipPath>
</defs>
</svg>
