<svg width="20" height="20" viewBox="0 0 20 20" fill="none" xmlns="http://www.w3.org/2000/svg">
<path d="M11.6714 12.2536C11.1739 12.5853 10.5959 12.7606 10 12.7606C9.40414 12.7606 8.82617 12.5853 8.32859 12.2536L0.133164 6.78977C0.0876953 6.75945 0.0433984 6.72785 0 6.69535V15.6484C0 16.6748 0.833008 17.4895 1.84113 17.4895H18.1588C19.1853 17.4895 20 16.6565 20 15.6484V6.69531C19.9565 6.72789 19.9121 6.75957 19.8665 6.78992L11.6714 12.2536Z" fill="#2F2F2F"/>
<path d="M0.783203 5.81512L8.97863 11.2789C9.28887 11.4858 9.64441 11.5892 9.99996 11.5892C10.3555 11.5892 10.7111 11.4857 11.0214 11.2789L19.2168 5.81512C19.7072 5.48836 20 4.94148 20 4.35125C20 3.33637 19.1743 2.51074 18.1595 2.51074H1.84051C0.825664 2.51078 0 3.33641 0 4.35223C0 4.94148 0.292812 5.48836 0.783203 5.81512Z" fill="#2F2F2F"/>
</svg>
