<svg width="28" height="12" viewBox="0 0 28 12" fill="none" xmlns="http://www.w3.org/2000/svg">
<path d="M16.9943 11.5001C17.1943 11.1483 11.9675 4.97751 7.92717 5.90941C11.4015 3.41438 13.6862 5.31281 16.8393 0.500031C14.8775 1.28186 11.8292 1.01132 9.71501 0.666696C5.59501 -0.00462945 2.16206 2.50892 1.98186 4.52739L0.500046 4.52739L0.500045 7.02739C0.500045 7.02739 1.71104 6.95796 2.00004 7.02739C3.02834 10.4987 5.43457 10.9966 9.41337 10.3352C11.9835 9.97202 14.7019 10.4532 16.9943 11.5001Z" stroke="white" stroke-linecap="round" stroke-linejoin="round"/>
<path d="M15.5072 2.52743C18.1404 2.52743 25.1762 2.52749 27.1511 4.78101C27.6165 5.31218 27.6165 6.50336 27.1511 7.03454C24.5179 10.0392 18.1404 9.48664 15.5072 9.48664" stroke="white" stroke-linecap="round" stroke-linejoin="round"/>
<path d="M25 6.02739L25.4724 4.34811" stroke="white" stroke-linecap="round" stroke-linejoin="round"/>
<path d="M21.6548 8.91198L23 3.5274" stroke="white" stroke-linecap="round" stroke-linejoin="round"/>
<path d="M18.7272 9.05731L20.0729 2.99744" stroke="white" stroke-linecap="round" stroke-linejoin="round"/>
<path d="M15.5 9.5274L17 2.5274" stroke="white" stroke-linecap="round" stroke-linejoin="round"/>
<path d="M13.0245 7.39859L13.5 5.52737" stroke="white" stroke-linecap="round" stroke-linejoin="round"/>
</svg>
