<svg width="34" height="26" viewBox="0 0 34 26" fill="none" xmlns="http://www.w3.org/2000/svg">
<mask id="mask0_9_651" style="mask-type:luminance" maskUnits="userSpaceOnUse" x="2" y="11" width="32" height="15">
<path d="M17.8435 11.4419C11.6089 11.4419 7.1586 15.049 4.82923 20.5906L2.55546 26H9.47492L11.6733 20.7703C13.3815 17.4754 16.8234 15.2239 20.7916 15.2239C23.1358 15.2239 25.4666 16.2705 27.0874 17.8913C22.5549 14.8411 16.3009 16.4146 13.7652 21.3057C18.2403 29.0542 29.0189 21.5811 33.1316 25.9999L30.8205 20.5014C28.5103 15.0058 23.9992 11.4419 17.8435 11.4419Z" fill="white"/>
</mask>
<g mask="url(#mask0_9_651)">
<path d="M33.1316 11.4419H2.55546V29.0542H33.1316V11.4419Z" fill="#C8433A"/>
</g>
<mask id="mask1_9_651" style="mask-type:luminance" maskUnits="userSpaceOnUse" x="13" y="17" width="21" height="9">
<path d="M17.842 17.3008C16.1569 18.1357 14.7055 19.4924 13.7652 21.3057C18.2403 29.0542 29.0189 21.5812 33.1316 26L32.833 25.2898C31.6119 22.7003 26.8792 21.9622 21.5695 22.2428C17.4686 22.4595 15.7795 18.8418 17.842 17.3008Z" fill="white"/>
</mask>
<g mask="url(#mask1_9_651)">
<path d="M33.1316 17.3008H13.7652V29.0542H33.1316V17.3008Z" fill="#C8433A"/>
</g>
<mask id="mask2_9_651" style="mask-type:luminance" maskUnits="userSpaceOnUse" x="2" y="11" width="28" height="15">
<path d="M17.8435 11.4419C11.6089 11.4419 7.1586 15.049 4.82923 20.5906L2.55546 26H6.01516C10.4695 9.37653 24.2903 11.2763 29.1277 17.3807C26.5923 13.6952 22.7379 11.4419 17.8435 11.4419Z" fill="white"/>
</mask>
<g mask="url(#mask2_9_651)">
<path d="M29.1278 9.37656H2.55547V26H29.1278V9.37656Z" fill="#C8433A"/>
</g>
<mask id="mask3_9_651" style="mask-type:luminance" maskUnits="userSpaceOnUse" x="7" y="0" width="21" height="14">
<path d="M17.8435 9.86669C21.614 9.86669 25.1689 11.2358 27.9224 13.6072L22.2029 0H17.8435H13.4841L7.76461 13.6072C10.5182 11.2358 14.073 9.86669 17.8435 9.86669Z" fill="white"/>
</mask>
<g mask="url(#mask3_9_651)">
<path d="M27.9224 0H7.76461V13.6072H27.9224V0Z" fill="#C8433A"/>
</g>
<mask id="mask4_9_651" style="mask-type:luminance" maskUnits="userSpaceOnUse" x="7" y="6" width="21" height="8">
<path d="M17.8435 9.86669C21.614 9.86669 25.1689 11.2358 27.9224 13.6072L25.4459 7.71558C20.3466 5.45016 12.856 6.20158 7.76461 13.6072C10.5182 11.2358 14.073 9.86669 17.8435 9.86669Z" fill="white"/>
</mask>
<g mask="url(#mask4_9_651)">
<path d="M27.9224 5.45011H7.7646V13.6072H27.9224V5.45011Z" fill="#C8433A"/>
</g>
<mask id="mask5_9_651" style="mask-type:luminance" maskUnits="userSpaceOnUse" x="0" y="5" width="7" height="14">
<path d="M4.45392 18.675C8.85674 11.7084 5.76485 5.27221 6.48499e-05 5.4971C2.13224 8.52962 -2.21559 14.2867 3.87 16.1693C3.87 16.1693 5.19313 13.0165 3.44654 9.4326C4.81096 10.3272 6.40874 13.7568 4.45392 18.675Z" fill="white"/>
</mask>
<g mask="url(#mask5_9_651)">
<path d="M9.61794 18.6316L8.82085 4.64333L-2.97688 5.3156L-2.17979 19.3039L9.61794 18.6316Z" fill="#C8433A"/>
</g>
<mask id="mask6_9_651" style="mask-type:luminance" maskUnits="userSpaceOnUse" x="0" y="5" width="4" height="12">
<path d="M0 5.49709C2.13224 8.52973 -2.21547 14.2866 3.86999 16.1692C-0.024758 12.8716 3.90527 6.58993 0 5.49709Z" fill="white"/>
</mask>
<g mask="url(#mask6_9_651)">
<path d="M3.90526 5.49709H-2.21554V16.1692H3.90526V5.49709Z" fill="#C8433A"/>
</g>
</svg>
