<svg width="64" height="60" viewBox="0 0 64 60" fill="none" xmlns="http://www.w3.org/2000/svg">
<g clip-path="url(#clip0_0_2848)">
<path d="M37.715 59.927H37.72L18.37 57.137H18.356C16.702 56.8724 15.1472 56.1755 13.849 55.117L1.32 44.854C0.577611 44.1916 0.114082 43.2724 0.0229304 42.2816C-0.0682208 41.2909 0.219792 40.3024 0.828858 39.5157C1.43792 38.729 2.32271 38.2026 3.3047 38.0427C4.28669 37.8827 5.29278 38.1012 6.12 38.654L7.138 39.334C7.7456 38.7237 8.46793 38.2396 9.2634 37.9095C10.0589 37.5795 10.9118 37.4101 11.773 37.411C12.0014 37.4108 12.2298 37.4225 12.457 37.446C13.1989 35.8466 14.3811 34.4916 15.8652 33.5397C17.3493 32.5877 19.0739 32.0783 20.837 32.071C21.169 32.071 21.5 32.088 21.83 32.123C23.18 29.535 25.674 27.737 28.556 27.275L28.57 22.845L25.47 20.122C24.21 20.642 22.86 20.907 21.498 20.902C19.8153 20.8979 18.1547 20.5187 16.637 19.792C14.277 18.575 12.029 17.15 9.92 15.536L5.29 12.412C5.255 12.392 5.222 12.369 5.19 12.344C5.158 12.319 5.132 12.294 5.106 12.268C5.098 12.261 5.09 12.253 5.083 12.245C5.063 12.222 5.043 12.198 5.023 12.173L5 12.16C4.97781 12.128 4.95777 12.0946 4.94 12.06L4.93 12.04L4.89 11.952L4.88 11.929C4.853 11.855 4.836 11.779 4.828 11.701V11.671C4.82622 11.6397 4.82622 11.6083 4.828 11.577V11.54C4.831 11.506 4.836 11.473 4.842 11.44C4.84725 11.4006 4.8563 11.3617 4.869 11.324C4.871 11.316 4.873 11.309 4.876 11.301C4.902 11.225 4.938 11.154 4.983 11.088C5.005 11.05 5.028 11.02 5.053 10.991L5.061 10.981C5.116 10.921 5.178 10.867 5.247 10.823L5.257 10.817C5.299 10.791 5.343 10.767 5.387 10.747C7.85209 9.62665 10.4909 8.937 13.189 8.70802C15.9329 8.42881 18.7024 8.86318 21.229 9.96902C22.9488 10.7712 24.4146 12.0312 25.466 13.611C26.479 15.093 26.909 16.898 26.672 18.678L28.572 20.278V19.325C28.572 19.272 28.679 13.625 23.504 8.40702C23.4169 8.31917 23.3479 8.21501 23.301 8.1005C23.2541 7.98599 23.2303 7.86336 23.2308 7.73963C23.2313 7.6159 23.2562 7.49347 23.304 7.37935C23.3518 7.26523 23.4216 7.16165 23.5095 7.07452C23.5974 6.98739 23.7015 6.91841 23.816 6.87153C23.9305 6.82466 24.0532 6.80079 24.1769 6.8013C24.3006 6.80181 24.423 6.82669 24.5372 6.87451C24.6513 6.92233 24.7549 6.99217 24.842 7.08002C27.4997 9.68465 29.3438 13.0052 30.15 16.638C30.617 16.106 31.137 15.538 31.717 14.938C31.117 12.688 31.382 10.292 32.459 8.22602C33.569 6.02602 35.259 4.19202 37.344 2.89802C40.445 1.07681 43.9634 0.0865612 47.559 0.0230203C51.1071 -0.102937 54.6505 0.380745 58.035 1.45302H58.049C58.0832 1.4642 58.1166 1.47756 58.149 1.49302L58.179 1.50702C58.2085 1.52176 58.2373 1.53812 58.265 1.55602L58.279 1.56402C58.309 1.58402 58.339 1.60802 58.369 1.63202L58.392 1.65202C58.4147 1.67202 58.4363 1.69369 58.457 1.71702L58.473 1.73502C58.4981 1.76463 58.5215 1.79569 58.543 1.82802C58.568 1.86802 58.585 1.89802 58.6 1.92802L58.612 1.95302C58.6265 1.9839 58.6392 2.01563 58.65 2.04802L58.655 2.06402C58.6658 2.09675 58.6745 2.13016 58.681 2.16402V2.20602C58.681 2.23602 58.688 2.26602 58.691 2.29802V2.32802C58.692 2.40602 58.684 2.48302 58.667 2.55802C58.664 2.56602 58.662 2.57502 58.661 2.58302C58.653 2.61302 58.643 2.64302 58.631 2.68302C58.631 2.69102 58.626 2.69802 58.621 2.70602C58.6068 2.74034 58.5904 2.77374 58.572 2.80602L58.562 2.82402C58.5464 2.85088 58.5293 2.87692 58.511 2.90202L58.491 2.92802C58.4683 2.958 58.4436 2.9864 58.417 3.01302C58.389 3.04102 58.359 3.06702 58.327 3.09102C56.574 4.42602 54.897 5.94402 53.327 7.38402C53.2116 7.52059 53.0597 7.62142 52.889 7.67467C52.7183 7.72793 52.536 7.7314 52.3634 7.68469C52.1908 7.63797 52.0351 7.543 51.9146 7.41093C51.7941 7.27885 51.7138 7.11515 51.683 6.93902C51.6513 6.76347 51.6702 6.58253 51.7375 6.41732C51.8047 6.2521 51.9177 6.10945 52.063 6.00602L54.076 4.18602C46.836 6.08002 40.166 9.70602 34.638 14.752C37.7434 15.3118 40.9457 14.6813 43.607 12.986C44.8132 12.2109 45.971 11.363 47.074 10.447C47.334 10.233 47.689 10.173 48.004 10.292C48.319 10.411 48.548 10.688 48.604 11.022C48.66 11.356 48.534 11.692 48.274 11.906C47.1123 12.8706 45.8927 13.7633 44.622 14.579C42.3077 16.056 39.6224 16.8475 36.877 16.862C35.5803 16.8648 34.2904 16.6741 33.05 16.296C32.068 17.302 31.276 18.233 30.567 19.066L30.467 19.188V19.388L30.457 22.336C30.4701 22.4269 30.4701 22.5192 30.457 22.61L30.442 27.176C33.718 27.326 36.669 29.2 38.196 32.102C38.526 32.065 38.856 32.047 39.189 32.046H39.207C40.6601 32.0411 42.0936 32.3812 43.3897 33.0383C44.6857 33.6955 45.8072 34.6509 46.662 35.826C48.406 35.311 50.215 35.049 52.034 35.048H53.529V33.292C53.53 32.152 54.455 31.227 55.596 31.228H61C62.14 31.229 63.063 32.153 63.064 33.292V57.099C63.063 58.239 62.139 59.162 61 59.163H55.6C55.0529 59.1617 54.5286 58.9439 54.1416 58.5571C53.7547 58.1703 53.5366 57.6461 53.535 57.099V55.461L40.353 59.761C39.793 59.921 39.213 60.004 38.633 60.006C38.326 60.006 38.02 59.981 37.717 59.933L37.715 59.927ZM2.235 40.767C1.663 41.611 1.799 42.747 2.555 43.432L15.042 53.658C16.0792 54.5038 17.3208 55.0615 18.642 55.275L38.012 58.067C38.616 58.167 39.232 58.117 39.819 57.947L53.53 53.47V36.926H52.03C50.168 36.926 48.318 37.23 46.554 37.826C46.4595 37.8579 46.3655 37.8912 46.272 37.926L46.08 37.996L45.808 38.096C45.74 38.122 45.673 38.15 45.608 38.176L45.348 38.282C45.2093 38.3407 45.0713 38.4007 44.934 38.462L44.734 38.554L44.459 38.684L44.271 38.779L43.971 38.933L43.817 39.015L43.372 39.265C41.24 40.515 38.882 41.335 36.435 41.679H36.411L26.348 42.844C24.588 43.096 23.228 44.518 23.055 46.287L23.019 46.647L24.442 46.535C24.6079 46.5196 24.775 46.5485 24.9261 46.6189C25.0771 46.6892 25.2068 46.7985 25.3017 46.9355C25.3966 47.0724 25.4535 47.2322 25.4663 47.3983C25.4792 47.5645 25.4477 47.7311 25.375 47.881C25.3031 48.0312 25.1927 48.1595 25.0549 48.253C24.9172 48.3465 24.7571 48.4017 24.591 48.413L22.044 48.613H22.024L18.208 48.823H18.088C18.068 48.823 18.031 48.813 18.003 48.807C17.975 48.801 17.963 48.8 17.945 48.794C17.9148 48.7838 17.8848 48.7732 17.855 48.762C17.825 48.752 17.825 48.752 17.809 48.744C17.765 48.724 17.722 48.7 17.681 48.674L5.065 40.222C4.61648 39.9222 4.06784 39.8113 3.53806 39.9133C3.00829 40.0153 2.54009 40.3221 2.235 40.767ZM55.418 33.285V57.092C55.4183 57.1396 55.4373 57.1851 55.4711 57.2187C55.5048 57.2522 55.5504 57.271 55.598 57.271H61C61.047 57.271 61.093 57.251 61.127 57.219C61.161 57.187 61.179 57.139 61.179 57.092V33.285C61.179 33.185 61.099 33.105 60.999 33.105H55.599C55.5514 33.105 55.5058 33.1238 55.4721 33.1574C55.4383 33.1909 55.4193 33.2365 55.419 33.284L55.418 33.285ZM8.738 40.415L18.478 46.933L21.121 46.785L21.188 46.105C21.445 43.465 23.488 41.345 26.105 40.98H26.129L36.199 39.817C37.845 39.585 39.449 39.113 40.959 38.417C41.4623 38.185 41.955 37.9284 42.437 37.647C42.622 37.537 42.811 37.433 43 37.331L43.12 37.269L43.58 37.031C43.613 37.015 43.648 36.999 43.68 36.981C43.842 36.901 44.0087 36.8244 44.18 36.751L44.272 36.711C44.44 36.635 44.609 36.561 44.78 36.491L44.797 36.484C44.1087 35.679 43.2534 35.0333 42.2905 34.5919C41.3276 34.1506 40.2802 33.924 39.221 33.928H39.2C38.7403 33.9294 38.2817 33.9732 37.83 34.059C37.6194 34.0994 37.4014 34.0665 37.212 33.966C37.0227 33.8654 36.8734 33.7031 36.789 33.506C35.629 30.8 32.969 29.046 30.024 29.049H30.01C27.06 29.052 24.398 30.817 23.247 33.532C23.1635 33.7298 23.0147 33.8931 22.8255 33.9946C22.6363 34.0961 22.418 34.1298 22.207 34.09C21.76 34.006 21.307 33.964 20.852 33.963H20.837C17.743 33.976 14.985 35.915 13.937 38.823C13.775 39.273 13.303 39.531 12.837 39.423C12.493 39.345 12.141 39.305 11.787 39.303H11.777C10.667 39.302 9.594 39.696 8.749 40.415H8.738ZM11.011 14.015C13.0292 15.5625 15.1799 16.9291 17.438 18.099C19.364 19.019 21.548 19.249 23.622 18.753C19.4435 15.8437 14.6738 13.8935 9.654 13.042L11.01 14.012L11.011 14.015ZM9.89 11.17C15.27 12.068 20.378 14.163 24.838 17.3C24.628 14.865 22.638 12.716 20.425 11.676C18.6604 10.887 16.7437 10.4961 14.811 10.531C13.1508 10.5428 11.4983 10.7571 9.89 11.169V11.17ZM38.344 4.50002C35.371 6.36002 32.937 9.85202 33.332 13.388C39.117 8.09602 46.11 4.30002 53.7 2.33302C52.0403 2.04262 50.3589 1.89475 48.674 1.89102C45.054 1.78402 41.479 2.68702 38.344 4.50002ZM30.3 47.023C30.29 46.8996 30.3045 46.7754 30.3427 46.6576C30.3809 46.5398 30.442 46.4307 30.5224 46.3365C30.6029 46.2424 30.7012 46.1651 30.8116 46.1091C30.9221 46.053 31.0425 46.0194 31.166 46.01L38.689 45.417C38.8552 45.4011 39.0227 45.4297 39.1742 45.4999C39.3257 45.5702 39.4557 45.6795 39.551 45.8167C39.6462 45.9539 39.7031 46.114 39.716 46.2805C39.7288 46.447 39.6971 46.6139 39.624 46.764C39.5518 46.9144 39.4408 47.0429 39.3025 47.1362C39.1642 47.2295 39.0035 47.2843 38.837 47.295L31.313 47.888H31.238C31.0015 47.8883 30.7736 47.7994 30.5998 47.639C30.4259 47.4787 30.3189 47.2588 30.3 47.023Z" fill="#11A21B"/>
</g>
<defs>
<clipPath id="clip0_0_2848">
<rect width="63.062" height="60" fill="white"/>
</clipPath>
</defs>
</svg>
