<svg width="75" height="59" viewBox="0 0 75 59" fill="none" xmlns="http://www.w3.org/2000/svg">
<g clip-path="url(#clip0_0_2855)">
<path d="M74.187 26.918C73.9922 25.9783 73.5236 25.1173 72.8403 24.4436C72.1569 23.7698 71.2893 23.3135 70.347 23.132L69.971 23.072L69.953 22.692C69.8993 21.437 69.3628 20.2512 68.4555 19.3825C67.5481 18.5137 66.3402 18.0291 65.084 18.03L64.864 18.035C64.2052 18.0656 63.5594 18.2288 62.9652 18.5149C62.371 18.801 61.8407 19.2041 61.406 19.7L54.106 28.123C53.8387 28.4328 53.6113 28.7748 53.429 29.141L53.352 29.297L52.395 29.697L52.257 29.177C52.0475 28.3856 51.626 27.6662 51.038 27.0965C50.45 26.5268 49.7177 26.1284 48.92 25.944L44.85 24.78C39.82 23.335 38.126 22.848 36.47 22.848L35.492 22.894C28.442 23.647 26.828 23.876 23.306 25.894C20.693 27.394 18.206 29.124 15.866 31.032L15.514 31.32L14.778 30.468C13.856 29.403 12.246 29.284 11.178 30.203L0.853994 39.13C0.608049 39.3414 0.40652 39.5995 0.261094 39.8894C0.115669 40.1793 0.0292405 40.4951 0.00682218 40.8187C-0.0155962 41.1422 0.0264413 41.467 0.130497 41.7741C0.234552 42.0813 0.398555 42.3647 0.612994 42.608L14.213 58.128C15.063 59.105 16.539 59.22 17.531 58.388L27.831 49.506C28.897 48.584 29.015 46.973 28.095 45.906L27.395 45.086L28.431 44.191C29.851 43.086 31.601 42.486 33.401 42.483C34.2626 42.4843 35.1188 42.6192 35.939 42.883L42.801 44.829C43.0567 44.9081 43.3333 44.8825 43.5701 44.7579C43.8069 44.6332 43.9845 44.4196 44.064 44.164C44.104 44.0322 44.1157 43.8935 44.0985 43.7569C44.0813 43.6202 44.0354 43.4888 43.964 43.371C43.8256 43.1319 43.5985 42.9569 43.332 42.884L36.464 40.939C34.8792 40.4306 33.1932 40.3225 31.5564 40.6244C29.9197 40.9262 28.3831 41.6287 27.084 42.669L26.067 43.549L16.833 32.849L17.205 32.549C19.4395 30.7292 21.8157 29.0907 24.311 27.649C27.457 25.849 28.499 25.669 35.711 24.899C35.961 24.877 36.199 24.865 36.439 24.865C37.866 24.865 39.345 25.29 44.277 26.708L46.277 27.268C49.071 28.038 49.915 28.268 50.292 29.595C50.416 30.0491 50.4399 30.5248 50.362 30.989C50.284 31.339 50.135 31.669 49.925 31.961C49.7661 32.1821 49.5569 32.3623 49.3147 32.4868C49.0725 32.6113 48.8043 32.6765 48.532 32.677C48.3993 32.6789 48.267 32.6621 48.139 32.627L42.023 31.802L38.523 31.339C38.2754 31.3474 38.0394 31.4465 37.8601 31.6175C37.6808 31.7885 37.5706 32.0194 37.5505 32.2664C37.5303 32.5134 37.6017 32.7591 37.7509 32.9569C37.9002 33.1547 38.117 33.2907 38.36 33.339L47.884 34.623C48.0969 34.6605 48.3128 34.6792 48.529 34.679C49.3146 34.6768 50.0804 34.433 50.7228 33.9808C51.3652 33.5286 51.8529 32.8898 52.12 32.151L52.19 31.951L52.382 31.871L67.29 25.721C67.987 25.3282 68.7667 25.1048 69.566 25.069C70.526 25.062 71.413 25.584 71.873 26.429C72.873 28.202 71.773 29.797 70.393 30.729L50.643 42.029C50.289 42.259 49.918 42.459 49.543 42.629C49.3275 42.719 49.1499 42.8808 49.0403 43.087C48.9308 43.2932 48.896 43.531 48.942 43.7599C48.9879 43.9888 49.1118 44.1947 49.2925 44.3426C49.4732 44.4905 49.6995 44.5712 49.933 44.571C50.086 44.5692 50.237 44.5351 50.376 44.471C50.8487 44.2586 51.305 44.0112 51.741 43.731L71.491 32.431C73.666 31.033 74.661 29.031 74.216 26.929L74.187 26.918ZM26.7 47.376V47.626C26.7 47.748 26.7 47.961 16.33 56.773L15.98 57.073L1.83699 40.955L12.637 31.632L12.855 31.616H13.075L13.275 31.81L26.7 47.376ZM67.927 23.282L57.097 27.76L62.929 21.02C63.729 20.106 64.999 19.79 66.126 20.22C67.253 20.65 67.976 21.76 67.938 22.97L67.927 23.282ZM47.837 20.724C48.0499 20.8241 48.2822 20.876 48.5175 20.876C48.7527 20.876 48.9851 20.8241 49.198 20.724C52.69 19.068 57.138 15.824 59.162 11.64C59.412 11.143 59.216 10.537 58.722 10.282C58.5807 10.2092 58.4239 10.1715 58.265 10.172C58.07 10.1743 57.8796 10.2319 57.716 10.3381C57.5525 10.4443 57.4224 10.5948 57.341 10.772C55.898 13.752 52.678 16.722 48.725 18.712L48.525 18.817L48.325 18.717C46.062 17.595 38.675 13.395 38.675 6.46203C38.685 4.46803 40.03 2.72803 41.955 2.21203C43.88 1.69603 45.915 2.53403 46.919 4.25603C47.098 4.52953 47.3417 4.75472 47.6284 4.91169C47.9151 5.06866 48.2361 5.15258 48.563 5.15603C48.8752 5.14287 49.1796 5.05409 49.4499 4.89733C49.7203 4.74056 49.9485 4.52049 50.115 4.25603C50.5219 3.53791 51.1221 2.94838 51.8475 2.55451C52.5728 2.16064 53.3941 1.97823 54.218 2.02803C55.898 2.13003 57.375 3.17803 58.025 4.73103C58.0982 4.91692 58.2248 5.07694 58.3889 5.19086C58.553 5.30477 58.7472 5.36746 58.947 5.37099C59.1467 5.37452 59.343 5.31874 59.511 5.2107C59.6791 5.10266 59.8113 4.94722 59.891 4.76403C59.9468 4.63074 59.9741 4.4873 59.9714 4.34284C59.9686 4.19839 59.9358 4.05609 59.875 3.92503C58.97 1.83003 57.037 0.360029 54.78 0.0650289C53.6706 -0.0800535 52.5425 0.0668747 51.5072 0.491293C50.4719 0.915712 49.5653 1.60293 48.877 2.48503L48.512 2.95503L48.142 2.48803C47.3125 1.43873 46.1774 0.673252 44.8937 0.297551C43.61 -0.0781487 42.2413 -0.0454822 40.977 0.391029C39.7129 0.828379 38.6161 1.6479 37.8384 2.73612C37.0606 3.82435 36.6404 5.12746 36.636 6.46503C36.643 13.081 42.428 18.17 47.838 20.725L47.837 20.724Z" fill="#11A21B"/>
</g>
<defs>
<clipPath id="clip0_0_2855">
<rect width="74.291" height="58.947" fill="white"/>
</clipPath>
</defs>
</svg>
