<svg width="68" height="68" viewBox="0 0 68 68" fill="none" xmlns="http://www.w3.org/2000/svg">
<g clip-path="url(#clip0_0_2860)">
<path d="M67.194 28.488C67.501 25.346 65.014 13.773 62.794 15.156C62.31 15.403 62.117 15.996 62.364 16.48C65.0414 21.7573 65.8775 27.7783 64.7394 33.5855C63.6013 39.3927 60.5543 44.6526 56.083 48.529C55.4402 47.6725 54.7526 46.8507 54.023 46.067C53.8886 45.9229 53.7261 45.8078 53.5455 45.7291C53.3649 45.6503 53.17 45.6094 52.973 45.609C52.5767 45.6194 52.1999 45.7832 51.922 46.066C50.652 47.429 48.022 50.531 47.077 53.666C42.2679 55.2504 37.1076 55.4363 32.197 54.202C31.677 54.087 31.159 54.405 31.029 54.922C30.899 55.439 31.202 55.965 31.714 56.122C36.658 57.365 41.844 57.269 46.738 55.846C46.598 61.83 52.145 63.72 56.543 61.471C60.288 59.121 59.619 53.586 57.206 50.171C60.3455 47.5013 62.8654 44.1794 64.5903 40.4366C66.3153 36.6938 67.2038 32.6201 67.194 28.499V28.488ZM52.967 60.374C50.097 60.374 48.702 58.874 48.702 55.788C48.702 53.438 50.838 50.222 52.967 47.838C53.727 48.688 54.432 49.583 55.067 50.522C57.974 54.285 58.49 60.373 52.967 60.374ZM28.36 52.908C23.3051 50.7427 19.0393 47.0739 16.142 42.4V23.04C16.1444 21.2704 15.4638 19.5681 14.242 18.288C15.0694 16.3066 16.1374 14.4345 17.422 12.714L17.872 13.32L17.944 14.333L18.044 15.833C18.1094 16.2331 18.2355 16.6209 18.418 16.983L18.766 17.891L18.166 19.597C18.12 19.713 18.09 19.882 17.696 22.097L17.583 22.734C17.52 23.06 17.52 23.06 18.153 25.374L18.265 25.774C18.39 26.234 18.517 26.336 19.51 27.131L22.268 29.365L24.192 32.958C24.525 33.584 24.892 33.646 26.245 33.878L27.321 34.064C22.688 41.048 26.885 48.427 34.765 45.482L35.437 49.706C35.407 49.806 35.337 49.974 35.305 50.092C35.1192 50.4892 35.0269 50.9236 35.035 51.362C35.041 51.536 35.061 51.994 35.135 52.462C35.208 52.992 35.378 54.234 36.387 54.432C37.1877 54.5668 38.0105 54.4541 38.7455 54.1089C39.4804 53.7637 40.0925 53.2024 40.5 52.5C40.5113 52.48 40.5213 52.4593 40.53 52.438C40.9055 51.7013 41.4808 51.0852 42.19 50.66C43.495 49.936 43.82 48.133 44.06 46.817L44.104 46.573L44.524 46.386L45.324 46.031C45.724 45.855 45.777 45.761 46.464 44.609L47.124 43.509C47.324 43.159 47.332 43.104 47.276 41.645L47.221 40.183C47.197 39.483 46.903 39.275 45.807 38.503L44.822 37.803C44.358 37.469 44.122 37.503 42.822 37.723L42.186 37.823C41.9653 37.4022 41.7206 36.9945 41.453 36.602C40.713 35.508 38.118 34.978 36.333 34.738C35.3027 32.9805 34.078 31.3446 32.682 29.861C32.5458 29.72 32.3827 29.608 32.2023 29.5314C32.0219 29.4549 31.8279 29.4154 31.632 29.4154C31.436 29.4154 31.2421 29.4549 31.0617 29.5314C30.8813 29.608 30.7181 29.72 30.582 29.861L30.402 30.061L30.242 29.853C30.195 29.703 30.078 29.29 29.819 28.223L32.274 28.316C33.247 28.356 33.606 27.572 33.89 26.942L34.018 26.662L34.915 26.127C35.1323 25.966 35.3144 25.7623 35.4503 25.5285C35.5861 25.2946 35.6728 25.0355 35.705 24.767L35.768 24.522L38.095 23.282C38.2664 23.1939 38.4169 23.07 38.5363 22.9187C38.6557 22.7674 38.7412 22.5922 38.787 22.405C38.8148 22.0156 38.7602 21.6248 38.6268 21.258C38.4935 20.8912 38.2843 20.5566 38.013 20.276C37.893 20.106 37.725 19.864 37.64 19.71L37.674 19.597C38.934 19.154 39.768 18.897 40.34 18.715C41.44 18.372 42.055 18.18 42.195 17.31C42.3238 16.7953 42.33 16.2575 42.213 15.74L41.013 12.883C40.8 12.371 40.513 12.236 39.668 11.837L38.968 11.505C38.094 11.067 37.368 11.755 36.54 12.283C36.302 12.419 36.28 12.45 35.312 13.883L34.357 15.29L33.769 15.206L33.061 15.106C32.961 14.918 32.783 14.606 32.586 14.249L31.866 12.936C31.858 12.811 31.849 12.592 31.836 12.318L31.806 11.618C32.061 11.401 32.566 11.001 33.284 10.431L35.616 8.57597C36.616 7.84297 35.873 6.47597 35.574 5.23597C35.5059 4.9438 35.3397 4.68378 35.1031 4.49927C34.8666 4.31476 34.5739 4.21689 34.274 4.22197C33.7557 4.23907 33.2404 4.30604 32.735 4.42197L31.535 4.62197C31.205 4.67697 31.098 4.75597 30.501 5.19997L29.621 5.84997C29.158 5.67697 28.267 5.30997 26.966 4.74497C30.6831 2.90136 34.7812 1.95636 38.9303 1.98606C43.0794 2.01577 47.1636 3.01934 50.854 4.91597V7.02997C50.854 7.14062 50.8726 7.25049 50.909 7.35497C51.0296 7.6669 51.1719 7.96998 51.335 8.26197C51.544 8.6152 51.7073 8.99356 51.821 9.38797C51.398 10.5205 51.2453 11.7361 51.375 12.938C51.6425 13.7455 51.8173 14.5809 51.896 15.428C51.923 15.9686 52.1219 16.4864 52.4636 16.9062C52.8054 17.326 53.2721 17.6258 53.796 17.762C53.9149 17.8016 54.0396 17.8216 54.165 17.821C55.1541 17.6542 56.0647 17.1772 56.765 16.459C57.8019 15.639 58.6332 14.5885 59.193 13.391C59.362 13.0518 59.5777 12.7381 59.834 12.459C59.9806 12.659 60.1246 12.8543 60.266 13.045C60.3397 13.154 60.4346 13.2472 60.545 13.319C60.6553 13.3907 60.779 13.4397 60.9086 13.4628C61.0382 13.486 61.1711 13.483 61.2995 13.4539C61.4279 13.4248 61.5492 13.3703 61.6562 13.2935C61.7631 13.2168 61.8536 13.1194 61.9223 13.007C61.991 12.8947 62.0364 12.7698 62.056 12.6396C62.0756 12.5094 62.0688 12.3766 62.0362 12.249C62.0035 12.1215 61.9457 12.0018 61.866 11.897C58.9372 7.80977 54.9786 4.57071 50.3926 2.50895C45.8065 0.447194 40.7563 -0.363782 35.7553 0.158435C30.7543 0.680652 25.9806 2.51745 21.9194 5.48217C17.8582 8.4469 14.6542 12.4339 12.633 17.038C11.5844 16.4511 10.4008 16.1482 9.19921 16.1593C7.99764 16.1704 6.8198 16.4951 5.78227 17.1013C4.74473 17.7074 3.88348 18.574 3.28376 19.6153C2.68404 20.6565 2.36664 21.8364 2.36297 23.038V25.2C2.37112 25.4556 2.47842 25.6981 2.66216 25.8761C2.8459 26.0541 3.09167 26.1536 3.34747 26.1536C3.60328 26.1536 3.84905 26.0541 4.03279 25.8761C4.21653 25.6981 4.32382 25.4556 4.33197 25.2V23.04C4.35041 21.7469 4.87703 20.513 5.79799 19.605C6.71894 18.6971 7.96023 18.1881 9.25347 18.1881C10.5467 18.1881 11.788 18.6971 12.709 19.605C13.6299 20.513 14.1565 21.7469 14.175 23.04V52.175C14.175 52.4325 14.2758 52.6799 14.456 52.864C15.7968 54.2492 16.538 56.1067 16.5193 58.0345C16.5006 59.9622 15.7234 61.805 14.356 63.164C12.9856 64.5094 11.1394 65.2593 9.21898 65.2507C7.29856 65.2421 5.45919 64.4757 4.1009 63.118C2.74261 61.7604 1.97525 59.9214 1.96572 58.001C1.95618 56.0806 2.70524 54.234 4.04997 52.863C4.23012 52.6789 4.331 52.4315 4.33097 52.174V29.418C4.32282 29.1623 4.21553 28.9198 4.03179 28.7418C3.84805 28.5639 3.60228 28.4644 3.34647 28.4644C3.09067 28.4644 2.8449 28.5639 2.66116 28.7418C2.47742 28.9198 2.37012 29.1623 2.36197 29.418V51.784C1.18192 53.1059 0.405726 54.7386 0.125432 56.4883C-0.154862 58.238 0.0725024 60.0315 0.780565 61.6559C1.48863 63.2803 2.64768 64.6676 4.12029 65.6533C5.5929 66.6389 7.31729 67.1816 9.08897 67.217H9.25397C11.6808 67.2238 14.0116 66.2696 15.737 64.563C17.4235 62.8874 18.405 60.6301 18.4803 58.254C18.5556 55.8779 17.719 53.5629 16.142 51.784V45.854C19.1392 49.7366 23.0793 52.7886 27.588 54.72C27.8289 54.8151 28.0972 54.814 28.3374 54.7171C28.5777 54.6201 28.7715 54.4347 28.879 54.199C28.9809 53.9587 28.9833 53.6877 28.8856 53.4457C28.7879 53.2036 28.5982 53.0102 28.358 52.908H28.36ZM58.58 10.928C58.0727 11.4281 57.6606 12.0163 57.364 12.664C56.6506 13.9991 55.5599 15.0947 54.228 15.814C54.1101 15.7748 54.0089 15.6968 53.941 15.5927C53.8731 15.4887 53.8424 15.3647 53.854 15.241C53.7626 14.2599 53.5614 13.2921 53.254 12.356C53.2812 11.5455 53.432 10.744 53.701 9.97897C53.7779 9.52092 53.7627 9.05212 53.6562 8.60002C53.5497 8.14792 53.3542 7.72159 53.081 7.34597L52.825 6.83797V6.04597C54.9673 7.39115 56.9066 9.03542 58.584 10.929L58.58 10.928ZM39.83 37.728C40.0901 38.1117 40.3239 38.5127 40.53 38.928C40.6253 39.2321 40.8252 39.4926 41.0943 39.6634C41.3634 39.8341 41.6842 39.9042 42 39.861L43.875 39.555L44.675 40.119L45.275 40.539L45.352 42.659L44.785 43.605L44.355 44.317L43.74 44.589C42.814 44.996 42.39 45.182 42.24 45.889C42.204 46.063 42.168 46.259 42.14 46.469C42 47.239 41.74 48.669 41.254 48.939C40.194 49.5553 39.3361 50.4666 38.785 51.562C38.6153 51.848 38.3779 52.088 38.0937 52.2606C37.8094 52.4333 37.487 52.5333 37.155 52.552C37.0674 52.1277 37.0156 51.6969 37 51.264V51.239C37.0466 51.0811 37.099 50.925 37.157 50.771C37.3392 50.3886 37.4233 49.967 37.402 49.544L36.6 44.5C36.58 44.3726 36.5413 44.2489 36.485 44.133C37.885 42.483 38.271 39.24 37.34 36.909C38.2137 37.0208 39.058 37.2981 39.828 37.726L39.83 37.728ZM35.895 39.6C35.9678 40.2933 35.8793 40.9941 35.6364 41.6475C35.3936 42.301 35.0029 42.8895 34.495 43.367C34.4505 43.3952 34.4084 43.427 34.369 43.462C30.802 45.342 27.029 43.719 27.369 39.362C27.511 37.002 29.569 33.989 31.626 31.662C33.76 34.044 35.896 37.262 35.896 39.61L35.895 39.6ZM24.805 5.95197L27.845 7.26697C29.445 7.93097 29.875 8.10897 30.397 7.72497L31.672 6.78497L32.002 6.54497L33.088 6.35297L33.816 6.22597L33.956 6.70597L34.113 7.25097L32.066 8.87897L30.374 10.251C30.1951 10.3839 30.0519 10.559 29.9571 10.7607C29.8624 10.9624 29.819 11.1844 29.831 11.407V11.421L29.875 12.397C29.918 13.377 29.923 13.481 30.089 13.774L30.865 15.186C31.645 16.614 31.807 16.911 32.53 17.012L33.486 17.15C34.686 17.328 35.292 17.417 35.801 16.67L36.946 14.983L37.699 13.883L38.126 13.598L38.399 13.416L38.833 13.621L39.28 13.834L40.34 16.364C40.335 16.441 40.322 16.551 40.307 16.664L39.754 16.84C39.106 17.04 38.127 17.348 36.604 17.893C36.058 18.093 35.927 18.543 35.688 19.393C35.488 20.11 35.93 20.746 36.4 21.418L36.675 21.818L34.658 22.894C34.4189 23.0529 34.2177 23.2623 34.0684 23.5075C33.9191 23.7527 33.8254 24.0276 33.794 24.313L33.734 24.553L33.354 24.779C32.697 25.179 32.499 25.285 32.314 25.679L32.101 26.142L32.008 26.342L29.721 26.255C28.948 26.209 27.481 27.167 27.809 28.27C28.349 30.532 28.455 30.83 28.662 31.03L29.104 31.59C28.892 31.855 28.674 32.136 28.456 32.43C28.2436 32.2982 28.0092 32.2057 27.764 32.157L26.586 31.957C26.3289 31.9163 26.0725 31.8713 25.817 31.822C23.847 28.129 23.844 28.122 23.67 27.982L20.75 25.615L20.13 25.115L20.063 24.87L19.563 22.97L20.049 20.236L20.709 18.356C20.896 17.823 20.683 17.256 20.257 16.231C20.177 16.039 20.057 15.757 20.023 15.638L19.923 14.208C19.829 12.76 19.809 12.441 19.423 12.086L19.023 11.546L18.717 11.128C20.4831 9.10673 22.5419 7.36137 24.825 5.94997L24.805 5.95197ZM52.217 19.782C52.02 19.7823 51.8252 19.823 51.6446 19.9016C51.464 19.9802 51.3014 20.095 51.167 20.239C49.609 21.912 45.984 26.209 45.984 29.959C45.984 34.125 48.256 36.515 52.218 36.515C56.18 36.515 58.452 34.115 58.452 29.959C58.452 26.207 54.827 21.911 53.269 20.239C53.1343 20.0948 52.9714 19.9798 52.7904 19.9012C52.6095 19.8226 52.4143 19.782 52.217 19.782ZM52.217 34.546C49.347 34.546 47.952 33.046 47.952 29.96C47.952 27.61 50.088 24.394 52.217 22.01C58.373 28.652 57.425 34.575 52.217 34.546ZM9.25197 20.1C8.46918 20.1018 7.719 20.4137 7.16558 20.9673C6.61215 21.5209 6.30056 22.2712 6.29897 23.054V53.394L5.45497 54.254C4.94843 54.768 4.55265 55.3805 4.29207 56.0535C4.0315 56.7265 3.91167 57.4458 3.93997 58.167C4.06997 60.967 6.34397 63.212 9.15597 63.291C11.309 63.321 13.268 62.051 14.12 60.071C14.5372 59.104 14.6581 58.0349 14.4672 56.9992C14.2764 55.9635 13.7825 55.0077 13.048 54.253L12.204 53.393V23.04C12.2013 22.2581 11.8894 21.5089 11.3363 20.9562C10.7832 20.4035 10.0339 20.0921 9.25197 20.09V20.1ZM9.25197 22.07C9.79497 22.071 10.235 22.512 10.236 23.055V27.661H8.26797V23.061C8.26897 22.518 8.70797 22.077 9.25197 22.076V22.07ZM12.6 57.966C12.5994 58.8536 12.2467 59.7047 11.6191 60.3324C10.9916 60.9602 10.1406 61.3132 9.25297 61.314H9.19297C8.3398 61.2904 7.52714 60.9449 6.91818 60.3469C6.30922 59.7488 5.94904 58.9426 5.90997 58.09C5.89205 57.6354 5.96745 57.182 6.13153 56.7577C6.2956 56.3334 6.54488 55.9472 6.86397 55.623L7.98897 54.473C8.16897 54.289 8.26897 54.043 8.26897 53.773V29.603H10.239V53.78C10.239 54.0376 10.3394 54.2852 10.519 54.47L11.644 55.62C12.2585 56.2447 12.602 57.0866 12.6 57.963V57.966Z" fill="#11A21B"/>
</g>
<defs>
<clipPath id="clip0_0_2860">
<rect width="67.219" height="67.217" fill="white"/>
</clipPath>
</defs>
</svg>
