<svg width="40" height="40" viewBox="0 0 40 40" fill="none" xmlns="http://www.w3.org/2000/svg">
<g clip-path="url(#clip0_0_3288)">
<path d="M29.1804 3.3211C20.8396 -3.63101 7.74601 0.869377 5.86796 11.8205C4.97343 17.0368 6.90632 22.2041 10.9911 25.4998C12.571 26.7747 13.4772 28.7318 13.4772 30.8695V33.4782C13.4772 35.6359 15.2326 37.3913 17.3903 37.3913H18.6947V38.6957C18.6947 39.4161 19.2787 40.0001 19.9991 40.0001C20.7194 40.0001 21.3034 39.4161 21.3034 38.6957V37.3913H22.6078C24.7655 37.3913 26.5209 35.6359 26.5209 33.4782V30.8695V30.8691V30.8688C26.5209 28.7361 27.434 26.7736 29.026 25.4845C32.4076 22.7466 34.347 18.6873 34.347 14.3475C34.347 10.0769 32.4639 6.05789 29.1804 3.3211ZM23.9122 33.4781C23.9122 34.1973 23.327 34.7825 22.6078 34.7825H17.3903C16.6711 34.7825 16.0859 34.1973 16.0859 33.4781V32.1738H23.9122V33.4781ZM18.6947 18.2605H17.3903C15.2327 18.2605 13.4772 16.5051 13.4772 14.3473V13.043H14.7816C16.9392 13.043 18.6947 14.7984 18.6947 16.9561V18.2605ZM27.3846 23.457C25.5104 24.9745 24.315 27.1518 23.9973 29.5651H21.3034V20.8692H22.6078C26.204 20.8692 29.1297 17.9435 29.1297 14.3473V11.7386C29.1297 11.0182 28.5457 10.4342 27.8253 10.4342H25.2166C23.0854 10.4342 21.1898 11.4619 19.9991 13.0475C18.8082 11.4619 16.9127 10.4342 14.7816 10.4342H12.1728C11.4524 10.4342 10.8684 11.0182 10.8684 11.7386V14.3473C10.8684 17.9435 13.7941 20.8692 17.3903 20.8692H18.6947V29.565H16.0015C15.6855 27.1485 14.4955 24.9754 12.6291 23.4695C9.2671 20.7569 7.70078 16.5669 8.43906 12.2615C9.97601 3.29938 20.6985 -0.352341 27.5102 5.32508C30.1973 7.56477 31.7384 10.8534 31.7384 14.3474C31.7384 17.8964 30.1515 21.2167 27.3846 23.457ZM21.3034 18.2605V16.9561C21.3034 14.7984 23.0588 13.043 25.2166 13.043H26.5209V14.3473C26.5209 16.505 24.7655 18.2605 22.6078 18.2605H21.3034Z" fill="white"/>
</g>
<defs>
<clipPath id="clip0_0_3288">
<rect width="40" height="40" fill="white"/>
</clipPath>
</defs>
</svg>
