<svg width="30" height="40" viewBox="0 0 30 40" fill="none" xmlns="http://www.w3.org/2000/svg">
<path d="M26.1947 13.6835C26.5433 13.1806 26.8618 12.6591 27.1833 12.1363C27.479 11.6477 27.769 11.1562 28.029 10.6448C28.5376 9.64472 28.9762 8.58467 29.2748 7.50034C29.3562 7.20175 29.4534 6.88602 29.442 6.57315C29.4248 6.16313 29.1962 5.66597 28.8019 5.47596C28.4919 5.32738 28.2848 5.28881 27.9448 5.24452C27.7847 5.22452 27.6247 5.21595 27.4647 5.21595C27.0161 5.21595 26.569 5.28167 26.1261 5.35024C25.0875 5.50882 24.0732 5.78026 23.0917 6.15171C22.5359 6.36172 22.0331 6.64601 21.5173 6.93317C21.0316 7.20175 20.543 7.46319 20.0815 7.77606C19.5787 8.11608 19.1029 8.49038 18.6415 8.88326C18.4915 8.05036 18.31 7.22318 18.0486 6.416C17.6914 5.31024 17.3171 4.20733 16.9543 3.10443C16.7757 2.56583 16.5914 2.03009 16.3842 1.5015C16.3342 1.37006 16.2842 1.23863 16.2328 1.10719C16.1828 0.98433 16.1299 0.847181 16.0771 0.73289C16.0128 0.598598 15.9456 0.53431 15.8399 0.398589C15.6371 0.140006 15.257 0 14.9299 0C14.4356 0 14.0556 0.287156 13.7855 0.675745C13.6413 0.885754 13.5227 1.11434 13.3927 1.33149C13.2498 1.57721 13.0998 1.82008 12.9512 2.06009C12.6669 2.51868 12.4312 2.99871 12.1855 3.47873C11.9283 3.98446 11.674 4.48877 11.4283 5.00023C11.1497 5.58882 10.9368 6.19314 10.7526 6.81459C10.5854 7.36462 10.4454 7.92036 10.3425 8.48752C10.2997 8.71468 10.2797 8.94755 10.2582 9.17898C10.1711 9.08327 10.0925 8.9804 10.0039 8.88611C9.57107 8.42467 9.07676 8.03179 8.54102 7.69606C8.07529 7.4089 7.5667 7.17175 7.07524 6.93031C5.96662 6.39029 4.778 6.06313 3.56794 5.83169C3.03221 5.72883 2.4879 5.66168 1.94644 5.57739C1.75501 5.54739 1.56214 5.51739 1.36927 5.51739C1.24641 5.51739 1.12355 5.52882 1.00211 5.56168C0.656384 5.65025 0.312083 5.87884 0.156362 6.21171C-0.0307896 6.60315 -0.0307892 6.92888 0.0563576 7.34176C0.0777871 7.45176 0.122074 7.5632 0.164934 7.66892C0.480662 8.5061 0.799248 9.34756 1.14784 10.1733C1.31499 10.5705 1.49357 10.9605 1.69215 11.3405C1.88787 11.7091 2.12788 12.0463 2.36789 12.3877C2.91791 13.1692 3.4708 13.9535 4.11797 14.6578C4.58656 15.1693 5.12801 15.5936 5.68661 16.0064C5.75804 16.0593 5.8309 16.1122 5.90233 16.1664C4.70657 16.1936 3.51366 16.2479 2.32646 16.4007C1.97787 16.445 1.695 16.5093 1.43785 16.7693C1.41642 16.7908 1.40785 16.8222 1.38785 16.845C0.876394 17.0293 0.51495 17.5136 0.497806 18.0822C0.459233 19.3223 0.403516 20.5724 0.450661 21.8124C0.467805 22.2139 0.50352 22.6167 0.523521 23.021C0.546379 23.5182 0.537808 24.0154 0.567809 24.5125C0.583524 24.7825 0.687814 25.024 0.832106 25.2311C0.850679 25.2769 0.887823 25.3111 0.91211 25.354C0.926397 25.3697 0.932111 25.3911 0.946397 25.4054C1.16069 25.7412 1.51642 25.984 1.93216 25.974C2.2236 25.9655 2.51647 25.954 2.80791 25.9426C2.87648 27.2227 2.9822 28.4927 3.19078 29.7585C3.35651 30.7485 3.60223 31.72 3.81796 32.6972C3.69366 32.6958 3.56794 32.6929 3.44365 32.6915C3.05078 32.69 2.71362 32.9001 2.49361 33.1986C2.41789 33.2058 2.34217 33.1944 2.26789 33.2144C1.9493 33.3015 1.67643 33.5129 1.50785 33.7972C1.3207 34.1158 1.32356 34.423 1.37927 34.7744C1.48214 35.4159 1.56642 36.0616 1.68929 36.6988C1.80929 37.3388 2.10788 37.8888 2.50504 38.3932C2.82648 38.8003 3.26793 39.1775 3.71366 39.4289C3.98225 39.5804 4.2694 39.6975 4.55656 39.7975C4.91658 39.9204 5.31088 39.9375 5.68804 39.9618C6.82666 40.0461 7.981 39.9675 9.12248 39.9475C10.2725 39.9275 11.4226 39.9175 12.5741 39.9089C13.7384 39.9004 14.9056 39.8975 16.0728 39.9061C16.6028 39.9089 17.1343 39.9089 17.6643 39.8861C18.2 39.8661 18.7315 39.8246 19.2644 39.7946C19.8315 39.7618 20.3958 39.7189 20.9616 39.6989C21.2102 39.6904 21.4616 39.6932 21.7102 39.6932C22.0002 39.6961 22.2945 39.6989 22.5874 39.6818C23.1517 39.6518 23.7317 39.6032 24.2574 39.3918C24.8375 39.1575 25.3832 38.8532 25.8489 38.426C26.1204 38.1774 26.3433 37.8531 26.5418 37.5403C26.7404 37.236 26.9019 36.8845 27.0076 36.5374C27.2304 35.803 27.2204 35.013 27.2362 34.253C27.2404 34.0587 27.179 33.8815 27.0904 33.7187C27.0919 33.6944 27.1047 33.6758 27.1047 33.6515C27.1047 32.9972 26.5533 32.4143 25.8889 32.4143C25.8818 32.4143 25.8732 32.4143 25.8661 32.4143C25.4732 32.4229 25.0789 32.4286 24.686 32.4357C24.8103 31.9786 24.9489 31.5243 25.0603 31.0643C25.1918 30.5399 25.2861 30.0056 25.3789 29.4728C25.5818 28.287 25.7832 27.1026 25.9947 25.9169C26.2947 25.954 26.5961 25.984 26.8961 25.9655C27.1204 25.9512 27.3204 25.874 27.5047 25.7712C28.0362 25.6269 28.4576 25.1568 28.4448 24.584C28.4062 22.5567 28.4776 20.5295 28.4448 18.5023C28.4448 18.4823 28.4333 18.4651 28.4319 18.4437C28.5719 18.2394 28.6691 18.0065 28.6691 17.7565C28.6691 17.4294 28.5376 17.1122 28.3062 16.8793C28.0576 16.6307 27.7705 16.545 27.429 16.5165C26.829 16.4636 26.229 16.3907 25.6247 16.3736C25.0832 16.3565 24.5446 16.3436 24.0031 16.3293C23.9031 16.3264 23.8046 16.3279 23.7046 16.325C24.1503 15.9736 24.5803 15.615 24.9818 15.2064C25.4375 14.7449 25.8204 14.2178 26.1947 13.6835ZM12.5569 9.04898C12.7226 8.17322 12.9455 7.29461 13.2612 6.46029C13.6284 5.68311 14.057 4.94022 14.4413 4.17162C14.5313 3.99304 14.6313 3.8216 14.7342 3.65159C15.0042 4.43449 15.2513 5.22595 15.5113 6.0117C15.9185 7.24747 16.2871 8.52324 16.4757 9.81473C16.5928 10.8733 16.6157 11.9605 16.4971 13.0192C16.3385 14.1035 16.1085 15.1721 15.6885 16.185C15.6871 16.1893 15.6885 16.195 15.6871 16.1993C15.017 16.1879 14.347 16.175 13.677 16.1593C13.4484 15.5093 13.2298 14.8564 13.0227 14.2021C12.8469 13.6435 12.6855 13.0906 12.5855 12.5148C12.4598 11.3677 12.4312 10.2005 12.5569 9.04898ZM5.19516 12.2448C4.79514 11.712 4.39941 11.1719 4.02939 10.6148C3.85367 10.3462 3.71081 10.0505 3.56794 9.7633C3.44222 9.50757 3.32222 9.24899 3.2065 8.98755C3.08507 8.68753 2.96649 8.38609 2.84791 8.08465C3.78653 8.25609 4.71228 8.47895 5.61804 8.81183C6.38807 9.14755 7.15239 9.52471 7.83528 10.0147C8.60674 10.6591 9.25106 11.4734 9.87394 12.262C10.0282 12.4677 10.1754 12.6763 10.3025 12.902C10.334 13.1549 10.3697 13.4092 10.4254 13.6578C10.614 14.4921 10.8611 15.3121 11.1254 16.1279C10.994 16.1279 10.8626 16.1236 10.7326 16.1236C10.4597 16.1236 10.1854 16.1279 9.91252 16.1293C9.84394 15.7936 9.65536 15.485 9.33678 15.3307C8.92104 15.1293 8.50245 14.935 8.10243 14.7021C7.80671 14.5321 7.52669 14.3364 7.24811 14.1378C6.95524 13.9306 6.66094 13.7263 6.37521 13.512C5.93091 13.1363 5.55375 12.6977 5.19516 12.2448ZM24.8689 34.9059C24.8618 35.133 24.866 35.3602 24.8446 35.5859C24.816 35.7316 24.7818 35.8745 24.7332 36.0159C24.6432 36.2031 24.5417 36.3831 24.426 36.5545C24.3632 36.6274 24.2989 36.6959 24.2289 36.7602C24.0303 36.8902 23.816 37.0002 23.6003 37.1002C23.3903 37.176 23.176 37.2302 22.956 37.2717C22.4874 37.3203 22.0145 37.3203 21.5445 37.3245C21.0087 37.3331 20.4744 37.3603 19.9387 37.4031C18.8358 37.4917 17.7329 37.5731 16.6271 37.6188C15.4713 37.6631 14.3099 37.6331 13.1541 37.6274C12.0483 37.6245 10.9426 37.6303 9.8368 37.6446C8.45959 37.6603 7.0681 37.7031 5.69661 37.5445C5.55232 37.5174 5.41517 37.4845 5.27802 37.4374C5.11659 37.356 4.96229 37.266 4.81371 37.1645C4.66371 37.0345 4.52227 36.8974 4.39084 36.7474C4.33226 36.6559 4.27655 36.5616 4.22655 36.4645C4.1494 36.2373 4.10225 36.0059 4.06511 35.7688C4.03511 35.5387 4.00082 35.3087 3.96939 35.0787C6.23949 35.0587 8.50817 34.9744 10.7811 34.9616C11.1269 34.9616 11.474 34.9616 11.8169 34.9616C12.6826 34.9644 13.5484 34.9673 14.4141 34.9316C15.5485 34.8873 16.6814 34.843 17.8157 34.8116C19.1672 34.7759 20.5301 34.7673 21.8845 34.8173C22.5274 34.8401 23.1717 34.8616 23.816 34.8816C24.1646 34.8887 24.5175 34.9001 24.8689 34.9059ZM24.9389 18.8551C25.2503 18.8608 25.5632 18.8951 25.8761 18.9094C25.9032 19.838 25.939 20.7652 25.949 21.6938C25.9532 22.2696 25.9504 22.8467 25.9461 23.4225C25.0975 23.3896 24.2474 23.3811 23.3946 23.3853C22.7302 23.3882 22.0631 23.3568 21.3959 23.3568C21.1687 23.3553 20.9416 23.3553 20.7144 23.3553C20.1658 23.3553 19.6172 23.3568 19.0672 23.3596C18.43 23.3653 17.8972 23.8896 17.8972 24.5297C17.8972 25.1611 18.43 25.7054 19.0672 25.6969C19.8301 25.6883 20.5887 25.674 21.3516 25.6683C22.0359 25.6626 22.7145 25.7183 23.396 25.7626C23.4474 25.7654 23.5003 25.7669 23.5517 25.7697C23.3931 26.7741 23.246 27.7798 23.0574 28.7784C22.9602 29.3027 22.8502 29.8256 22.7359 30.3471C22.6217 30.8585 22.4702 31.36 22.3616 31.8686C22.3159 32.0786 22.3359 32.2829 22.3845 32.4786C21.8873 32.4872 21.3902 32.4972 20.893 32.5057C20.9216 32.4429 20.9673 32.39 20.983 32.32C21.1173 31.7086 21.2816 31.1057 21.4159 30.4971C21.6088 29.6042 21.7459 28.7099 21.8688 27.8055C21.9073 27.5127 21.7173 27.1641 21.523 26.9684C21.3002 26.7455 20.9987 26.6198 20.683 26.6198C20.3701 26.6198 20.0687 26.7455 19.8458 26.9684C19.603 27.2112 19.5387 27.4769 19.5001 27.8055C19.4629 28.1041 19.4287 28.4013 19.3915 28.6999C19.2272 29.7113 19.0501 30.7257 18.7315 31.6986C18.6372 31.9914 18.6915 32.2957 18.8329 32.5529C16.6914 32.6086 14.5513 32.7358 12.4041 32.7286C10.9997 32.7229 9.59536 32.7172 8.19101 32.7372C7.49812 32.7472 6.80666 32.7372 6.1152 32.7272C6.11377 32.64 6.12377 32.5529 6.10377 32.4657C5.95805 31.8543 5.8409 31.2371 5.70233 30.6228C5.54946 29.9642 5.41946 29.2856 5.32088 28.6127C5.20516 27.6998 5.18373 26.7741 5.14801 25.8569C6.12949 25.8397 7.10953 25.7683 8.09386 25.7926C8.60531 25.804 9.11534 25.7954 9.62679 25.804C10.0711 25.8097 10.5197 25.8412 10.964 25.854C11.9326 25.8869 12.8984 25.8069 13.8684 25.7954C14.5327 25.7897 15.0885 25.2454 15.0885 24.5754C15.0885 23.9439 14.5556 23.3525 13.9084 23.3525C13.8956 23.3525 13.8813 23.3525 13.8684 23.3525C13.4027 23.3725 12.9327 23.4139 12.4669 23.4396C11.9812 23.4653 11.4983 23.4596 11.0097 23.4596C10.0525 23.4625 9.09391 23.4568 8.13672 23.4482C7.68384 23.4453 7.22954 23.4868 6.77666 23.5125C6.24378 23.5425 5.70947 23.5596 5.17659 23.5568C4.4837 23.5511 3.79081 23.5639 3.09792 23.5725C3.09935 23.3882 3.09649 23.2053 3.09364 23.0225C3.09078 22.6182 3.05221 22.2181 3.04078 21.8138C3.0122 20.8209 3.06935 19.8209 3.11792 18.8251C4.18797 18.6966 5.25516 18.5937 6.33235 18.5437C7.59098 18.4823 8.85675 18.4851 10.1154 18.4794C12.5755 18.468 15.0356 18.5494 17.4957 18.5851C18.3172 18.5966 19.1372 18.6551 19.9558 18.7051C20.3801 18.7337 20.8073 18.7723 21.2373 18.778C21.4545 18.7837 21.673 18.7837 21.8902 18.7808C22.1073 18.7808 22.3259 18.7808 22.5431 18.7837C23.3417 18.7937 24.1403 18.838 24.9389 18.8551ZM22.4445 14.4564C21.9759 14.7992 21.4987 15.1264 21.0073 15.4378C20.7701 15.5864 20.5244 15.7336 20.2673 15.845C19.9787 15.9736 19.693 16.1022 19.4187 16.2579C19.2015 16.2493 18.9844 16.2464 18.7686 16.2393C18.5415 16.2322 18.3157 16.2336 18.0915 16.2336C18.38 15.3464 18.6115 14.4506 18.7515 13.5206C18.8372 12.9434 18.8729 12.3734 18.8801 11.7934C19.5401 11.1419 20.2044 10.5019 20.923 9.91045C21.713 9.33042 22.5988 8.86611 23.4903 8.46038C24.0489 8.24609 24.6103 8.07322 25.1989 7.95321C25.5204 7.88893 25.8361 7.80321 26.1561 7.74321C26.3961 7.69892 26.6361 7.6632 26.8761 7.62749C26.7633 7.97179 26.6304 8.31037 26.4961 8.64325C26.1447 9.42757 25.7318 10.1747 25.2832 10.9091C24.8246 11.6577 24.3475 12.3906 23.8274 13.0963C23.4117 13.5935 22.9431 14.0435 22.4445 14.4564Z" fill="white"/>
</svg>
