<svg width="41" height="40" viewBox="0 0 41 40" fill="none" xmlns="http://www.w3.org/2000/svg">
<path d="M4.58538 24.3165C3.50737 26.2254 1.53719 29.7088 5.02412 32.0369C6.12001 32.7611 7.34714 33.2618 8.63558 33.5102C9.61716 33.6558 9.66569 35.1659 8.51264 35.1304C7.2836 35.0688 1.29738 34.5129 0.33624 30.023C-0.160616 27.4004 0.40138 25.0509 1.94559 22.5012L4.1725 18.5643L0 16.1912L11.1135 9.58516V22.3578L6.94353 20.1408L4.58538 24.3165ZM18.1384 3.30741C21.8265 1.3021 23.9596 4.68047 25.1346 6.52292L27.708 10.5562L23.6658 13.136L35.0622 19.1199L34.4331 6.26427L30.3973 8.83988L27.9702 5.04449C26.304 2.66271 25.0835 0.903599 22.1107 0.111057C16.8835 -0.887444 13.6702 5.17668 13.7031 5.13709C13.1798 6.05385 14.3916 6.86108 15.1432 5.80765C15.9677 4.78552 16.9857 3.93614 18.1384 3.30741ZM39.1941 23.0635C38.9141 22.4577 37.442 22.6123 37.8562 23.9161C38.2751 25.1588 38.4453 26.4715 38.3575 27.7798C38.0605 31.9692 34.0531 31.9373 31.869 31.9373H27.0793V27.1475L15.9032 33.5339L27.041 40L27.0556 35.1304H31.869C34.7128 35.1793 36.9777 34.5688 38.894 32.8537C42.7258 29.4658 39.1941 23.0635 39.1941 23.0635Z" fill="white"/>
</svg>
