<svg width="43" height="43" viewBox="0 0 43 43" fill="none" xmlns="http://www.w3.org/2000/svg">
<path d="M24.9146 5.40244C24.9146 7.5577 23.1675 9.30488 21.0122 9.30488C18.8569 9.30488 17.1097 7.5577 17.1097 5.40244C17.1097 3.24718 18.8569 1.5 21.0122 1.5C23.1675 1.5 24.9146 3.24718 24.9146 5.40244Z" stroke="white" stroke-width="3"/>
<path d="M21.0122 26.8652L22.2828 26.1392C22.0224 25.6834 21.5373 25.4018 21.0122 25.4018C20.4871 25.4018 20.0021 25.6834 19.7416 26.1392L21.0122 26.8652ZM17.7837 15.7869C18.5874 15.8718 19.3078 15.2891 19.3927 14.4853C19.4776 13.6816 18.8949 12.9612 18.0912 12.8763L17.7837 15.7869ZM23.9332 12.8763C23.1295 12.9612 22.5468 13.6816 22.6317 14.4853C22.7166 15.2891 23.437 15.8718 24.2407 15.7869L23.9332 12.8763ZM8.93537 20.1546L13.1799 21.5694L14.1054 18.7928L9.86093 17.378L8.93537 20.1546ZM13.8255 22.9376L11.3927 29.2627L14.1245 30.3134L16.5572 23.9881L13.8255 22.9376ZM32.1634 17.378L27.9189 18.7928L28.8446 21.5694L33.0891 20.1546L32.1634 17.378ZM25.4672 23.9881L27.9 30.3134L30.6317 29.2627L28.1989 22.9376L25.4672 23.9881ZM19.2081 32.9721L22.2828 27.5913L19.7416 26.1392L16.6668 31.52L19.2081 32.9721ZM30.7476 11.5752L27.045 12.3686L27.6583 15.2304L31.3609 14.437L30.7476 11.5752ZM14.9794 12.3686L11.2768 11.5752L10.6635 14.437L14.3661 15.2304L14.9794 12.3686ZM19.7416 27.5913L22.8163 32.9721L25.3576 31.52L22.2828 26.1392L19.7416 27.5913ZM27.045 12.3686C26.8372 12.4131 26.7402 12.4339 26.6444 12.4537L27.2372 15.3199C27.3455 15.2975 27.4544 15.2742 27.6583 15.2304L27.045 12.3686ZM14.3661 15.2304C14.5701 15.2742 14.6789 15.2975 14.7872 15.3199L15.3801 12.4537C15.2843 12.4339 15.1872 12.4131 14.9794 12.3686L14.3661 15.2304ZM15.4416 35.1579C16.9983 35.1579 18.4356 34.3237 19.2081 32.9721L16.6668 31.52C16.4156 31.9598 15.948 32.2311 15.4416 32.2311V35.1579ZM27.9 30.3134C28.2555 31.2377 27.5732 32.2311 26.5827 32.2311V35.1579C29.6272 35.1579 31.7246 32.104 30.6317 29.2627L27.9 30.3134ZM27.9189 18.7928C27.486 18.9372 27.0251 19.0804 26.6508 19.3113L28.1882 21.802C28.1708 21.8125 28.1855 21.7998 28.2985 21.7571C28.4171 21.7122 28.5771 21.6586 28.8446 21.5694L27.9189 18.7928ZM28.1989 22.9376C28.0977 22.6744 28.0374 22.5167 27.9966 22.3965C27.9578 22.2824 27.9584 22.2631 27.9611 22.2832L25.0612 22.6797C25.1209 23.1154 25.3033 23.5622 25.4672 23.9881L28.1989 22.9376ZM26.6508 19.3113C25.5014 20.0209 24.8784 21.3413 25.0612 22.6797L27.9611 22.2832C27.9349 22.0919 28.0239 21.9033 28.1882 21.802L26.6508 19.3113ZM33.2073 15.9297C33.2073 16.5868 32.7868 17.1702 32.1634 17.378L33.0891 20.1546C34.9076 19.5485 36.1342 17.8467 36.1342 15.9297H33.2073ZM11.3927 29.2627C10.2999 32.104 12.3973 35.1579 15.4416 35.1579V32.2311C14.4513 32.2311 13.769 31.2377 14.1245 30.3134L11.3927 29.2627ZM13.1799 21.5694C13.4474 21.6586 13.6074 21.7122 13.726 21.7571C13.839 21.7998 13.8535 21.8125 13.8362 21.802L15.3736 19.3113C14.9994 19.0804 14.5384 18.9372 14.1054 18.7928L13.1799 21.5694ZM16.5572 23.9881C16.7211 23.5622 16.9036 23.1154 16.9631 22.6797L14.0633 22.2832C14.066 22.2631 14.0666 22.2822 14.0278 22.3965C13.987 22.5167 13.9267 22.6744 13.8255 22.9376L16.5572 23.9881ZM13.8362 21.802C14.0004 21.9033 14.0894 22.0919 14.0633 22.2832L16.9631 22.6797C17.1461 21.3413 16.523 20.0209 15.3736 19.3113L13.8362 21.802ZM5.89026 15.9297C5.89026 17.8467 7.11685 19.5485 8.93537 20.1546L9.86093 17.378C9.23756 17.1702 8.81709 16.5868 8.81709 15.9297H5.89026ZM8.81709 15.9297C8.81709 14.9578 9.71322 14.2334 10.6635 14.437L11.2768 11.5752C8.50448 10.9811 5.89026 13.0945 5.89026 15.9297H8.81709ZM22.8163 32.9721C23.5888 34.3237 25.0261 35.1579 26.5827 35.1579V32.2311C26.0764 32.2311 25.6089 31.9598 25.3576 31.52L22.8163 32.9721ZM36.1342 15.9297C36.1342 13.0945 33.5199 10.9811 30.7476 11.5752L31.3609 14.437C32.3111 14.2334 33.2073 14.9578 33.2073 15.9297H36.1342ZM18.0912 12.8763C17.1827 12.7803 16.278 12.6395 15.3801 12.4537L14.7872 15.3199C15.7796 15.5252 16.7797 15.6808 17.7837 15.7869L18.0912 12.8763ZM26.6444 12.4537C25.7465 12.6395 24.8417 12.7803 23.9332 12.8763L24.2407 15.7869C25.2448 15.6808 26.2448 15.5252 27.2372 15.3199L26.6444 12.4537Z" fill="white"/>
<path d="M35.556 26.8658C38.6458 28.4192 40.5244 30.4707 40.5244 32.7195C40.5244 34.1798 39.7322 35.5568 38.3308 36.7681M6.46841 26.8658C3.37873 28.4192 1.5 30.4707 1.5 32.7195C1.5 37.5689 10.2359 41.5 21.0122 41.5C24.5661 41.5 27.8982 41.0725 30.7683 40.3254" stroke="white" stroke-width="3" stroke-linecap="round"/>
</svg>
