<svg width="25" height="43" viewBox="0 0 25 43" fill="none" xmlns="http://www.w3.org/2000/svg">
<path d="M16.0527 28.7761V19.6904H8.77656V28.7761L2.09084 37.119C1.70944 37.6019 1.50147 38.1989 1.50037 38.8142C1.50539 39.5283 1.79258 40.2114 2.29928 40.7145C2.80597 41.2176 3.49107 41.5 4.20513 41.5H20.6242C21.3382 41.5 22.0233 41.2176 22.53 40.7145C23.0367 40.2114 23.3239 39.5283 23.3289 38.8142C23.3278 38.1989 23.1199 37.6019 22.7385 37.119L16.0527 28.7761Z" stroke="white" stroke-width="3" stroke-miterlimit="10"/>
<path d="M5.13843 19.6904H19.6908" stroke="white" stroke-width="3" stroke-miterlimit="10"/>
<path d="M19.6909 1.5H23.329V3.40476C23.329 5.33453 22.5624 7.18526 21.1978 8.54981C19.8333 9.91436 17.9825 10.681 16.0528 10.681H12.4147V8.77619C12.4147 6.84643 13.1813 4.9957 14.5458 3.63115C15.9104 2.2666 17.7611 1.5 19.6909 1.5Z" stroke="white" stroke-width="3" stroke-miterlimit="10"/>
<path d="M1.5004 3.30947H5.13849C6.09402 3.30947 7.04018 3.49767 7.92297 3.86333C8.80576 4.229 9.60788 4.76496 10.2835 5.44061C10.9592 6.11627 11.4952 6.91839 11.8608 7.80118C12.2265 8.68397 12.4147 9.63013 12.4147 10.5857V12.4904H8.77659C7.81462 12.4905 6.86219 12.2998 5.9744 11.9294C5.08661 11.5589 4.28108 11.0162 3.60442 10.3324C2.92776 9.64866 2.39339 8.83752 2.03224 7.94592C1.67109 7.05432 1.49033 6.09995 1.5004 5.13804V3.23328V3.30947Z" stroke="white" stroke-width="3" stroke-miterlimit="10"/>
<path d="M12.4147 19.6905V10.5857" stroke="white" stroke-width="3" stroke-miterlimit="10"/>
</svg>
