<svg width="44" height="40" viewBox="0 0 44 40" fill="none" xmlns="http://www.w3.org/2000/svg">
<path d="M33.339 24.7804C32.6429 22.257 31.1382 20.0316 29.0556 18.4458C26.973 16.8599 24.4277 16.0011 21.81 16.0011C19.1924 16.0011 16.647 16.8599 14.5645 18.4458C12.4819 20.0316 10.9771 22.257 10.281 24.7804L8.6222 30.7937C8.32436 31.8734 8.27993 33.0073 8.49236 34.107C8.70479 35.2067 9.16835 36.2424 9.84689 37.1335C10.5254 38.0246 11.4006 38.7469 12.4042 39.2441C13.4078 39.7413 14.5127 40 15.6327 40H27.9874C29.1074 40 30.2123 39.7413 31.2159 39.2441C32.2194 38.7469 33.0946 38.0246 33.7732 37.1335C34.4517 36.2424 34.9153 35.2067 35.1277 34.107C35.3401 33.0073 35.2957 31.8734 34.9979 30.7937L33.339 24.7804ZM31.4589 35.3708C31.0536 35.9074 30.5288 36.3422 29.9263 36.6408C29.3237 36.9394 28.6599 37.0936 27.9874 37.0911H15.6327C14.9607 37.0911 14.2977 36.9359 13.6956 36.6375C13.0934 36.3392 12.5683 35.9058 12.1611 35.3712C11.754 34.8365 11.4759 34.215 11.3484 33.5552C11.221 32.8954 11.2476 32.2151 11.4263 31.5672L13.0852 25.554C13.612 23.6443 14.7507 21.9603 16.3268 20.7601C17.9028 19.56 19.8291 18.9101 21.81 18.9101C23.791 18.9101 25.7173 19.56 27.2933 20.7601C28.8693 21.9603 30.0081 23.6443 30.5349 25.554L32.1937 31.5672C32.375 32.2148 32.403 32.8957 32.2755 33.5559C32.1479 34.2162 31.8684 34.8377 31.4589 35.3711V35.3708Z" fill="white"/>
<path d="M11.8195 18.0293C12.0726 16.4475 11.737 14.7542 10.8741 13.2601C10.0113 11.766 8.71242 10.6287 7.2164 10.057C5.61429 9.44511 3.98019 9.54257 2.61353 10.3313C-0.103346 11.8999 -0.818312 15.766 1.02006 18.9495C1.88265 20.4436 3.18159 21.5812 4.67761 22.1526C5.34032 22.4109 6.04473 22.5455 6.75597 22.55C7.64205 22.5532 8.51315 22.3214 9.28048 21.8783C10.6463 21.0895 11.5481 19.7225 11.8195 18.0293ZM8.94695 17.5695C8.81696 18.3811 8.4188 19.0167 7.82582 19.359C7.23285 19.7014 6.48343 19.7283 5.71529 19.4351C4.84142 19.1014 4.06855 18.4123 3.53894 17.495C2.5208 15.7315 2.76279 13.6043 4.068 12.8505C4.39611 12.6643 4.76771 12.5684 5.14495 12.5725C5.49882 12.5762 5.84904 12.6445 6.17836 12.774C7.05222 13.1079 7.8251 13.7969 8.35471 14.7142C8.88432 15.6316 9.09458 16.6458 8.94695 17.5695Z" fill="white"/>
<path d="M12.1345 12.0029C13.1674 12.8286 14.3469 13.2585 15.5396 13.2585C15.8969 13.2583 16.2531 13.2199 16.6022 13.1438C19.6678 12.4774 21.5265 9.01283 20.7457 5.42073C20.3793 3.73481 19.4886 2.2557 18.2378 1.25566C16.8983 0.184797 15.3116 -0.220547 13.7701 0.11471C10.7046 0.781042 8.84586 4.24561 9.62665 7.83771C9.99308 9.52372 10.8838 11.0028 12.1345 12.0029ZM14.3879 2.9573C14.5292 2.92682 14.6734 2.91159 14.818 2.91185C15.3587 2.91185 15.9149 3.12339 16.4213 3.52828C17.1519 4.11234 17.6782 5.00402 17.9031 6.03916C18.3358 8.02952 17.4571 9.98152 15.9843 10.3017C15.3152 10.4471 14.593 10.2446 13.9511 9.73126C13.2205 9.1471 12.6942 8.25542 12.4693 7.22037C12.0365 5.22947 12.9152 3.27747 14.3879 2.9573Z" fill="white"/>
<path d="M41.0065 10.3313C39.6403 9.54257 38.0054 9.44511 36.4036 10.057C34.9076 10.6285 33.6086 11.766 32.746 13.2601C31.8834 14.7542 31.5477 16.4479 31.8006 18.0293C32.0717 19.7225 32.9733 21.0895 34.3397 21.8783C35.107 22.3214 35.9781 22.5532 36.8642 22.55C37.5754 22.5455 38.2799 22.4109 38.9426 22.1526C40.4386 21.5812 41.7375 20.4436 42.6001 18.9495C44.4383 15.766 43.7233 11.8999 41.0065 10.3313ZM40.081 17.495C39.5514 18.4123 38.7786 19.1014 37.9047 19.4351C37.1369 19.7285 36.3873 19.7015 35.7943 19.359C35.2014 19.0165 34.8035 18.3811 34.6732 17.5695C34.5254 16.6458 34.7356 15.6319 35.2653 14.715C35.795 13.7982 36.5678 13.1088 37.4416 12.7749C37.7709 12.6452 38.1211 12.5768 38.475 12.573C38.8523 12.5688 39.2239 12.6648 39.552 12.851C40.8572 13.6041 41.0995 15.731 40.081 17.495Z" fill="white"/>
<path d="M27.0177 13.1438C27.3668 13.2199 27.723 13.2583 28.0803 13.2584C29.2729 13.2584 30.4529 12.8285 31.4854 12.0028C32.7361 11.0029 33.6268 9.52369 33.9933 7.83777C34.774 4.24566 32.9153 0.781101 29.8498 0.114768C28.3083 -0.220307 26.7216 0.184765 25.3821 1.25571C24.1313 2.25567 23.2406 3.73487 22.8742 5.4207C22.0934 9.0128 23.9521 12.4774 27.0177 13.1438ZM25.7168 6.03867C25.9417 5.00354 26.468 4.11149 27.1986 3.52779C27.7051 3.1229 28.2612 2.91136 28.8019 2.91136C28.9465 2.9111 29.0907 2.92634 29.232 2.95682C30.7047 3.27698 31.5834 5.22944 31.1508 7.21934C30.9257 8.25448 30.3994 9.14652 29.669 9.73032C29.0271 10.2436 28.3054 10.4461 27.6357 10.3007C26.1628 9.98103 25.2841 8.02876 25.7168 6.03867Z" fill="white"/>
</svg>
