<svg width="60" height="40" viewBox="0 0 60 40" fill="none" xmlns="http://www.w3.org/2000/svg">
<path d="M43.3452 9.63245L43.8255 9.83893C44.0286 9.92629 44.2397 9.96753 44.4476 9.96753C45.0587 9.96753 45.6403 9.61013 45.897 9.01321C46.241 8.21319 45.8713 7.28568 45.0713 6.94177L44.591 6.7352C43.7909 6.39121 42.8635 6.7609 42.5195 7.56092C42.1755 8.36102 42.5452 9.28845 43.3452 9.63245Z" fill="white"/>
<path d="M57.1998 22.2748V13.1947C57.1998 12.3238 56.494 11.6178 55.623 11.6178H28.5999C27.729 11.6178 27.0231 12.3238 27.0231 13.1947C27.0231 14.0656 27.729 14.7716 28.5999 14.7716H47.9627L28.5999 23.096L5.56939 13.1947L28.5999 3.29335L38.9375 7.73766C39.7376 8.08157 40.665 7.71188 41.009 6.91178C41.3528 6.11176 40.9831 5.18425 40.1831 4.84033L29.2227 0.128199C28.8251 -0.0427329 28.3747 -0.0427329 27.9771 0.128199L0.95408 11.746C0.375214 11.9949 0 12.5646 0 13.1947C0 13.8248 0.375214 14.3945 0.95408 14.6434L27.9771 26.261C28.1759 26.3465 28.388 26.3892 28.5999 26.3892C28.8119 26.3892 29.0239 26.3465 29.2227 26.261L44.0957 19.8668L44.096 30.7783C35.4169 38.8081 21.7827 38.8081 13.1039 30.7782L13.104 27.9949C13.104 27.124 12.398 26.4179 11.5271 26.4179C10.6563 26.4179 9.95023 27.124 9.95023 27.9947L9.95015 31.4538C9.95015 31.8774 10.1207 32.2833 10.4233 32.5799C15.3054 37.3648 21.7606 40 28.5998 40C35.4392 40 41.8944 37.3648 46.7765 32.5801C47.0791 32.2835 47.2497 31.8776 47.2497 31.4538L47.2494 18.511L54.046 15.5889V22.2747C52.7615 22.8717 51.8682 24.1738 51.8682 25.6811C51.8682 27.228 53.0227 31.2978 55.6229 31.2978C58.2231 31.2978 59.3775 27.228 59.3775 25.6811C59.3776 24.1738 58.4844 22.8719 57.1998 22.2748ZM55.623 27.7177C55.3167 27.1159 55.022 26.1861 55.022 25.6812C55.022 25.3498 55.2916 25.0801 55.623 25.0801C55.9544 25.0801 56.2238 25.3498 56.2238 25.6812C56.2238 26.1861 55.9291 27.1159 55.623 27.7177Z" fill="white"/>
<path d="M11.5271 24.7757C12.398 24.7757 13.1039 24.0697 13.1039 23.1988V22.6741C13.1039 21.8032 12.398 21.0972 11.5271 21.0972C10.6562 21.0972 9.9502 21.8032 9.9502 22.6741V23.1988C9.9502 24.0697 10.6562 24.7757 11.5271 24.7757Z" fill="white"/>
</svg>
