<svg width="50" height="50" viewBox="0 0 50 50" fill="none" xmlns="http://www.w3.org/2000/svg">
<g clip-path="url(#clip0_18_2977)">
<path d="M49.0232 39.1558C40.8674 39.1558 32.8626 42.5013 27.0612 48.3343C26.6805 48.7169 26.6824 49.3353 27.0647 49.7152C27.2554 49.9048 27.5041 49.9994 27.7536 49.9994C28.0042 49.9994 28.2549 49.9037 28.446 49.7118C33.8834 44.2446 41.3835 41.1089 49.0232 41.1089C49.5626 41.1089 49.9998 40.6717 49.9998 40.1323C49.9998 39.5933 49.5626 39.1558 49.0232 39.1558Z" fill="#4F7F3A"/>
<path d="M28.6593 38.2514C28.3571 37.8043 27.7502 37.6868 27.3035 37.9889C23.1276 40.8095 19.6009 44.3388 16.8207 48.4786C16.5201 48.9264 16.6391 49.5333 17.087 49.8339C17.2545 49.9461 17.4433 49.9999 17.6306 49.9999C17.9449 49.9999 18.2539 49.848 18.4424 49.5676C21.0814 45.6374 24.4303 42.2862 28.3968 39.6071C28.8435 39.3054 28.961 38.6984 28.6593 38.2514Z" fill="#4F7F3A"/>
<path d="M49.0235 31.2944C44.6576 31.2944 40.3363 32.0402 36.1798 33.5112C35.6713 33.6908 35.405 34.2489 35.5851 34.7574C35.7266 35.1583 36.1035 35.4086 36.5056 35.4086C36.6135 35.4086 36.7234 35.3903 36.8314 35.3521C40.778 33.9556 44.88 33.2476 49.0235 33.2476C49.5629 33.2476 50.0001 32.8104 50.0001 32.271C50.0001 31.7316 49.5629 31.2944 49.0235 31.2944Z" fill="#4F7F3A"/>
<path d="M13.9919 43.2986C20.4166 34.9219 29.7169 29.1057 39.9792 26.9259C39.9811 26.9256 39.983 26.9252 39.9845 26.9248C42.9337 26.2988 45.9614 25.9727 49.0234 25.9727C49.5625 25.9727 50 25.5351 50 24.9961C50 24.4567 49.5625 24.0195 49.0234 24.0195C46.2467 24.0195 43.4807 24.2736 40.7616 24.7706V22.6626C44.2913 19.6746 46.2288 15.7592 46.2288 11.5897C46.2288 7.27873 44.1578 3.23935 40.3969 0.215435C40.0394 -0.0718117 39.5302 -0.0718117 39.1727 0.215435C35.4122 3.23935 33.3408 7.27873 33.3408 11.5897C33.3408 15.7592 35.2787 19.6746 38.8081 22.6626V25.17C36.9526 25.5923 35.1238 26.1306 33.3332 26.7787V21.0608C33.3332 20.7923 33.2249 20.5493 33.0494 20.3727V20.3723L27.5806 14.8711C27.3972 14.6869 27.1481 14.5831 26.8879 14.5831H15.7227C15.4629 14.5831 15.2134 14.6869 15.0303 14.8711L9.56154 20.3723V20.3727C9.38606 20.5493 9.27734 20.7923 9.27734 21.0612V24.7905C8.5968 24.6657 7.91321 24.5559 7.22656 24.462V20.9807C9.89571 18.6847 11.3602 15.6901 11.3602 12.4999C11.3602 9.167 9.76257 6.04734 6.86188 3.71466C6.50444 3.42741 5.99556 3.42741 5.63812 3.71466C2.73743 6.04696 1.13983 9.167 1.13983 12.4999C1.13983 15.6898 2.60429 18.6843 5.27344 20.9804V24.2373C3.84941 24.1042 2.41585 24.0355 0.976562 24.0355C0.437164 24.0355 0 24.4727 0 25.0121C0 25.5515 0.437164 25.9887 0.976562 25.9887C8.78525 25.9887 16.423 28.0547 23.1564 31.9743C21.5431 33.0707 20.0024 34.2681 18.5436 35.5571C13.0882 32.7777 7.02667 31.3109 0.976562 31.3109C0.437546 31.3109 0 31.7481 0 32.2875C0 32.8269 0.437546 33.2641 0.976562 33.2641C6.48155 33.2641 11.9976 34.5443 17.009 36.9754C15.5243 38.4116 14.1365 39.9482 12.8559 41.5725C9.05723 39.9795 5.06477 39.1723 0.976562 39.1723C0.437546 39.1723 0 39.6094 0 40.1488C0 40.6882 0.437546 41.1254 0.976562 41.1254C4.63867 41.1254 8.21915 41.8197 11.6394 43.1869C10.9646 44.1245 10.3233 45.0877 9.72023 46.0765L8.23212 48.5145C7.95097 48.9745 8.09669 49.5757 8.55675 49.8565C8.71582 49.9537 8.8913 49.9999 9.06486 49.9999C9.39369 49.9999 9.71527 49.8332 9.89914 49.5318L11.3873 47.0939C12.1632 45.8224 13.0016 44.5991 13.8954 43.4245C13.9305 43.3856 13.9633 43.344 13.9919 43.2986ZM35.2943 11.5897C35.2943 8.11872 36.8824 4.83084 39.785 2.25439C42.6876 4.83084 44.2757 8.11872 44.2757 11.5897C44.2757 14.6483 43.0412 17.5654 40.7616 19.9782V12.4999C40.7616 11.9605 40.3244 11.5233 39.785 11.5233C39.2456 11.5233 38.8084 11.9605 38.8084 12.4999V19.9782C36.5284 17.5654 35.2943 14.6483 35.2943 11.5897ZM3.09296 12.4999C3.09296 10.0089 4.20799 7.64303 6.25 5.76315C8.29201 7.64265 9.40704 10.0089 9.40704 12.4999C9.40704 14.5587 8.64448 16.5324 7.22656 18.217V11.7187C7.22656 11.1793 6.7894 10.7421 6.25 10.7421C5.71098 10.7421 5.27344 11.1793 5.27344 11.7187V18.217C3.85551 16.5324 3.09296 14.5587 3.09296 12.4999ZM30.0091 20.0843H21.5977L18.0706 16.5362H26.482L30.0091 20.0843ZM15.7227 16.9448L18.8438 20.0843H12.6019L15.7227 16.9448ZM11.2305 22.0374H20.2148V28.2477C19.762 28.0395 19.3066 27.838 18.8477 27.6446V24.3648C18.8477 23.8257 18.4105 23.3882 17.8711 23.3882H13.5742C13.0352 23.3882 12.5977 23.8257 12.5977 24.3648V25.5259C12.1437 25.4077 11.6882 25.2955 11.2305 25.191V22.0374ZM16.8945 26.8741C16.1201 26.5887 15.3389 26.324 14.5508 26.081V25.3413H16.8945V26.8741ZM22.168 29.2033V22.0374H31.3805V27.5367C29.7077 28.2298 28.0731 29.021 26.4885 29.9106C25.9819 30.1948 25.4814 30.49 24.9866 30.7929C24.0635 30.2291 23.1235 29.6988 22.168 29.2033Z" fill="#4F7F3A"/>
<path d="M39.7852 9.76562C40.0419 9.76562 40.294 9.6611 40.4756 9.47914C40.6572 9.29756 40.7617 9.04579 40.7617 8.78906C40.7617 8.53195 40.6576 8.28018 40.4756 8.0986C40.294 7.91664 40.0419 7.8125 39.7852 7.8125C39.5284 7.8125 39.2763 7.91664 39.0951 8.0986C38.9131 8.28018 38.8086 8.53195 38.8086 8.78906C38.8086 9.04579 38.9131 9.29756 39.0951 9.47914C39.2763 9.66072 39.5284 9.76562 39.7852 9.76562Z" fill="#4F7F3A"/>
<path d="M31.3086 35.6708C31.1274 35.8523 31.0225 36.1041 31.0225 36.3608C31.0225 36.6187 31.127 36.8697 31.3086 37.0513C31.4905 37.2333 31.7423 37.3374 31.999 37.3374C32.2561 37.3374 32.5079 37.2333 32.6895 37.0513C32.8711 36.8697 32.9756 36.6187 32.9756 36.3608C32.9756 36.1041 32.8711 35.8523 32.6895 35.6708C32.5079 35.4888 32.2561 35.3843 31.999 35.3843C31.7423 35.3843 31.4905 35.4888 31.3086 35.6708Z" fill="#4F7F3A"/>
</g>
<defs>
<clipPath id="clip0_18_2977">
<rect width="50" height="50" fill="white"/>
</clipPath>
</defs>
</svg>
