<svg width="24" height="24" viewBox="0 0 24 24" fill="none" xmlns="http://www.w3.org/2000/svg">
<g clip-path="url(#clip0_78_788)">
<path d="M18.9676 14.8676C18.4762 14.356 17.8836 14.0825 17.2555 14.0825C16.6324 14.0825 16.0347 14.3509 15.5231 14.8625L13.9225 16.4581C13.7908 16.3872 13.6591 16.3214 13.5324 16.2555C13.3501 16.1643 13.1779 16.0782 13.031 15.9871C11.5316 15.0348 10.169 13.7937 8.86216 12.188C8.22899 11.3877 7.8035 10.714 7.49451 10.0302C7.90987 9.65028 8.29484 9.25518 8.66968 8.87528C8.81151 8.73345 8.95334 8.58655 9.09517 8.44472C10.1589 7.381 10.1589 6.00322 9.09517 4.93949L7.71233 3.55665C7.5553 3.39962 7.39321 3.23753 7.24125 3.07544C6.93733 2.76139 6.61821 2.4372 6.28896 2.13328C5.79762 1.64701 5.21004 1.38867 4.59206 1.38867C3.97409 1.38867 3.37637 1.64701 2.86984 2.13328C2.86477 2.13835 2.86477 2.13835 2.85971 2.14341L1.13748 3.88083C0.489117 4.5292 0.119345 5.31939 0.0382993 6.23623C-0.0832695 7.71531 0.352352 9.09309 0.686666 9.99473C1.50725 12.2083 2.73307 14.2598 4.56167 16.4581C6.7803 19.1073 9.44975 21.1993 12.4991 22.6733C13.6641 23.2255 15.2192 23.8789 16.9566 23.9903C17.063 23.9954 17.1744 24.0005 17.2757 24.0005C18.4458 24.0005 19.4285 23.58 20.1984 22.7442C20.2035 22.7341 20.2136 22.7291 20.2187 22.7189C20.4821 22.3998 20.786 22.1111 21.1051 21.8021C21.323 21.5944 21.5458 21.3766 21.7636 21.1487C22.2651 20.6269 22.5285 20.0191 22.5285 19.396C22.5285 18.7679 22.26 18.1652 21.7484 17.6586L18.9676 14.8676ZM20.781 20.2014C20.7759 20.2014 20.7759 20.2065 20.781 20.2014C20.5834 20.4142 20.3808 20.6067 20.163 20.8194C19.8337 21.1335 19.4994 21.4627 19.1854 21.8325C18.6738 22.3795 18.071 22.6379 17.2808 22.6379C17.2048 22.6379 17.1238 22.6379 17.0478 22.6328C15.5434 22.5366 14.1453 21.949 13.0968 21.4475C10.2298 20.0596 7.71233 18.0892 5.62033 15.592C3.89304 13.5101 2.73814 11.5852 1.97327 9.51858C1.50219 8.25731 1.32997 7.27463 1.40595 6.34766C1.4566 5.75502 1.68454 5.26368 2.10497 4.84325L3.83226 3.11596C4.08046 2.88295 4.34386 2.75632 4.60219 2.75632C4.92131 2.75632 5.17964 2.9488 5.34174 3.1109C5.3468 3.11596 5.35187 3.12103 5.35693 3.12609C5.66592 3.41482 5.95971 3.71367 6.2687 4.03279C6.42572 4.19488 6.58781 4.35698 6.74991 4.52413L8.13275 5.90698C8.66968 6.44391 8.66968 6.94031 8.13275 7.47724C7.98586 7.62414 7.84403 7.77103 7.69713 7.91286C7.27164 8.34848 6.86641 8.75371 6.42572 9.14881C6.41559 9.15894 6.40546 9.16401 6.4004 9.17414C5.96478 9.60976 6.04582 10.0352 6.137 10.324C6.14206 10.3392 6.14713 10.3544 6.15219 10.3696C6.51183 11.2408 7.01837 12.0614 7.78831 13.039L7.79337 13.0441C9.19141 14.7663 10.6654 16.1086 12.2914 17.1369C12.4991 17.2686 12.7118 17.375 12.9145 17.4763C13.0968 17.5674 13.269 17.6536 13.4159 17.7447C13.4362 17.7549 13.4564 17.7701 13.4767 17.7802C13.6489 17.8663 13.811 17.9068 13.9782 17.9068C14.3986 17.9068 14.662 17.6434 14.7481 17.5573L16.4805 15.825C16.6527 15.6527 16.9262 15.4451 17.2453 15.4451C17.5594 15.4451 17.8177 15.6426 17.9748 15.8148C17.9798 15.8199 17.9798 15.8199 17.9849 15.825L20.7759 18.616C21.2976 19.1326 21.2976 19.6645 20.781 20.2014Z" fill="#C8433A"/>
<path d="M12.9702 5.70908C14.2973 5.93196 15.5029 6.56006 16.4653 7.52248C17.4277 8.4849 18.0508 9.69046 18.2787 11.0176C18.3344 11.3519 18.6232 11.5849 18.9524 11.5849C18.9929 11.5849 19.0284 11.5798 19.0689 11.5748C19.4438 11.514 19.692 11.1594 19.6312 10.7846C19.3576 9.17886 18.5978 7.71497 17.4379 6.555C16.2779 5.39503 14.814 4.63522 13.2083 4.36169C12.8335 4.30091 12.4839 4.54911 12.4181 4.91888C12.3522 5.28866 12.5954 5.6483 12.9702 5.70908Z" fill="#C8433A"/>
<path d="M23.9722 10.5869C23.5214 7.94279 22.2753 5.53674 20.3606 3.62203C18.4459 1.70732 16.0398 0.461243 13.3957 0.0104253C13.026 -0.0554245 12.6764 0.197844 12.6106 0.567615C12.5498 0.942452 12.798 1.29196 13.1728 1.35781C15.5333 1.75798 17.6861 2.87742 19.3982 4.58445C21.1103 6.29654 22.2247 8.44932 22.6248 10.8098C22.6805 11.1441 22.9693 11.3771 23.2985 11.3771C23.339 11.3771 23.3745 11.372 23.415 11.367C23.7848 11.3113 24.0381 10.9567 23.9722 10.5869Z" fill="#C8433A"/>
</g>
<defs>
<clipPath id="clip0_78_788">
<rect width="24" height="24" fill="white"/>
</clipPath>
</defs>
</svg>
