<svg width="50" height="50" viewBox="0 0 50 50" fill="none" xmlns="http://www.w3.org/2000/svg">
<path d="M46.6183 26.8192C46.2893 26.4902 45.8987 26.2291 45.4688 26.051C45.0389 25.8729 44.5781 25.7812 44.1128 25.7812C43.6475 25.7812 43.1867 25.8729 42.7568 26.051C42.3269 26.2291 41.9363 26.4902 41.6073 26.8192L35.542 32.8845C35.2759 32.3919 34.882 31.9802 34.4017 31.6925C33.9214 31.4049 33.3724 31.252 32.8125 31.25H23.9403C23.1765 30.3256 22.228 29.5709 21.1556 29.0345C20.0831 28.498 18.9104 28.1915 17.7127 28.1346C16.5149 28.0778 15.3184 28.2718 14.2 28.7043C13.0816 29.1368 12.0658 29.7982 11.2179 30.6461L7.81253 34.0515L6.80237 33.0414C6.72985 32.9688 6.64374 32.9113 6.54896 32.872C6.45418 32.8327 6.3526 32.8125 6.25 32.8125C6.14741 32.8125 6.04582 32.8327 5.95105 32.872C5.85627 32.9113 5.77016 32.9688 5.69764 33.0414L2.57264 36.1664C2.50007 36.2389 2.44251 36.325 2.40324 36.4198C2.36396 36.5146 2.34375 36.6162 2.34375 36.7188C2.34375 36.8214 2.36396 36.923 2.40324 37.0177C2.44251 37.1125 2.50007 37.1986 2.57264 37.2711L15.0726 49.7711C15.1452 49.8437 15.2313 49.9013 15.326 49.9405C15.4208 49.9798 15.5224 50 15.625 50C15.7276 50 15.8292 49.9798 15.924 49.9405C16.0187 49.9013 16.1048 49.8437 16.1774 49.7711L19.3024 46.6461C19.3749 46.5736 19.4325 46.4875 19.4718 46.3927C19.511 46.298 19.5313 46.1964 19.5313 46.0938C19.5313 45.9912 19.511 45.8896 19.4718 45.7948C19.4325 45.7 19.3749 45.6139 19.3024 45.5414L18.2923 44.5312L19.1685 43.655C19.6091 43.2172 20.2045 42.9706 20.8256 42.9687H32.2438C33.2702 42.9716 34.287 42.7708 35.2353 42.378C36.1836 41.9852 37.0445 41.4082 37.7682 40.6803L46.6183 31.8302C46.9474 31.5012 47.2084 31.1106 47.3865 30.6807C47.5646 30.2508 47.6563 29.7901 47.6563 29.3247C47.6563 28.8594 47.5646 28.3986 47.3865 27.9687C47.2084 27.5388 46.9474 27.1482 46.6183 26.8192ZM15.625 48.114L4.22976 36.7187L6.25003 34.6985L17.6453 46.0937L15.625 48.114ZM45.5136 30.7255L36.6635 39.5756C36.0844 40.1578 35.3956 40.6194 34.637 40.9336C33.8783 41.2478 33.0649 41.4085 32.2438 41.4062H20.8256C20.3125 41.4048 19.8042 41.5052 19.3301 41.7016C18.856 41.898 18.4256 42.1864 18.0638 42.5503L17.1875 43.4265L8.91726 35.1562L12.3227 31.7509C13.0257 31.0479 13.8696 30.5016 14.7989 30.1481C15.7281 29.7945 16.7217 29.6416 17.7142 29.6994C18.7068 29.7573 19.6758 30.0245 20.5577 30.4836C21.4396 30.9427 22.2144 31.5832 22.831 32.3631L22.9512 32.5153C23.0243 32.608 23.1174 32.6828 23.2236 32.7343C23.3297 32.7858 23.4462 32.8125 23.5642 32.8125H32.8125C33.2269 32.8125 33.6244 32.9771 33.9174 33.2701C34.2104 33.5632 34.375 33.9606 34.375 34.375C34.375 34.7894 34.2104 35.1868 33.9174 35.4799C33.6244 35.7729 33.2269 35.9375 32.8125 35.9375H21.875C21.6678 35.9375 21.4691 36.0198 21.3226 36.1663C21.1761 36.3128 21.0938 36.5115 21.0938 36.7187C21.0938 36.9259 21.1761 37.1247 21.3226 37.2712C21.4691 37.4177 21.6678 37.5 21.875 37.5H32.8125C33.5767 37.4976 34.3134 37.2147 34.8828 36.7049C35.4522 36.1952 35.8146 35.4941 35.9011 34.7349L42.7121 27.9239C43.0894 27.5636 43.5911 27.3626 44.1128 27.3626C44.6346 27.3626 45.1362 27.5636 45.5136 27.9239C45.6975 28.1079 45.8435 28.3263 45.943 28.5666C46.0426 28.8069 46.0938 29.0645 46.0938 29.3247C46.0938 29.5848 46.0426 29.8424 45.943 30.0828C45.8435 30.3231 45.6975 30.5415 45.5136 30.7255Z" fill="#11A21B"/>
<path d="M15.425 15.9201C15.4141 15.9353 15.3977 15.944 15.3877 15.9603C15.3851 15.9645 15.3853 15.9694 15.3828 15.9737C13.0068 18.9915 11.716 22.7215 11.7188 26.5624C11.7188 26.6902 11.7195 26.8173 11.7283 26.9447C11.742 27.1419 11.83 27.3265 11.9745 27.4615C12.119 27.5964 12.3092 27.6715 12.5069 27.6718C12.5252 27.6718 12.5435 27.671 12.5618 27.6698C12.6642 27.6628 12.7641 27.6356 12.8559 27.5898C12.9478 27.5441 13.0297 27.4807 13.0971 27.4033C13.1644 27.3259 13.2158 27.236 13.2484 27.1387C13.281 27.0414 13.2941 26.9387 13.287 26.8363C13.2805 26.7448 13.2813 26.6536 13.2813 26.5624C13.2819 23.2787 14.3241 20.0798 16.2578 17.4258C18.4672 18.8684 19.7604 20.2621 19.8135 21.3004C19.7319 22.2881 19.4199 23.2429 18.9026 24.0882C18.6726 24.5632 18.4311 25.0629 18.2083 25.5981C18.1689 25.6928 18.1485 25.7944 18.1484 25.897C18.1482 25.9996 18.1682 26.1012 18.2073 26.1961C18.2863 26.3877 18.4382 26.54 18.6295 26.6197C18.7242 26.6591 18.8258 26.6795 18.9284 26.6796C19.031 26.6798 19.1326 26.6598 19.2275 26.6207C19.4191 26.5417 19.5714 26.3898 19.6511 26.1985C19.862 25.6919 20.0913 25.2189 20.3091 24.7692C20.9577 23.694 21.324 22.4723 21.3738 21.2177C21.293 19.6419 19.8934 17.957 17.2407 16.2036C18.4369 14.8496 19.8576 13.712 21.4404 12.8409C22.9621 15.806 24.793 17.3709 26.7922 17.3709C26.9376 17.371 27.0829 17.3628 27.2274 17.3465C28.6125 17.2583 29.9345 16.7354 31.0051 15.8523C31.6929 15.3205 31.9778 15.1008 33.5548 15.6516C35.0277 16.1644 36.5804 15.5216 37.987 13.8532C39.2046 14.7255 40.2905 15.7682 41.2116 16.9492C40.2711 17.9536 39.5311 19.1282 39.0312 20.4101C38.3648 21.865 37.9143 22.7611 37.0858 22.8389C36.5476 22.8724 36.0077 22.8701 35.4699 22.8321C33.4084 22.7306 30.8445 22.6104 29.0131 26.2107C28.5978 27.022 28.3188 27.896 28.1872 28.7979C28.1585 29.003 28.2124 29.2112 28.3372 29.3766C28.462 29.542 28.6473 29.6511 28.8525 29.6798C28.8887 29.685 28.9253 29.6875 28.9619 29.6874C29.1502 29.6872 29.332 29.619 29.4739 29.4953C29.6159 29.3717 29.7084 29.201 29.7344 29.0145C29.8407 28.2828 30.068 27.5739 30.407 26.9168C31.7787 24.2198 33.3763 24.2988 35.3954 24.3926C36.006 24.4354 36.6188 24.4361 37.2295 24.3949C39.0015 24.2278 39.7388 22.6177 40.4518 21.0605C40.8556 20.0389 41.4212 19.0889 42.1268 18.247C43.1717 19.9005 43.894 21.7368 44.2555 23.6591C44.2742 23.76 44.3127 23.8562 44.3687 23.9423C44.4246 24.0283 44.497 24.1025 44.5816 24.1605C44.6663 24.2186 44.7616 24.2594 44.862 24.2806C44.9624 24.3019 45.066 24.3031 45.1669 24.2842C45.2678 24.2654 45.364 24.2268 45.45 24.1708C45.536 24.1147 45.6101 24.0423 45.6681 23.9576C45.7261 23.8729 45.7668 23.7776 45.7879 23.6772C45.8091 23.5767 45.8102 23.4731 45.7913 23.3722C45.072 19.5712 43.0904 16.1244 40.1677 13.5903C37.2449 11.0561 33.552 9.58298 29.6875 9.40961V8.54639C29.6876 8.10885 29.8107 7.68015 30.0427 7.3092C30.2747 6.93826 30.6064 6.64003 30.9998 6.44854C31.4345 6.95501 31.9734 7.36155 32.5798 7.64035C33.1862 7.91915 33.8457 8.0636 34.5131 8.06383C35.146 8.05841 35.7734 7.94567 36.3686 7.73043C37.365 7.38162 38.3101 6.90049 39.1785 6.29994C39.5544 5.96254 40.0169 5.7365 40.514 5.64716C41.0112 5.55782 41.5234 5.60871 41.9933 5.79411C42.1516 5.8347 42.3186 5.82467 42.4708 5.76542C42.623 5.70617 42.7529 5.60068 42.8421 5.4638C42.9312 5.32692 42.9753 5.16553 42.9679 5.00232C42.9606 4.83912 42.9023 4.68231 42.8013 4.55396C42.6338 4.34107 38.6559 -0.642073 34.8267 0.0708957C31.1305 0.759833 30.6975 3.00168 30.5173 4.94584C29.8764 5.21739 29.32 5.65592 28.9063 6.21571C28.4925 5.65582 27.9361 5.2172 27.2951 4.9456C27.1148 3.0015 26.6819 0.759786 22.9858 0.0708957C19.1563 -0.645886 15.1787 4.34145 15.0112 4.55393C14.9102 4.68228 14.8519 4.83908 14.8445 5.00229C14.8372 5.16549 14.8812 5.32689 14.9704 5.46377C15.0596 5.60065 15.1894 5.70614 15.3417 5.76539C15.4939 5.82464 15.6609 5.83467 15.8192 5.79408C16.289 5.60857 16.8013 5.55762 17.2985 5.64697C17.7957 5.73632 18.2581 5.96242 18.634 6.29991C19.5024 6.90046 20.4474 7.3816 21.4439 7.73041C22.0391 7.94587 22.6665 8.05861 23.2994 8.06382C23.9668 8.06356 24.6263 7.91908 25.2327 7.64027C25.8391 7.36146 26.3781 6.9549 26.8127 6.44843C27.2062 6.63995 27.5378 6.9382 27.7698 7.30916C28.0019 7.68012 28.1249 8.10884 28.125 8.54639V9.39478C25.6634 9.50516 23.2545 10.1452 21.0628 11.2713C18.8711 12.3974 16.9481 13.9831 15.425 15.9201ZM35.1128 1.60669C36.8244 1.28511 38.8706 2.7717 40.2638 4.10265C39.5575 4.24941 38.8936 4.55391 38.3217 4.99338C37.559 5.52383 36.728 5.94846 35.8513 6.25566C35.3106 6.49156 34.7151 6.5729 34.131 6.49067C33.5469 6.40844 32.997 6.16584 32.5424 5.78984L34.6073 4.92319C34.7022 4.88368 34.7883 4.82583 34.8608 4.75295C34.9333 4.68008 34.9907 4.59362 35.0297 4.49853C35.0687 4.40344 35.0886 4.30159 35.0881 4.19881C35.0877 4.09603 35.067 3.99435 35.0272 3.89958C34.9874 3.80482 34.9293 3.71885 34.8562 3.64658C34.7831 3.57432 34.6965 3.51719 34.6013 3.47847C34.5061 3.43974 34.4042 3.42019 34.3014 3.42093C34.1986 3.42166 34.097 3.44267 34.0023 3.48275L32.1727 4.25079C32.3898 2.91442 32.9384 2.01219 35.1128 1.60669ZM21.9612 6.25566C21.0845 5.94846 20.2535 5.52383 19.4908 4.99338C18.9184 4.55324 18.2536 4.24858 17.5465 4.10229C18.9373 2.77096 20.9774 1.28666 22.6997 1.60671C24.8741 2.01211 25.4226 2.91452 25.6398 4.25068L23.8102 3.48275C23.7156 3.44303 23.6141 3.42232 23.5116 3.42181C23.409 3.42131 23.3073 3.44101 23.2123 3.4798C23.1174 3.51859 23.031 3.5757 22.9581 3.64788C22.8852 3.72006 22.8272 3.80589 22.7875 3.90047C22.7478 3.99505 22.727 4.09652 22.7265 4.19911C22.726 4.30169 22.7457 4.40337 22.7845 4.49834C22.8233 4.5933 22.8804 4.6797 22.9526 4.7526C23.0248 4.82549 23.1106 4.88346 23.2052 4.92318L25.2704 5.78988C24.8157 6.16565 24.2658 6.4081 23.6816 6.49031C23.0975 6.57253 22.502 6.49131 21.9612 6.25566ZM34.0698 14.1761C31.8588 13.4048 31.0421 13.8492 30.0495 14.616C29.2046 15.3216 28.1539 15.7348 27.0546 15.7936C25.2036 16.0057 23.7138 13.8593 22.8375 12.1646C25.0515 11.2312 27.4508 10.821 29.8491 10.9659C32.2473 11.1107 34.5799 11.8066 36.6655 12.9996C35.9884 13.7618 35.0334 14.5128 34.0698 14.1761Z" fill="#11A21B"/>
</svg>
