<svg width="112" height="36" viewBox="0 0 112 36" fill="none" xmlns="http://www.w3.org/2000/svg">
<mask id="mask0_723_391" style="mask-type:luminance" maskUnits="userSpaceOnUse" x="2" y="9" width="26" height="13">
<path d="M14.5595 9.33609C9.4723 9.33609 5.84104 12.2793 3.94038 16.801L2.08508 21.2149H7.73106L9.52481 16.9477C10.9187 14.2591 13.7271 12.422 16.9649 12.422C18.8777 12.422 20.7796 13.276 22.102 14.5985C18.4038 12.1097 13.3008 13.3936 11.2318 17.3845C14.8832 23.7069 23.6781 17.6093 27.0339 21.2148L25.1481 16.7283C23.2631 12.2441 19.5822 9.33609 14.5595 9.33609Z" fill="white"/>
</mask>
<g mask="url(#mask0_723_391)">
<path d="M27.0339 9.33609H2.08508V23.7069H27.0339V9.33609Z" fill="#C8433A"/>
</g>
<mask id="mask1_723_391" style="mask-type:luminance" maskUnits="userSpaceOnUse" x="11" y="14" width="17" height="8">
<path d="M14.5582 14.1167C13.1833 14.7979 11.999 15.9049 11.2318 17.3846C14.8833 23.707 23.6781 17.6093 27.0339 21.2149L26.7903 20.6354C25.7939 18.5224 21.9322 17.9202 17.5997 18.1492C14.2536 18.326 12.8754 15.3741 14.5582 14.1167Z" fill="white"/>
</mask>
<g mask="url(#mask1_723_391)">
<path d="M27.0339 14.1167H11.2318V23.7069H27.0339V14.1167Z" fill="#C8433A"/>
</g>
<mask id="mask2_723_391" style="mask-type:luminance" maskUnits="userSpaceOnUse" x="2" y="9" width="22" height="13">
<path d="M14.5595 9.33609C9.4723 9.33609 5.84104 12.2793 3.94038 16.801L2.08508 21.2149H4.90805C8.54259 7.65085 19.8198 9.20099 23.7669 14.1819C21.6981 11.1747 18.553 9.33609 14.5595 9.33609Z" fill="white"/>
</mask>
<g mask="url(#mask2_723_391)">
<path d="M23.7669 7.65088H2.08508V21.2149H23.7669V7.65088Z" fill="#C8433A"/>
</g>
<mask id="mask3_723_391" style="mask-type:luminance" maskUnits="userSpaceOnUse" x="6" y="0" width="17" height="12">
<path d="M14.5595 8.05079C17.6361 8.05079 20.5367 9.16793 22.7835 11.1029L18.1166 0H14.5595H11.0025L6.33557 11.1029C8.58234 9.16793 11.483 8.05079 14.5595 8.05079Z" fill="white"/>
</mask>
<g mask="url(#mask3_723_391)">
<path d="M22.7835 0H6.33557V11.1029H22.7835V0Z" fill="#C8433A"/>
</g>
<mask id="mask4_723_391" style="mask-type:luminance" maskUnits="userSpaceOnUse" x="6" y="5" width="17" height="7">
<path d="M14.5595 8.05079C17.6361 8.05079 20.5367 9.16793 22.7835 11.1029L20.7628 6.29558C16.6019 4.4471 10.49 5.06022 6.33557 11.1029C8.58234 9.16793 11.483 8.05079 14.5595 8.05079Z" fill="white"/>
</mask>
<g mask="url(#mask4_723_391)">
<path d="M22.7835 4.44703H6.33557V11.1029H22.7835V4.44703Z" fill="#C8433A"/>
</g>
<mask id="mask5_723_391" style="mask-type:luminance" maskUnits="userSpaceOnUse" x="0" y="4" width="6" height="12">
<path d="M3.63427 15.238C7.22679 9.55357 4.70393 4.30191 0.00012207 4.48541C1.73989 6.95981 -1.80775 11.6573 3.15782 13.1935C3.15782 13.1935 4.23744 10.6209 2.8123 7.69661C3.92561 8.42653 5.22933 11.2249 3.63427 15.238Z" fill="white"/>
</mask>
<g mask="url(#mask5_723_391)">
<path d="M7.84786 15.2026L7.19748 3.78876L-2.42896 4.3373L-1.77857 15.7511L7.84786 15.2026Z" fill="#C8433A"/>
</g>
<mask id="mask6_723_391" style="mask-type:luminance" maskUnits="userSpaceOnUse" x="0" y="4" width="4" height="10">
<path d="M0 4.48539C1.73981 6.95989 -1.80773 11.6572 3.15775 13.1934C-0.0202015 10.5027 3.18653 5.3771 0 4.48539Z" fill="white"/>
</mask>
<g mask="url(#mask6_723_391)">
<path d="M3.18645 4.4854H-1.80786V13.1934H3.18645V4.4854Z" fill="#C8433A"/>
</g>
<path d="M36.895 21.2149C34.6691 21.2149 32.7571 20.7753 31.159 19.8961C29.561 19.0169 28.3244 17.7842 27.4492 16.1978C26.5931 14.6115 26.165 12.7576 26.165 10.6361C26.165 8.53373 26.6026 6.68937 27.4777 5.10303C28.3529 3.49758 29.561 2.24572 31.102 1.34743C32.662 0.449143 34.4694 0 36.524 0C38.2173 0 39.7297 0.3058 41.0615 0.9174C42.4122 1.529 43.4966 2.36995 44.3147 3.44025C45.1518 4.49143 45.6464 5.71463 45.7986 7.10984H41.4039C41.2137 5.98221 40.681 5.10303 39.8058 4.47232C38.9497 3.8225 37.8748 3.49758 36.5811 3.49758C35.3826 3.49758 34.3362 3.78427 33.442 4.35765C32.5479 4.91191 31.8535 5.71463 31.3588 6.76582C30.8642 7.81701 30.6168 9.07843 30.6168 10.5501C30.6168 12.0791 30.8642 13.3883 31.3588 14.4777C31.8535 15.548 32.5764 16.3698 33.5276 16.9432C34.4979 17.4975 35.687 17.7746 37.0948 17.7746C38.2363 17.7746 39.2065 17.6313 40.0056 17.3446C40.8046 17.0579 41.4134 16.6565 41.832 16.1405L45.9984 17.8033C44.895 18.9118 43.6108 19.7623 42.1459 20.3548C40.7 20.9282 38.9497 21.2149 36.895 21.2149ZM41.6037 17.8033V12.1269L42.4883 13.0156H37.0663V9.63269H45.9984V17.8033H41.6037Z" fill="#2F2F2F"/>
<path d="M48.3032 20.9282V0.286687H57.4922C58.9761 0.286687 60.2698 0.544706 61.3733 1.06074C62.4767 1.55767 63.3328 2.26483 63.9416 3.18223C64.5504 4.09963 64.8548 5.16993 64.8548 6.39313C64.8548 7.59721 64.5504 8.65796 63.9416 9.57536C63.3328 10.4736 62.4767 11.1808 61.3733 11.6968C60.2698 12.1938 58.9761 12.4422 57.4922 12.4422H51.7848V9.20266H57.3781C58.4244 9.20266 59.2235 8.96376 59.7752 8.48594C60.3459 7.98902 60.6313 7.30097 60.6313 6.42179C60.6313 5.52351 60.3554 4.84502 59.8037 4.38632C59.252 3.9085 58.4434 3.6696 57.3781 3.6696H52.698V20.9282H48.3032ZM59.8893 20.9282L51.6421 10.2061H56.2936L65.8251 20.9282H59.8893Z" fill="#2F2F2F"/>
<path d="M67.4793 20.9282V0.286687H71.8741V20.9282H67.4793Z" fill="#2F2F2F"/>
<path d="M81.3457 20.9282L73.9831 0.286687H78.5491L84.1709 17.4879H83.6287L89.2791 0.286687H93.6167L86.2541 20.9282H81.3457Z" fill="#2F2F2F"/>
<path d="M91.4009 20.9282L98.7635 0.286687H102.53L95.7671 20.9282H91.4009ZM106.469 20.9282L99.7337 0.286687H103.672L111.034 20.9282H106.469ZM95.2819 12.9296H106.811V16.3698H95.2819V12.9296Z" fill="#2F2F2F"/>
<path d="M3.61305 36C3.09084 36 2.6078 35.9119 2.16392 35.7356C1.72656 35.5594 1.3447 35.3113 1.01831 34.9915C0.698459 34.6651 0.447144 34.28 0.26437 33.8361C0.0881233 33.3857 0 32.8896 0 32.3478C0 31.6297 0.1534 31.0031 0.460199 30.4678C0.766999 29.926 1.1913 29.505 1.73309 29.2047C2.28141 28.9044 2.9048 28.7543 3.60326 28.7543C4.31478 28.7543 4.94143 28.9044 5.48323 29.2047C6.02502 29.505 6.44932 29.926 6.75612 30.4678C7.06945 31.0096 7.22611 31.6395 7.22611 32.3576C7.22611 32.8928 7.13472 33.3857 6.95195 33.8361C6.7757 34.28 6.52439 34.6651 6.19801 34.9915C5.87815 35.3113 5.49628 35.5594 5.0524 35.7356C4.61505 35.9119 4.13527 36 3.61305 36ZM3.60326 34.8054C4.01451 34.8054 4.37679 34.701 4.69012 34.4921C5.00344 34.2832 5.24823 33.996 5.42448 33.6305C5.60725 33.2584 5.69864 32.8275 5.69864 32.338C5.69864 31.8549 5.61052 31.4339 5.43427 31.0749C5.25802 30.7159 5.01324 30.4384 4.69991 30.2426C4.38658 30.0468 4.02103 29.9489 3.60326 29.9489C3.19202 29.9489 2.82974 30.0468 2.51641 30.2426C2.20308 30.4384 1.9583 30.7159 1.78205 31.0749C1.61233 31.4274 1.52747 31.8484 1.52747 32.338C1.52747 32.8341 1.61559 33.2682 1.79184 33.6402C1.96809 34.0058 2.21287 34.293 2.5262 34.5019C2.83953 34.7042 3.19855 34.8054 3.60326 34.8054Z" fill="#2F2F2F"/>
<path d="M11.2979 35.9021V28.8522H14.4508C14.9599 28.8522 15.4038 28.9403 15.7824 29.1166C16.161 29.2863 16.4548 29.5278 16.6636 29.8411C16.8725 30.1545 16.977 30.52 16.977 30.9378C16.977 31.349 16.8725 31.7113 16.6636 32.0246C16.4548 32.3314 16.161 32.573 15.7824 32.7492C15.4038 32.9189 14.9599 33.0038 14.4508 33.0038H12.4925V31.8974H14.4116C14.7706 31.8974 15.0448 31.8158 15.2341 31.6526C15.4299 31.4829 15.5278 31.2479 15.5278 30.9476C15.5278 30.6408 15.4332 30.4091 15.2439 30.2524C15.0546 30.0892 14.7771 30.0076 14.4116 30.0076H12.8058V35.9021H11.2979ZM15.2733 35.9021L12.4435 32.2401H14.0395L17.3099 35.9021H15.2733Z" fill="#2F2F2F"/>
<path d="M24.5776 36C23.8139 36 23.1578 35.8499 22.6095 35.5496C22.0612 35.2493 21.6369 34.8283 21.3366 34.2865C21.0429 33.7447 20.896 33.1115 20.896 32.3869C20.896 31.6689 21.0461 31.039 21.3464 30.4972C21.6467 29.9489 22.0612 29.5213 22.5899 29.2145C23.1252 28.9077 23.7453 28.7543 24.4503 28.7543C25.0313 28.7543 25.5502 28.8587 26.0072 29.0676C26.4706 29.2765 26.8427 29.5637 27.1234 29.9293C27.4106 30.2883 27.5803 30.7061 27.6325 31.1826H26.1247C26.0594 30.7975 25.8766 30.4972 25.5763 30.2818C25.2826 30.0598 24.9138 29.9489 24.4699 29.9489C24.0587 29.9489 23.6996 30.0468 23.3928 30.2426C23.086 30.4319 22.8478 30.7061 22.6781 31.0651C22.5083 31.4241 22.4235 31.8549 22.4235 32.3576C22.4235 32.8798 22.5083 33.3269 22.6781 33.699C22.8478 34.0645 23.0958 34.3452 23.4222 34.5411C23.7551 34.7304 24.1631 34.825 24.6461 34.825C25.0378 34.825 25.3707 34.7761 25.6449 34.6781C25.919 34.5802 26.1279 34.4431 26.2715 34.2669L27.7011 34.8348C27.3225 35.2134 26.8819 35.5039 26.3792 35.7062C25.8831 35.9021 25.2826 36 24.5776 36ZM26.1932 34.8348V32.8961L26.4967 33.1996H24.6363V32.0442H27.7011V34.8348H26.1932Z" fill="#2F2F2F"/>
<path d="M31.4143 35.9021L33.9405 28.8522H35.233L32.9124 35.9021H31.4143ZM36.5842 35.9021L34.2735 28.8522H35.6247L38.1509 35.9021H36.5842ZM32.746 33.1703H36.7017V34.3452H32.746V33.1703Z" fill="#2F2F2F"/>
<path d="M42.2078 35.9021V28.8522H44.1563L47.2895 35.0796L46.8098 35.1971V28.8522H48.2785V35.9021H46.33L43.1967 29.6747L43.6765 29.5572V35.9021H42.2078Z" fill="#2F2F2F"/>
<path d="M52.5841 35.9021V28.8522H54.0919V35.9021H52.5841Z" fill="#2F2F2F"/>
<path d="M61.7382 36C61.229 36 60.759 35.9119 60.3282 35.7356C59.8974 35.5528 59.522 35.2983 59.2022 34.9719C58.8888 34.6455 58.6441 34.2604 58.4678 33.8165C58.2916 33.3661 58.2034 32.8765 58.2034 32.3478C58.2034 31.819 58.2883 31.336 58.458 30.8986C58.6343 30.4613 58.879 30.0827 59.1924 29.7628C59.5122 29.4364 59.8876 29.1884 60.3184 29.0187C60.7492 28.8424 61.2225 28.7543 61.7382 28.7543C62.3191 28.7543 62.8413 28.8685 63.3048 29.097C63.7748 29.3189 64.1567 29.6355 64.4504 30.0468C64.7507 30.4515 64.9334 30.928 64.9987 31.4763H63.53C63.4451 30.9737 63.2395 30.5951 62.9131 30.3405C62.5868 30.0794 62.1984 29.9489 61.748 29.9489C61.3498 29.9489 60.9973 30.0435 60.6905 30.2328C60.3902 30.4221 60.1552 30.6963 59.9855 31.0553C59.8158 31.4078 59.7309 31.8353 59.7309 32.338C59.7309 32.8471 59.8158 33.2877 59.9855 33.6598C60.1617 34.0254 60.4033 34.3093 60.7101 34.5117C61.0169 34.7075 61.3694 34.8054 61.7675 34.8054C62.1918 34.8054 62.5672 34.6781 62.8936 34.4236C63.2199 34.169 63.4321 33.7904 63.53 33.2877H65.0183C64.9334 33.8361 64.7409 34.3159 64.4406 34.7271C64.1403 35.1318 63.7585 35.4451 63.295 35.6671C62.8315 35.889 62.3126 36 61.7382 36Z" fill="#2F2F2F"/>
<path d="M74.2657 35.9021V28.8522H75.7736V35.9021H74.2657ZM74.9707 33.1703V32.0149H79.0145V33.1703H74.9707ZM74.9707 30.0076V28.8522H79.2397V30.0076H74.9707Z" fill="#2F2F2F"/>
<path d="M82.3889 35.9021L84.9151 28.8522H86.2076L83.887 35.9021H82.3889ZM87.5588 35.9021L85.248 28.8522H86.5993L89.1255 35.9021H87.5588ZM83.7206 33.1703H87.6763V34.3452H83.7206V33.1703Z" fill="#2F2F2F"/>
<path d="M93.0189 35.9021V28.8522H96.1717C96.6809 28.8522 97.1248 28.9403 97.5034 29.1166C97.882 29.2863 98.1757 29.5278 98.3846 29.8411C98.5935 30.1545 98.6979 30.52 98.6979 30.9378C98.6979 31.349 98.5935 31.7113 98.3846 32.0246C98.1757 32.3314 97.882 32.573 97.5034 32.7492C97.1248 32.9189 96.6809 33.0038 96.1717 33.0038H94.2134V31.8974H96.1326C96.4916 31.8974 96.7657 31.8158 96.955 31.6526C97.1509 31.4829 97.2488 31.2479 97.2488 30.9476C97.2488 30.6408 97.1541 30.4091 96.9648 30.2524C96.7755 30.0892 96.4981 30.0076 96.1326 30.0076H94.5268V35.9021H93.0189ZM96.9942 35.9021L94.1645 32.2401H95.7605L99.0308 35.9021H96.9942Z" fill="#2F2F2F"/>
<path d="M102.928 35.9021V28.8522H105.277L107.236 35.6475H106.384L108.342 28.8522H110.702V35.9021H109.214V29.2732H109.468L107.559 35.9021H106.002L104.112 29.332H104.357V35.9021H102.928Z" fill="#2F2F2F"/>
</svg>
