<svg width="186" height="61" viewBox="0 0 186 61" fill="none" xmlns="http://www.w3.org/2000/svg">
<mask id="mask0_522_369" style="mask-type:luminance" maskUnits="userSpaceOnUse" x="3" y="15" width="43" height="21">
<path d="M24.3142 15.5879C15.8186 15.5879 9.75439 20.5031 6.58029 28.0543L3.48193 35.4254H12.9107L15.9063 28.2993C18.234 23.8094 22.9242 20.7414 28.3313 20.7414C31.5257 20.7414 34.7018 22.1676 36.9103 24.3761C30.7342 20.2198 22.2122 22.3639 18.7569 29.0288C24.8549 39.5871 39.5423 29.4041 45.1465 35.4253L41.9973 27.9328C38.8492 20.4442 32.7022 15.5879 24.3142 15.5879Z" fill="white"/>
</mask>
<g mask="url(#mask0_522_369)">
<path d="M45.1465 15.5879H3.48193V39.5872H45.1465V15.5879Z" fill="#11A21B"/>
</g>
<mask id="mask1_522_369" style="mask-type:luminance" maskUnits="userSpaceOnUse" x="18" y="23" width="28" height="13">
<path d="M24.312 23.5723C22.0159 24.7099 20.0381 26.5587 18.7568 29.0296C24.8548 39.588 39.5422 29.4049 45.1464 35.4262L44.7395 34.4585C43.0756 30.9299 36.6265 29.9241 29.3913 30.3065C23.8033 30.6018 21.5016 25.6721 24.312 23.5723Z" fill="white"/>
</mask>
<g mask="url(#mask1_522_369)">
<path d="M45.1464 23.5723H18.7568V39.5879H45.1464V23.5723Z" fill="#11A21B"/>
</g>
<mask id="mask2_522_369" style="mask-type:luminance" maskUnits="userSpaceOnUse" x="3" y="15" width="37" height="21">
<path d="M24.3142 15.5879C15.8186 15.5879 9.75439 20.5031 6.58029 28.0543L3.48193 35.4254H8.19629C14.266 12.7735 33.0989 15.3623 39.6906 23.6803C36.2357 18.6584 30.9835 15.5879 24.3142 15.5879Z" fill="white"/>
</mask>
<g mask="url(#mask2_522_369)">
<path d="M39.6907 12.7744H3.48193V35.4262H39.6907V12.7744Z" fill="#11A21B"/>
</g>
<mask id="mask3_522_369" style="mask-type:luminance" maskUnits="userSpaceOnUse" x="10" y="0" width="29" height="19">
<path d="M24.3146 13.4448C29.4524 13.4448 34.2966 15.3104 38.0486 18.5418L30.2549 0H24.3146H18.3743L10.5806 18.5418C14.3327 15.3104 19.1768 13.4448 24.3146 13.4448Z" fill="white"/>
</mask>
<g mask="url(#mask3_522_369)">
<path d="M38.0486 0H10.5806V18.5418H38.0486V0Z" fill="#11A21B"/>
</g>
<mask id="mask4_522_369" style="mask-type:luminance" maskUnits="userSpaceOnUse" x="10" y="8" width="29" height="11">
<path d="M24.3146 13.4453C29.4524 13.4453 34.2966 15.311 38.0486 18.5424L34.674 10.5141C27.7254 7.42718 17.5184 8.4511 10.5806 18.5424C14.3327 15.311 19.1768 13.4453 24.3146 13.4453Z" fill="white"/>
</mask>
<g mask="url(#mask4_522_369)">
<path d="M38.0486 7.42676H10.5806V18.542H38.0486V7.42676Z" fill="#11A21B"/>
</g>
<mask id="mask5_522_369" style="mask-type:luminance" maskUnits="userSpaceOnUse" x="0" y="7" width="9" height="19">
<path d="M6.06904 25.448C12.0685 15.955 7.85538 7.18475 0 7.4912C2.90541 11.6234 -3.01916 19.4682 5.27337 22.0336C5.27337 22.0336 7.07633 17.7374 4.69634 12.8539C6.55557 14.0729 8.73279 18.7462 6.06904 25.448Z" fill="white"/>
</mask>
<g mask="url(#mask5_522_369)">
<path d="M13.1052 25.3882L12.019 6.32715L-4.05713 7.24321L-2.97098 26.3042L13.1052 25.3882Z" fill="#11A21B"/>
</g>
<mask id="mask6_522_369" style="mask-type:luminance" maskUnits="userSpaceOnUse" x="0" y="7" width="6" height="16">
<path d="M0 7.48926C2.9055 11.6217 -3.01891 19.4662 5.27345 22.0316C-0.0337365 17.5381 5.32151 8.9784 0 7.48926Z" fill="white"/>
</mask>
<g mask="url(#mask6_522_369)">
<path d="M5.32147 7.48926H-3.01904V22.0316H5.32147V7.48926Z" fill="#11A21B"/>
</g>
<path d="M61.6144 35.4287C57.8972 35.4287 54.7041 34.6946 52.0353 33.2264C49.3665 31.7582 47.3014 29.6995 45.8399 27.0503C44.4102 24.4011 43.6953 21.3051 43.6953 17.7622C43.6953 14.2513 44.4261 11.1712 45.8875 8.52205C47.349 5.84095 49.3665 3.75034 51.94 2.2502C54.5453 0.750068 57.5636 0 60.9949 0C63.8225 0 66.3484 0.510685 68.5724 1.53205C70.8282 2.55342 72.6391 3.95781 74.0053 5.7452C75.4032 7.50068 76.2293 9.54342 76.4835 11.8734H69.1443C68.8266 9.99027 67.937 8.52205 66.4755 7.46876C65.0457 6.38356 63.2507 5.84095 61.0902 5.84095C59.0886 5.84095 57.3412 6.31972 55.8479 7.27726C54.3546 8.20287 53.195 9.54342 52.3689 11.2989C51.5429 13.0544 51.1298 15.1609 51.1298 17.6186C51.1298 20.172 51.5429 22.3584 52.3689 24.1777C53.195 25.9651 54.4023 27.3376 55.9909 28.2951C57.6112 29.2207 59.5969 29.6835 61.948 29.6835C63.8543 29.6835 65.4747 29.4442 66.8091 28.9654C68.1435 28.4866 69.1602 27.8164 69.8591 26.9546L76.8171 29.7314C74.9743 31.5826 72.8298 33.003 70.3834 33.9924C67.9687 34.95 65.0457 35.4287 61.6144 35.4287ZM69.4779 29.7314V20.2518L70.9552 21.736H61.9004V16.0866H76.8171V29.7314H69.4779Z" fill="white"/>
<path d="M80.6661 34.95V0.478766H96.0118C98.4899 0.478766 100.65 0.909657 102.493 1.77144C104.336 2.6013 105.766 3.78226 106.782 5.31431C107.799 6.84636 108.307 8.63376 108.307 10.6765C108.307 12.6873 107.799 14.4588 106.782 15.9908C105.766 17.4909 104.336 18.6719 102.493 19.5337C100.65 20.3635 98.4899 20.7785 96.0118 20.7785H86.4803V15.3684H95.8211C97.5686 15.3684 98.903 14.9694 99.8244 14.1715C100.778 13.3416 101.254 12.1926 101.254 10.7244C101.254 9.22424 100.793 8.09116 99.872 7.32513C98.9506 6.52719 97.6003 6.12821 95.8211 6.12821H88.0054V34.95H80.6661ZM100.015 34.95L86.2421 17.0441H94.0102L109.928 34.95H100.015Z" fill="white"/>
<path d="M112.69 34.95V0.478766H120.03V34.95H112.69Z" fill="white"/>
<path d="M135.847 34.95L123.552 0.478766H131.177L140.565 29.2048H139.66L149.096 0.478766H156.34L144.044 34.95H135.847Z" fill="white"/>
<path d="M152.639 34.95L164.935 0.478766H171.226L159.931 34.95H152.639ZM177.802 34.95L166.555 0.478766H173.132L185.428 34.95H177.802ZM159.121 21.5924H178.374V27.3376H159.121V21.5924Z" fill="white"/>
<path d="M6.03381 60.1198C5.16172 60.1198 4.35503 59.9726 3.61375 59.6783C2.88337 59.384 2.24565 58.9697 1.70059 58.4356C1.16643 57.8905 0.746732 57.2474 0.441498 56.5061C0.147166 55.7539 0 54.9254 0 54.0206C0 52.8215 0.256178 51.775 0.768534 50.8811C1.28089 49.9763 1.98947 49.2732 2.89427 48.7717C3.80997 48.2703 4.85103 48.0195 6.01746 48.0195C7.20569 48.0195 8.2522 48.2703 9.157 48.7717C10.0618 49.2732 10.7704 49.9763 11.2827 50.8811C11.806 51.7859 12.0676 52.8378 12.0676 54.037C12.0676 54.9309 11.915 55.7539 11.6098 56.5061C11.3154 57.2474 10.8957 57.8905 10.3507 58.4356C9.81653 58.9697 9.17881 59.384 8.43752 59.6783C7.70715 59.9726 6.90591 60.1198 6.03381 60.1198ZM6.01746 58.1249C6.70424 58.1249 7.30925 57.9505 7.83251 57.6016C8.35577 57.2528 8.76456 56.7732 9.05889 56.1627C9.36413 55.5413 9.51674 54.8219 9.51674 54.0043C9.51674 53.1976 9.36958 52.4945 9.07525 51.8949C8.78091 51.2953 8.37212 50.832 7.84886 50.505C7.3256 50.178 6.71514 50.0144 6.01746 50.0144C5.33068 50.0144 4.72567 50.178 4.20241 50.505C3.67915 50.832 3.27036 51.2953 2.97603 51.8949C2.6926 52.4836 2.55088 53.1867 2.55088 54.0043C2.55088 54.8328 2.69805 55.5577 2.99238 56.179C3.28671 56.7895 3.69551 57.2692 4.21876 57.618C4.74202 57.9559 5.34159 58.1249 6.01746 58.1249Z" fill="white"/>
<path d="M18.8675 59.9563V48.183H24.1328C24.9831 48.183 25.7244 48.3302 26.3567 48.6245C26.9889 48.908 27.4795 49.3113 27.8283 49.8346C28.1772 50.3578 28.3516 50.9683 28.3516 51.666C28.3516 52.3527 28.1772 52.9578 27.8283 53.481C27.4795 53.9934 26.9889 54.3967 26.3567 54.691C25.7244 54.9745 24.9831 55.1162 24.1328 55.1162H20.8625V53.2684H24.0674C24.667 53.2684 25.1248 53.1322 25.441 52.8596C25.768 52.5762 25.9315 52.1838 25.9315 51.6823C25.9315 51.17 25.7734 50.783 25.4573 50.5213C25.1412 50.2488 24.6779 50.1126 24.0674 50.1126H21.3857V59.9563H18.8675ZM25.5064 59.9563L20.7807 53.8407H23.446L28.9075 59.9563H25.5064Z" fill="white"/>
<path d="M41.0447 60.1198C39.7692 60.1198 38.6737 59.8691 37.758 59.3676C36.8423 58.8662 36.1337 58.1631 35.6322 57.2583C35.1417 56.3535 34.8964 55.2961 34.8964 54.086C34.8964 52.8869 35.1471 51.8349 35.6486 50.9301C36.15 50.0144 36.8423 49.3004 37.7252 48.7881C38.6191 48.2757 39.6548 48.0195 40.8321 48.0195C41.8023 48.0195 42.6689 48.1939 43.432 48.5428C44.206 48.8916 44.8274 49.3713 45.2961 49.9817C45.7758 50.5813 46.0592 51.279 46.1464 52.0748H43.6282C43.5192 51.4316 43.214 50.9301 42.7125 50.5704C42.222 50.1998 41.6061 50.0144 40.8648 50.0144C40.178 50.0144 39.5784 50.178 39.0661 50.505C38.5537 50.8211 38.1558 51.279 37.8724 51.8785C37.589 52.4781 37.4473 53.1976 37.4473 54.037C37.4473 54.9091 37.589 55.6558 37.8724 56.2772C38.1558 56.8876 38.5701 57.3564 39.1152 57.6834C39.6711 57.9995 40.3524 58.1576 41.1591 58.1576C41.8132 58.1576 42.3692 58.0758 42.827 57.9123C43.2849 57.7488 43.6337 57.5199 43.8735 57.2256L46.2609 58.174C45.6286 58.8062 44.8928 59.2913 44.0534 59.6293C43.2249 59.9563 42.222 60.1198 41.0447 60.1198ZM43.7427 58.174V54.9363L44.2496 55.4432H41.1428V53.5137H46.2609V58.174H43.7427Z" fill="white"/>
<path d="M52.462 59.9563L56.6808 48.183H58.8392L54.9639 59.9563H52.462ZM61.0958 59.9563L57.2368 48.183H59.4933L63.7121 59.9563H61.0958ZM54.6859 55.3942H61.292V57.3564H54.6859V55.3942Z" fill="white"/>
<path d="M70.4871 59.9563V48.183H73.7411L78.9737 58.5828L78.1724 58.779V48.183H80.6252V59.9563H77.3712L72.1386 49.5566L72.9399 49.3604V59.9563H70.4871Z" fill="white"/>
<path d="M87.8155 59.9563V48.183H90.3337V59.9563H87.8155Z" fill="white"/>
<path d="M103.103 60.1198C102.253 60.1198 101.468 59.9726 100.748 59.6783C100.029 59.3731 99.4019 58.9479 98.8678 58.4029C98.3445 57.8578 97.9357 57.2147 97.6414 56.4734C97.3471 55.7212 97.1999 54.9036 97.1999 54.0206C97.1999 53.1376 97.3416 52.3309 97.6251 51.6006C97.9194 50.8702 98.3282 50.2379 98.8514 49.7038C99.3856 49.1587 100.012 48.7445 100.732 48.461C101.451 48.1667 102.242 48.0195 103.103 48.0195C104.073 48.0195 104.945 48.2103 105.719 48.5918C106.504 48.9625 107.142 49.4912 107.632 50.178C108.134 50.8538 108.439 51.6496 108.548 52.5653H106.095C105.954 51.7259 105.61 51.0937 105.065 50.6685C104.52 50.2325 103.871 50.0144 103.119 50.0144C102.454 50.0144 101.866 50.1725 101.353 50.4886C100.852 50.8048 100.459 51.2626 100.176 51.8622C99.8925 52.4509 99.7508 53.1649 99.7508 54.0043C99.7508 54.8546 99.8925 55.5904 100.176 56.2117C100.47 56.8222 100.874 57.2964 101.386 57.6343C101.898 57.9614 102.487 58.1249 103.152 58.1249C103.861 58.1249 104.487 57.9123 105.032 57.4872C105.577 57.062 105.932 56.4298 106.095 55.5904H108.581C108.439 56.5061 108.117 57.3073 107.616 57.9941C107.115 58.67 106.477 59.1932 105.703 59.5639C104.929 59.9345 104.062 60.1198 103.103 60.1198Z" fill="white"/>
<path d="M124.024 59.9563V48.183H126.542V59.9563H124.024ZM125.201 55.3942V53.4647H131.954V55.3942H125.201ZM125.201 50.1126V48.183H132.331V50.1126H125.201Z" fill="white"/>
<path d="M137.59 59.9563L141.809 48.183H143.967L140.092 59.9563H137.59ZM146.223 59.9563L142.364 48.183H144.621L148.84 59.9563H146.223ZM139.814 55.3942H146.42V57.3564H139.814V55.3942Z" fill="white"/>
<path d="M155.342 59.9563V48.183H160.607C161.457 48.183 162.199 48.3302 162.831 48.6245C163.463 48.908 163.954 49.3113 164.303 49.8346C164.651 50.3578 164.826 50.9683 164.826 51.666C164.826 52.3527 164.651 52.9578 164.303 53.481C163.954 53.9934 163.463 54.3967 162.831 54.691C162.199 54.9745 161.457 55.1162 160.607 55.1162H157.337V53.2684H160.542C161.141 53.2684 161.599 53.1322 161.915 52.8596C162.242 52.5762 162.406 52.1838 162.406 51.6823C162.406 51.17 162.248 50.783 161.932 50.5213C161.615 50.2488 161.152 50.1126 160.542 50.1126H157.86V59.9563H155.342ZM161.981 59.9563L157.255 53.8407H159.92L165.382 59.9563H161.981Z" fill="white"/>
<path d="M171.889 59.9563V48.183H175.814L179.084 59.5312H177.661L180.932 48.183H184.873V59.9563H182.387V48.8862H182.812L179.624 59.9563H177.024L173.868 48.9843H174.277V59.9563H171.889Z" fill="white"/>
</svg>
