<svg width="137" height="45" viewBox="0 0 137 45" fill="none" xmlns="http://www.w3.org/2000/svg">
<mask id="mask0_384_2188" style="mask-type:luminance" maskUnits="userSpaceOnUse" x="2" y="11" width="32" height="15">
<path d="M17.8435 11.4419C11.6089 11.4419 7.15855 15.049 4.82919 20.5906L2.55542 26H9.47488L11.6732 20.7703C13.3815 17.4754 16.8234 15.2239 20.7915 15.2239C23.1357 15.2239 25.4666 16.2705 27.0873 17.8913C22.5549 14.8411 16.3009 16.4146 13.7652 21.3057C18.2403 29.0542 29.0188 21.5811 33.1316 25.9999L30.8205 20.5014C28.5102 15.0058 23.9992 11.4419 17.8435 11.4419Z" fill="white"/>
</mask>
<g mask="url(#mask0_384_2188)">
<path d="M33.1316 11.4419H2.55542V29.0542H33.1316V11.4419Z" fill="#11A21B"/>
</g>
<mask id="mask1_384_2188" style="mask-type:luminance" maskUnits="userSpaceOnUse" x="13" y="17" width="21" height="9">
<path d="M17.842 17.3008C16.1569 18.1357 14.7055 19.4924 13.7653 21.3057C18.2403 29.0542 29.0189 21.5812 33.1316 26L32.833 25.2898C31.612 22.7003 26.8792 21.9622 21.5695 22.2428C17.4687 22.4595 15.7795 18.8418 17.842 17.3008Z" fill="white"/>
</mask>
<g mask="url(#mask1_384_2188)">
<path d="M33.1316 17.3008H13.7653V29.0542H33.1316V17.3008Z" fill="#11A21B"/>
</g>
<mask id="mask2_384_2188" style="mask-type:luminance" maskUnits="userSpaceOnUse" x="2" y="11" width="28" height="15">
<path d="M17.8435 11.4419C11.6089 11.4419 7.15855 15.049 4.82919 20.5906L2.55542 26H6.01512C10.4695 9.37653 24.2903 11.2763 29.1277 17.3807C26.5922 13.6952 22.7378 11.4419 17.8435 11.4419Z" fill="white"/>
</mask>
<g mask="url(#mask2_384_2188)">
<path d="M29.1277 9.37656H2.55542V26H29.1277V9.37656Z" fill="#11A21B"/>
</g>
<mask id="mask3_384_2188" style="mask-type:luminance" maskUnits="userSpaceOnUse" x="7" y="0" width="21" height="14">
<path d="M17.8436 9.86669C21.614 9.86669 25.169 11.2358 27.9225 13.6072L22.2029 0H17.8436H13.4842L7.76465 13.6072C10.5182 11.2358 14.0731 9.86669 17.8436 9.86669Z" fill="white"/>
</mask>
<g mask="url(#mask3_384_2188)">
<path d="M27.9225 0H7.76465V13.6072H27.9225V0Z" fill="#11A21B"/>
</g>
<mask id="mask4_384_2188" style="mask-type:luminance" maskUnits="userSpaceOnUse" x="7" y="6" width="21" height="8">
<path d="M17.8436 9.86669C21.614 9.86669 25.169 11.2358 27.9225 13.6072L25.446 7.71558C20.3466 5.45016 12.8561 6.20158 7.76465 13.6072C10.5182 11.2358 14.0731 9.86669 17.8436 9.86669Z" fill="white"/>
</mask>
<g mask="url(#mask4_384_2188)">
<path d="M27.9225 5.45011H7.76465V13.6072H27.9225V5.45011Z" fill="#11A21B"/>
</g>
<mask id="mask5_384_2188" style="mask-type:luminance" maskUnits="userSpaceOnUse" x="0" y="5" width="7" height="14">
<path d="M4.45397 18.675C8.8568 11.7084 5.7649 5.27222 0.00012207 5.49711C2.1323 8.52962 -2.21553 14.2867 3.87006 16.1693C3.87006 16.1693 5.19319 13.0165 3.4466 9.43261C4.81102 10.3272 6.4088 13.7568 4.45397 18.675Z" fill="white"/>
</mask>
<g mask="url(#mask5_384_2188)">
<path d="M9.61801 18.6316L8.82092 4.64334L-2.97681 5.31561L-2.17972 19.3039L9.61801 18.6316Z" fill="#11A21B"/>
</g>
<mask id="mask6_384_2188" style="mask-type:luminance" maskUnits="userSpaceOnUse" x="0" y="5" width="4" height="12">
<path d="M0 5.4971C2.13224 8.52974 -2.21547 14.2866 3.86999 16.1692C-0.024758 12.8716 3.90527 6.58993 0 5.4971Z" fill="white"/>
</mask>
<g mask="url(#mask6_384_2188)">
<path d="M3.90523 5.49709H-2.21558V16.1692H3.90523V5.49709Z" fill="#11A21B"/>
</g>
<path d="M45.2169 26C42.4889 26 40.1456 25.4613 38.1871 24.3838C36.2285 23.3063 34.713 21.7955 33.6405 19.8513C32.5913 17.9072 32.0667 15.6351 32.0667 13.0351C32.0667 10.4586 32.6029 8.1982 33.6755 6.25405C34.748 4.28648 36.2285 2.75225 38.1171 1.65135C40.0291 0.55045 42.2441 0 44.7622 0C46.8373 0 48.6909 0.374775 50.323 1.12432C51.9785 1.87387 53.3075 2.9045 54.3101 4.21622C55.336 5.5045 55.9422 7.0036 56.1287 8.71351H50.7427C50.5096 7.33153 49.8567 6.25405 48.7842 5.48108C47.735 4.68468 46.4176 4.28648 44.8321 4.28648C43.3632 4.28648 42.0809 4.63784 40.985 5.34054C39.8892 6.01982 39.0381 7.0036 38.4319 8.29189C37.8257 9.58018 37.5226 11.1261 37.5226 12.9297C37.5226 14.8036 37.8257 16.4081 38.4319 17.7432C39.0381 19.0549 39.9241 20.0622 41.0899 20.7649C42.279 21.4441 43.7363 21.7838 45.4617 21.7838C46.8606 21.7838 48.0497 21.6081 49.029 21.2568C50.0083 20.9054 50.7544 20.4135 51.2673 19.7811L56.3735 21.8189C55.0212 23.1775 53.4474 24.2198 51.6521 24.9459C49.88 25.6486 47.735 26 45.2169 26ZM50.9876 21.8189V14.8622L52.0717 15.9513H45.4267V11.8054H56.3735V21.8189H50.9876Z" fill="#11A21B"/>
<path d="M59.1982 25.6486V0.351351H70.4598C72.2785 0.351351 73.864 0.667567 75.2163 1.3C76.5686 1.90901 77.6178 2.77567 78.3639 3.9C79.1101 5.02432 79.4831 6.33603 79.4831 7.83513C79.4831 9.31081 79.1101 10.6108 78.3639 11.7351C77.6178 12.836 76.5686 13.7027 75.2163 14.3351C73.864 14.9441 72.2785 15.2486 70.4598 15.2486H63.4651V11.2784H70.3199C71.6023 11.2784 72.5816 10.9856 73.2578 10.4C73.9572 9.79099 74.307 8.94775 74.307 7.87027C74.307 6.76937 73.9689 5.93784 73.2927 5.37567C72.6166 4.79009 71.6256 4.49729 70.3199 4.49729H64.5842V25.6486H59.1982ZM73.3977 25.6486L63.2902 12.5081H68.9909L80.6722 25.6486H73.3977Z" fill="#11A21B"/>
<path d="M82.6996 25.6486V0.351351H88.0856V25.6486H82.6996Z" fill="#11A21B"/>
<path d="M99.6937 25.6486L90.6704 0.351351H96.2662L103.156 21.4324H102.492L109.416 0.351351H114.732L105.709 25.6486H99.6937Z" fill="#11A21B"/>
<path d="M112.017 25.6486L121.04 0.351351H125.657L117.368 25.6486H112.017ZM130.483 25.6486L122.229 0.351351H127.056L136.079 25.6486H130.483ZM116.773 15.8459H130.903V20.0622H116.773V15.8459Z" fill="#11A21B"/>
<path d="M4.428 44.12C3.788 44.12 3.196 44.012 2.652 43.796C2.116 43.58 1.648 43.276 1.248 42.884C0.856 42.484 0.548 42.012 0.324 41.468C0.108 40.916 0 40.308 0 39.644C0 38.764 0.188 37.996 0.564 37.34C0.94 36.676 1.46 36.16 2.124 35.792C2.796 35.424 3.56 35.24 4.416 35.24C5.288 35.24 6.056 35.424 6.72 35.792C7.384 36.16 7.904 36.676 8.28 37.34C8.664 38.004 8.856 38.776 8.856 39.656C8.856 40.312 8.744 40.916 8.52 41.468C8.304 42.012 7.996 42.484 7.596 42.884C7.204 43.276 6.736 43.58 6.192 43.796C5.656 44.012 5.068 44.12 4.428 44.12ZM4.416 42.656C4.92 42.656 5.364 42.528 5.748 42.272C6.132 42.016 6.432 41.664 6.648 41.216C6.872 40.76 6.984 40.232 6.984 39.632C6.984 39.04 6.876 38.524 6.66 38.084C6.444 37.644 6.144 37.304 5.76 37.064C5.376 36.824 4.928 36.704 4.416 36.704C3.912 36.704 3.468 36.824 3.084 37.064C2.7 37.304 2.4 37.644 2.184 38.084C1.976 38.516 1.872 39.032 1.872 39.632C1.872 40.24 1.98 40.772 2.196 41.228C2.412 41.676 2.712 42.028 3.096 42.284C3.48 42.532 3.92 42.656 4.416 42.656Z" fill="#11A21B"/>
<path d="M13.8462 44V35.36H17.7102C18.3342 35.36 18.8782 35.468 19.3422 35.684C19.8062 35.892 20.1662 36.188 20.4222 36.572C20.6782 36.956 20.8062 37.404 20.8062 37.916C20.8062 38.42 20.6782 38.864 20.4222 39.248C20.1662 39.624 19.8062 39.92 19.3422 40.136C18.8782 40.344 18.3342 40.448 17.7102 40.448H15.3102V39.092H17.6622C18.1022 39.092 18.4382 38.992 18.6702 38.792C18.9102 38.584 19.0302 38.296 19.0302 37.928C19.0302 37.552 18.9142 37.268 18.6822 37.076C18.4502 36.876 18.1102 36.776 17.6622 36.776H15.6942V44H13.8462ZM18.7182 44L15.2502 39.512H17.2062L21.2142 44H18.7182Z" fill="#11A21B"/>
<path d="M30.1212 44.12C29.1852 44.12 28.3812 43.936 27.7092 43.568C27.0372 43.2 26.5172 42.684 26.1492 42.02C25.7892 41.356 25.6092 40.58 25.6092 39.692C25.6092 38.812 25.7932 38.04 26.1612 37.376C26.5292 36.704 27.0372 36.18 27.6852 35.804C28.3412 35.428 29.1012 35.24 29.9652 35.24C30.6772 35.24 31.3132 35.368 31.8732 35.624C32.4412 35.88 32.8972 36.232 33.2412 36.68C33.5932 37.12 33.8012 37.632 33.8652 38.216H32.0172C31.9372 37.744 31.7132 37.376 31.3452 37.112C30.9852 36.84 30.5332 36.704 29.9892 36.704C29.4852 36.704 29.0452 36.824 28.6692 37.064C28.2932 37.296 28.0012 37.632 27.7932 38.072C27.5852 38.512 27.4812 39.04 27.4812 39.656C27.4812 40.296 27.5852 40.844 27.7932 41.3C28.0012 41.748 28.3052 42.092 28.7052 42.332C29.1132 42.564 29.6132 42.68 30.2052 42.68C30.6852 42.68 31.0932 42.62 31.4292 42.5C31.7652 42.38 32.0212 42.212 32.1972 41.996L33.9492 42.692C33.4852 43.156 32.9452 43.512 32.3292 43.76C31.7212 44 30.9852 44.12 30.1212 44.12ZM32.1012 42.692V40.316L32.4732 40.688H30.1932V39.272H33.9492V42.692H32.1012Z" fill="#11A21B"/>
<path d="M38.5 44L41.596 35.36H43.18L40.336 44H38.5ZM44.836 44L42.004 35.36H43.66L46.756 44H44.836ZM40.132 40.652H44.98V42.092H40.132V40.652Z" fill="#11A21B"/>
<path d="M51.728 44V35.36H54.116L57.956 42.992L57.368 43.136V35.36H59.168V44H56.78L52.94 36.368L53.528 36.224V44H51.728Z" fill="#11A21B"/>
<path d="M64.4447 44V35.36H66.2927V44H64.4447Z" fill="#11A21B"/>
<path d="M75.6636 44.12C75.0396 44.12 74.4636 44.012 73.9356 43.796C73.4076 43.572 72.9476 43.26 72.5556 42.86C72.1716 42.46 71.8716 41.988 71.6556 41.444C71.4396 40.892 71.3316 40.292 71.3316 39.644C71.3316 38.996 71.4356 38.404 71.6436 37.868C71.8596 37.332 72.1596 36.868 72.5436 36.476C72.9356 36.076 73.3956 35.772 73.9236 35.564C74.4516 35.348 75.0316 35.24 75.6636 35.24C76.3756 35.24 77.0156 35.38 77.5836 35.66C78.1596 35.932 78.6276 36.32 78.9876 36.824C79.3556 37.32 79.5796 37.904 79.6596 38.576H77.8596C77.7556 37.96 77.5036 37.496 77.1036 37.184C76.7036 36.864 76.2276 36.704 75.6756 36.704C75.1876 36.704 74.7556 36.82 74.3796 37.052C74.0116 37.284 73.7236 37.62 73.5156 38.06C73.3076 38.492 73.2036 39.016 73.2036 39.632C73.2036 40.256 73.3076 40.796 73.5156 41.252C73.7316 41.7 74.0276 42.048 74.4036 42.296C74.7796 42.536 75.2116 42.656 75.6996 42.656C76.2196 42.656 76.6796 42.5 77.0796 42.188C77.4796 41.876 77.7396 41.412 77.8596 40.796H79.6836C79.5796 41.468 79.3436 42.056 78.9756 42.56C78.6076 43.056 78.1396 43.44 77.5716 43.712C77.0036 43.984 76.3676 44.12 75.6636 44.12Z" fill="#11A21B"/>
<path d="M91.0167 44V35.36H92.8647V44H91.0167ZM91.8807 40.652V39.236H96.8367V40.652H91.8807ZM91.8807 36.776V35.36H97.1127V36.776H91.8807Z" fill="#11A21B"/>
<path d="M100.972 44L104.068 35.36H105.652L102.808 44H100.972ZM107.308 44L104.476 35.36H106.132L109.228 44H107.308ZM102.604 40.652H107.452V42.092H102.604V40.652Z" fill="#11A21B"/>
<path d="M114 44V35.36H117.864C118.488 35.36 119.032 35.468 119.496 35.684C119.96 35.892 120.32 36.188 120.576 36.572C120.832 36.956 120.96 37.404 120.96 37.916C120.96 38.42 120.832 38.864 120.576 39.248C120.32 39.624 119.96 39.92 119.496 40.136C119.032 40.344 118.488 40.448 117.864 40.448H115.464V39.092H117.816C118.256 39.092 118.592 38.992 118.824 38.792C119.064 38.584 119.184 38.296 119.184 37.928C119.184 37.552 119.068 37.268 118.836 37.076C118.604 36.876 118.264 36.776 117.816 36.776H115.848V44H114ZM118.872 44L115.404 39.512H117.36L121.368 44H118.872Z" fill="#11A21B"/>
<path d="M126.143 44V35.36H129.023L131.423 43.688H130.379L132.779 35.36H135.671V44H133.847V35.876H134.159L131.819 44H129.911L127.595 35.948H127.895V44H126.143Z" fill="#11A21B"/>
</svg>
