<svg width="137" height="45" viewBox="0 0 137 45" fill="none" xmlns="http://www.w3.org/2000/svg">
<mask id="mask0_96_85" style="mask-type:luminance" maskUnits="userSpaceOnUse" x="2" y="11" width="32" height="15">
<path d="M17.8435 11.4414C11.6089 11.4414 7.15855 15.0485 4.82919 20.5901L2.55542 25.9995H9.47488L11.6732 20.7699C13.3815 17.4749 16.8234 15.2234 20.7915 15.2234C23.1357 15.2234 25.4666 16.27 27.0873 17.8908C22.5549 14.8406 16.3009 16.4141 13.7652 21.3052C18.2403 29.0537 29.0188 21.5806 33.1316 25.9995L30.8205 20.5009C28.5102 15.0053 23.9992 11.4414 17.8435 11.4414Z" fill="white"/>
</mask>
<g mask="url(#mask0_96_85)">
<path d="M33.1316 11.4414H2.55542V29.0537H33.1316V11.4414Z" fill="white"/>
</g>
<mask id="mask1_96_85" style="mask-type:luminance" maskUnits="userSpaceOnUse" x="13" y="17" width="21" height="9">
<path d="M17.8419 17.3008C16.1568 18.1357 14.7054 19.4924 13.7651 21.3058C18.2402 29.0542 29.0188 21.5812 33.1315 26L32.8329 25.2898C31.6118 22.7003 26.8791 21.9622 21.5694 22.2428C17.4685 22.4595 15.7794 18.8418 17.8419 17.3008Z" fill="white"/>
</mask>
<g mask="url(#mask1_96_85)">
<path d="M33.1315 17.3008H13.7651V29.0542H33.1315V17.3008Z" fill="white"/>
</g>
<mask id="mask2_96_85" style="mask-type:luminance" maskUnits="userSpaceOnUse" x="2" y="11" width="28" height="15">
<path d="M17.8435 11.4414C11.6089 11.4414 7.15855 15.0485 4.82919 20.5901L2.55542 25.9995H6.01512C10.4695 9.37605 24.2903 11.2758 29.1277 17.3802C26.5922 13.6947 22.7378 11.4414 17.8435 11.4414Z" fill="white"/>
</mask>
<g mask="url(#mask2_96_85)">
<path d="M29.1277 9.37598H2.55542V25.9994H29.1277V9.37598Z" fill="white"/>
</g>
<mask id="mask3_96_85" style="mask-type:luminance" maskUnits="userSpaceOnUse" x="7" y="0" width="21" height="14">
<path d="M17.8436 9.86669C21.614 9.86669 25.169 11.2358 27.9225 13.6072L22.2029 0H17.8436H13.4842L7.76465 13.6072C10.5182 11.2358 14.0731 9.86669 17.8436 9.86669Z" fill="white"/>
</mask>
<g mask="url(#mask3_96_85)">
<path d="M27.9225 0H7.76465V13.6072H27.9225V0Z" fill="white"/>
</g>
<mask id="mask4_96_85" style="mask-type:luminance" maskUnits="userSpaceOnUse" x="7" y="6" width="21" height="8">
<path d="M17.8436 9.86712C21.614 9.86712 25.169 11.2362 27.9225 13.6077L25.446 7.71601C20.3466 5.45059 12.8561 6.20201 7.76465 13.6077C10.5182 11.2362 14.0731 9.86712 17.8436 9.86712Z" fill="white"/>
</mask>
<g mask="url(#mask4_96_85)">
<path d="M27.9225 5.4502H7.76465V13.6073H27.9225V5.4502Z" fill="white"/>
</g>
<mask id="mask5_96_85" style="mask-type:luminance" maskUnits="userSpaceOnUse" x="0" y="5" width="7" height="14">
<path d="M4.45385 18.6748C8.85668 11.7083 5.76478 5.27205 0 5.49694C2.13218 8.52945 -2.21565 14.2865 3.86994 16.1691C3.86994 16.1691 5.19307 13.0163 3.44648 9.43244C4.8109 10.327 6.40868 13.7566 4.45385 18.6748Z" fill="white"/>
</mask>
<g mask="url(#mask5_96_85)">
<path d="M9.61776 18.6318L8.82068 4.64355L-2.97705 5.31582L-2.17997 19.3041L9.61776 18.6318Z" fill="white"/>
</g>
<mask id="mask6_96_85" style="mask-type:luminance" maskUnits="userSpaceOnUse" x="0" y="5" width="4" height="12">
<path d="M0 5.49707C2.13224 8.52971 -2.21547 14.2866 3.86999 16.1692C-0.024758 12.8716 3.90527 6.5899 0 5.49707Z" fill="white"/>
</mask>
<g mask="url(#mask6_96_85)">
<path d="M3.90523 5.49707H-2.21558V16.1692H3.90523V5.49707Z" fill="white"/>
</g>
<path d="M45.2169 26C42.4889 26 40.1456 25.4613 38.1871 24.3838C36.2285 23.3063 34.713 21.7955 33.6405 19.8513C32.5913 17.9072 32.0667 15.6351 32.0667 13.0351C32.0667 10.4586 32.6029 8.1982 33.6755 6.25405C34.748 4.28648 36.2285 2.75225 38.1171 1.65135C40.0291 0.55045 42.2441 0 44.7622 0C46.8373 0 48.6909 0.374775 50.323 1.12432C51.9785 1.87387 53.3075 2.9045 54.3101 4.21622C55.336 5.5045 55.9422 7.0036 56.1287 8.71351H50.7427C50.5096 7.33153 49.8567 6.25405 48.7842 5.48108C47.735 4.68468 46.4176 4.28648 44.8321 4.28648C43.3632 4.28648 42.0809 4.63784 40.985 5.34054C39.8892 6.01982 39.0381 7.0036 38.4319 8.29189C37.8257 9.58018 37.5226 11.1261 37.5226 12.9297C37.5226 14.8036 37.8257 16.4081 38.4319 17.7432C39.0381 19.0549 39.9241 20.0622 41.0899 20.7649C42.279 21.4441 43.7363 21.7838 45.4617 21.7838C46.8606 21.7838 48.0497 21.6081 49.029 21.2568C50.0083 20.9054 50.7544 20.4135 51.2673 19.7811L56.3735 21.8189C55.0212 23.1775 53.4474 24.2198 51.6521 24.9459C49.88 25.6486 47.735 26 45.2169 26ZM50.9876 21.8189V14.8622L52.0717 15.9513H45.4267V11.8054H56.3735V21.8189H50.9876Z" fill="white"/>
<path d="M59.1982 25.6486V0.351351H70.4598C72.2785 0.351351 73.864 0.667567 75.2163 1.3C76.5686 1.90901 77.6178 2.77567 78.3639 3.9C79.1101 5.02432 79.4831 6.33603 79.4831 7.83513C79.4831 9.31081 79.1101 10.6108 78.3639 11.7351C77.6178 12.836 76.5686 13.7027 75.2163 14.3351C73.864 14.9441 72.2785 15.2486 70.4598 15.2486H63.4651V11.2784H70.3199C71.6023 11.2784 72.5816 10.9856 73.2578 10.4C73.9572 9.79099 74.307 8.94775 74.307 7.87027C74.307 6.76937 73.9689 5.93784 73.2927 5.37567C72.6166 4.79009 71.6256 4.49729 70.3199 4.49729H64.5842V25.6486H59.1982ZM73.3977 25.6486L63.2902 12.5081H68.9909L80.6722 25.6486H73.3977Z" fill="white"/>
<path d="M82.6996 25.6486V0.351351H88.0856V25.6486H82.6996Z" fill="white"/>
<path d="M99.6937 25.6486L90.6704 0.351351H96.2662L103.156 21.4324H102.492L109.416 0.351351H114.732L105.709 25.6486H99.6937Z" fill="white"/>
<path d="M112.017 25.6486L121.04 0.351351H125.657L117.368 25.6486H112.017ZM130.483 25.6486L122.229 0.351351H127.056L136.079 25.6486H130.483ZM116.773 15.8459H130.903V20.0622H116.773V15.8459Z" fill="white"/>
<path d="M4.428 44.1202C3.788 44.1202 3.196 44.0122 2.652 43.7962C2.116 43.5802 1.648 43.2762 1.248 42.8842C0.856 42.4842 0.548 42.0122 0.324 41.4682C0.108 40.9162 0 40.3082 0 39.6442C0 38.7642 0.188 37.9962 0.564 37.3402C0.94 36.6762 1.46 36.1602 2.124 35.7922C2.796 35.4242 3.56 35.2402 4.416 35.2402C5.288 35.2402 6.056 35.4242 6.72 35.7922C7.384 36.1602 7.904 36.6762 8.28 37.3402C8.664 38.0042 8.856 38.7762 8.856 39.6562C8.856 40.3122 8.744 40.9162 8.52 41.4682C8.304 42.0122 7.996 42.4842 7.596 42.8842C7.204 43.2762 6.736 43.5802 6.192 43.7962C5.656 44.0122 5.068 44.1202 4.428 44.1202ZM4.416 42.6562C4.92 42.6562 5.364 42.5282 5.748 42.2722C6.132 42.0162 6.432 41.6642 6.648 41.2162C6.872 40.7602 6.984 40.2322 6.984 39.6322C6.984 39.0402 6.876 38.5242 6.66 38.0842C6.444 37.6442 6.144 37.3042 5.76 37.0642C5.376 36.8242 4.928 36.7042 4.416 36.7042C3.912 36.7042 3.468 36.8242 3.084 37.0642C2.7 37.3042 2.4 37.6442 2.184 38.0842C1.976 38.5162 1.872 39.0322 1.872 39.6322C1.872 40.2402 1.98 40.7722 2.196 41.2282C2.412 41.6762 2.712 42.0282 3.096 42.2842C3.48 42.5322 3.92 42.6562 4.416 42.6562Z" fill="white"/>
<path d="M13.8462 44.0002V35.3602H17.7102C18.3342 35.3602 18.8782 35.4682 19.3422 35.6842C19.8062 35.8922 20.1662 36.1882 20.4222 36.5722C20.6782 36.9562 20.8062 37.4042 20.8062 37.9162C20.8062 38.4202 20.6782 38.8642 20.4222 39.2482C20.1662 39.6242 19.8062 39.9202 19.3422 40.1362C18.8782 40.3442 18.3342 40.4482 17.7102 40.4482H15.3102V39.0922H17.6622C18.1022 39.0922 18.4382 38.9922 18.6702 38.7922C18.9102 38.5842 19.0302 38.2962 19.0302 37.9282C19.0302 37.5522 18.9142 37.2682 18.6822 37.0762C18.4502 36.8762 18.1102 36.7762 17.6622 36.7762H15.6942V44.0002H13.8462ZM18.7182 44.0002L15.2502 39.5122H17.2062L21.2142 44.0002H18.7182Z" fill="white"/>
<path d="M30.1212 44.1202C29.1852 44.1202 28.3812 43.9362 27.7092 43.5682C27.0372 43.2002 26.5172 42.6842 26.1492 42.0202C25.7892 41.3562 25.6092 40.5802 25.6092 39.6922C25.6092 38.8122 25.7932 38.0402 26.1612 37.3762C26.5292 36.7042 27.0372 36.1802 27.6852 35.8042C28.3412 35.4282 29.1012 35.2402 29.9652 35.2402C30.6772 35.2402 31.3132 35.3682 31.8732 35.6242C32.4412 35.8802 32.8972 36.2322 33.2412 36.6802C33.5932 37.1202 33.8012 37.6322 33.8652 38.2162H32.0172C31.9372 37.7442 31.7132 37.3762 31.3452 37.1122C30.9852 36.8402 30.5332 36.7042 29.9892 36.7042C29.4852 36.7042 29.0452 36.8242 28.6692 37.0642C28.2932 37.2962 28.0012 37.6322 27.7932 38.0722C27.5852 38.5122 27.4812 39.0402 27.4812 39.6562C27.4812 40.2962 27.5852 40.8442 27.7932 41.3002C28.0012 41.7482 28.3052 42.0922 28.7052 42.3322C29.1132 42.5642 29.6132 42.6802 30.2052 42.6802C30.6852 42.6802 31.0932 42.6202 31.4292 42.5002C31.7652 42.3802 32.0212 42.2122 32.1972 41.9962L33.9492 42.6922C33.4852 43.1562 32.9452 43.5122 32.3292 43.7602C31.7212 44.0002 30.9852 44.1202 30.1212 44.1202ZM32.1012 42.6922V40.3162L32.4732 40.6882H30.1932V39.2722H33.9492V42.6922H32.1012Z" fill="white"/>
<path d="M38.5 44.0002L41.596 35.3602H43.18L40.336 44.0002H38.5ZM44.836 44.0002L42.004 35.3602H43.66L46.756 44.0002H44.836ZM40.132 40.6522H44.98V42.0922H40.132V40.6522Z" fill="white"/>
<path d="M51.728 44.0002V35.3602H54.116L57.956 42.9922L57.368 43.1362V35.3602H59.168V44.0002H56.78L52.94 36.3682L53.528 36.2242V44.0002H51.728Z" fill="white"/>
<path d="M64.4447 44.0002V35.3602H66.2927V44.0002H64.4447Z" fill="white"/>
<path d="M75.6636 44.1202C75.0396 44.1202 74.4636 44.0122 73.9356 43.7962C73.4076 43.5722 72.9476 43.2602 72.5556 42.8602C72.1716 42.4602 71.8716 41.9882 71.6556 41.4442C71.4396 40.8922 71.3316 40.2922 71.3316 39.6442C71.3316 38.9962 71.4356 38.4042 71.6436 37.8682C71.8596 37.3322 72.1596 36.8682 72.5436 36.4762C72.9356 36.0762 73.3956 35.7722 73.9236 35.5642C74.4516 35.3482 75.0316 35.2402 75.6636 35.2402C76.3756 35.2402 77.0156 35.3802 77.5836 35.6602C78.1596 35.9322 78.6276 36.3202 78.9876 36.8242C79.3556 37.3202 79.5796 37.9042 79.6596 38.5762H77.8596C77.7556 37.9602 77.5036 37.4962 77.1036 37.1842C76.7036 36.8642 76.2276 36.7042 75.6756 36.7042C75.1876 36.7042 74.7556 36.8202 74.3796 37.0522C74.0116 37.2842 73.7236 37.6202 73.5156 38.0602C73.3076 38.4922 73.2036 39.0162 73.2036 39.6322C73.2036 40.2562 73.3076 40.7962 73.5156 41.2522C73.7316 41.7002 74.0276 42.0482 74.4036 42.2962C74.7796 42.5362 75.2116 42.6562 75.6996 42.6562C76.2196 42.6562 76.6796 42.5002 77.0796 42.1882C77.4796 41.8762 77.7396 41.4122 77.8596 40.7962H79.6836C79.5796 41.4682 79.3436 42.0562 78.9756 42.5602C78.6076 43.0562 78.1396 43.4402 77.5716 43.7122C77.0036 43.9842 76.3676 44.1202 75.6636 44.1202Z" fill="white"/>
<path d="M91.0167 44.0002V35.3602H92.8647V44.0002H91.0167ZM91.8807 40.6522V39.2362H96.8367V40.6522H91.8807ZM91.8807 36.7762V35.3602H97.1127V36.7762H91.8807Z" fill="white"/>
<path d="M100.972 44.0002L104.068 35.3602H105.652L102.808 44.0002H100.972ZM107.308 44.0002L104.476 35.3602H106.132L109.228 44.0002H107.308ZM102.604 40.6522H107.452V42.0922H102.604V40.6522Z" fill="white"/>
<path d="M114 44.0002V35.3602H117.864C118.488 35.3602 119.032 35.4682 119.496 35.6842C119.96 35.8922 120.32 36.1882 120.576 36.5722C120.832 36.9562 120.96 37.4042 120.96 37.9162C120.96 38.4202 120.832 38.8642 120.576 39.2482C120.32 39.6242 119.96 39.9202 119.496 40.1362C119.032 40.3442 118.488 40.4482 117.864 40.4482H115.464V39.0922H117.816C118.256 39.0922 118.592 38.9922 118.824 38.7922C119.064 38.5842 119.184 38.2962 119.184 37.9282C119.184 37.5522 119.068 37.2682 118.836 37.0762C118.604 36.8762 118.264 36.7762 117.816 36.7762H115.848V44.0002H114ZM118.872 44.0002L115.404 39.5122H117.36L121.368 44.0002H118.872Z" fill="white"/>
<path d="M126.143 44.0002V35.3602H129.023L131.423 43.6882H130.379L132.779 35.3602H135.671V44.0002H133.847V35.8762H134.159L131.819 44.0002H129.911L127.595 35.9482H127.895V44.0002H126.143Z" fill="white"/>
</svg>
