<svg width="50" height="50" viewBox="0 0 50 50" fill="none" xmlns="http://www.w3.org/2000/svg">
<g clip-path="url(#clip0_454_332)">
<path d="M45 5H42.5V2.5C42.5 1 41.5 0 40 0C38.5 0 37.5 1 37.5 2.5V5H12.5V2.5C12.5 1 11.5 0 10 0C8.5 0 7.5 1 7.5 2.5V5H2.5C1.25 5 0 6 0 7.5V42.5C0 44 1.25 45 2.5 45H17.75C16 42 15 38.5 15 35C15 24 24 15 35 15C39.75 15 44 16.75 47.5 19.5V7.5C47.5 6.25 46.25 5 45 5Z" fill="#11A21B"/>
<path d="M35 20C26.75 20 20 26.75 20 35C20 43.25 26.75 50 35 50C43.25 50 50 43.25 50 35C50 26.75 43.25 20 35 20ZM40 37.5H35C33.5 37.5 32.5 36.5 32.5 35V27.5C32.5 26 33.5 25 35 25C36.5 25 37.5 26 37.5 27.5V32.5H40C41.5 32.5 42.5 33.5 42.5 35C42.5 36.5 41.5 37.5 40 37.5Z" fill="#11A21B"/>
</g>
<defs>
<clipPath id="clip0_454_332">
<rect width="50" height="50" fill="white"/>
</clipPath>
</defs>
</svg>
