<svg width="50" height="50" viewBox="0 0 50 50" fill="none" xmlns="http://www.w3.org/2000/svg">
<g clip-path="url(#clip0_454_345)">
<path d="M18.7498 9.1797C17.5224 9.17773 16.3199 9.52675 15.2843 10.1856C14.2487 10.8445 13.423 11.7858 12.9047 12.8984C12.3864 14.0111 12.1971 15.2487 12.359 16.4655C12.5209 17.6822 13.0273 18.8272 13.8186 19.7656C14.5815 20.6461 15.1011 21.7107 15.3256 22.8539H22.174C22.3988 21.7108 22.9183 20.6462 23.6811 19.7656C24.4726 18.8273 24.9793 17.6822 25.1414 16.4654C25.3035 15.2486 25.1142 14.0107 24.5958 12.898C24.0775 11.7852 23.2517 10.8439 22.2159 10.1851C21.18 9.52624 19.9774 9.1774 18.7498 9.1797Z" fill="#11A21B"/>
<path d="M18.7502 0.195313C15.4853 0.195414 12.2783 1.05713 9.45309 2.6934C6.62787 4.32968 4.2845 6.68258 2.6597 9.51441C1.03489 12.3462 0.186197 15.5567 0.199341 18.8216C0.212484 22.0864 1.087 25.2899 2.73455 28.1086L0.268146 35.4977C0.187602 35.7392 0.175924 35.9985 0.234421 36.2463C0.292917 36.4941 0.419277 36.7208 0.599338 36.9008C0.7794 37.0809 1.00605 37.2073 1.25388 37.2658C1.50172 37.3243 1.76095 37.3126 2.00252 37.232L9.39158 34.7695C11.8524 36.2072 14.6113 37.0586 17.4544 37.2578C20.2974 37.4569 23.1481 36.9985 25.7853 35.9179C28.4225 34.8374 30.7754 33.1639 32.6613 31.0272C34.5473 28.8904 35.9157 26.348 36.6603 23.597C37.405 20.846 37.5058 17.9604 36.9552 15.1641C36.4045 12.3678 35.217 9.73601 33.4849 7.47278C31.7527 5.20956 29.5225 3.37578 26.9672 2.11371C24.4119 0.85164 21.6002 0.1952 18.7502 0.195313ZM25.7697 21.5273C25.1704 22.2026 24.8287 23.0678 24.8049 23.9703V27.3438C24.8036 28.3276 24.4123 29.2707 23.7166 29.9664C23.0209 30.6621 22.0777 31.0534 21.0939 31.0547H16.4064C15.4226 31.0534 14.4794 30.6621 13.7838 29.9664C13.0881 29.2707 12.6967 28.3276 12.6955 27.3438V23.9703C12.6719 23.068 12.3301 22.203 11.7306 21.5281C10.6035 20.1907 9.88199 18.559 9.65094 16.8253C9.41989 15.0916 9.68895 13.3279 10.4264 11.742C11.164 10.156 12.3392 8.81374 13.8138 7.87319C15.2885 6.93265 17.0011 6.43296 18.7502 6.43296C20.4992 6.43296 22.2119 6.93265 23.6865 7.87319C25.1612 8.81374 26.3364 10.156 27.0739 11.742C27.8114 13.3279 28.0805 15.0916 27.8494 16.8253C27.6184 18.559 26.8968 20.1899 25.7697 21.5273Z" fill="#11A21B"/>
<path d="M15.4297 27.3438C15.4301 27.6026 15.5331 27.8508 15.7162 28.0338C15.8992 28.2169 16.1474 28.3199 16.4062 28.3203H21.0938C21.3526 28.3199 21.6008 28.2169 21.7838 28.0338C21.9669 27.8508 22.0699 27.6026 22.0703 27.3438V25.5859H15.4297V27.3438Z" fill="#11A21B"/>
<path d="M47.2696 40.6086C48.5454 38.4261 49.3615 36.0059 49.6679 33.4965C49.9743 30.9872 49.7645 28.4417 49.0514 26.0164C48.3382 23.591 47.1368 21.3371 45.5209 19.393C43.9051 17.4488 41.9088 15.8555 39.6548 14.7109C40.3153 18.1293 40.1274 21.6576 39.1075 24.9865C38.0875 28.3154 36.2667 31.3433 33.8046 33.805C31.3425 36.2666 28.3142 38.0869 24.9851 39.1062C21.656 40.1255 18.1278 40.3127 14.7095 39.6516C15.8537 41.9061 17.4468 43.903 19.3909 45.5194C21.335 47.1358 23.5891 48.3376 26.0147 49.0511C28.4403 49.7645 30.9861 49.9745 33.4958 49.6682C36.0054 49.3618 38.426 48.5455 40.6087 47.2695L47.9978 49.732C48.2393 49.8126 48.4986 49.8243 48.7464 49.7658C48.9942 49.7073 49.2209 49.5809 49.4009 49.4008C49.581 49.2208 49.7074 48.9941 49.7659 48.7463C49.8244 48.4985 49.8127 48.2392 49.7321 47.9977L47.2696 40.6086Z" fill="#11A21B"/>
</g>
<defs>
<clipPath id="clip0_454_345">
<rect width="50" height="50" fill="white"/>
</clipPath>
</defs>
</svg>
