<svg width="50" height="50" viewBox="0 0 50 50" fill="none" xmlns="http://www.w3.org/2000/svg">
<g clip-path="url(#clip0_454_361)">
<path d="M32.2539 5.27306C32.0837 4.73824 31.6218 4.34761 31.0652 4.26903L27.7735 3.80135L26.3075 0.740433C25.8093 -0.246811 24.1904 -0.246811 23.6925 0.740433L22.2262 3.80135L18.9345 4.26903C18.3779 4.34761 17.9159 4.73824 17.7458 5.27306C17.5741 5.80826 17.7241 6.39343 18.1303 6.78101L20.4909 9.02672L19.9343 12.191C19.8385 12.7388 20.0602 13.2938 20.508 13.623C20.9624 13.9587 21.5605 13.9973 22.0473 13.7474L24.9998 12.2311L27.9539 13.7474C28.4476 14.0034 29.0453 13.9523 29.4916 13.623C29.9395 13.2927 30.1611 12.7377 30.0654 12.191L29.5088 9.02672L31.8693 6.78101C32.2756 6.39343 32.4255 5.80826 32.2539 5.27306Z" fill="#11A21B"/>
<path d="M49.9296 11.1325C49.7595 10.5977 49.2975 10.2071 48.741 10.1285L45.3516 9.66083L43.8853 6.7609C43.3874 5.77404 41.7681 5.77404 41.2703 6.7609L39.8043 9.66083L36.5126 10.1285C35.956 10.2071 35.4941 10.5977 35.3239 11.1325C35.1523 11.6677 35.3022 12.2529 35.7084 12.6405L38.069 14.8862L37.5124 18.0505C37.4167 18.5983 37.6383 19.1533 38.0861 19.4825C38.5405 19.8182 39.1382 19.8568 39.6254 19.6069L42.578 18.0905L45.5321 19.6069C46.0257 19.8644 46.6204 19.8129 47.0698 19.4825C47.5176 19.1522 47.7392 18.5971 47.6435 18.0505L47.0869 14.8862L49.5451 12.6405C49.9514 12.2529 50.1013 11.6677 49.9296 11.1325Z" fill="#11A21B"/>
<path d="M14.6757 11.1325C14.5056 10.5977 14.0436 10.2071 13.4871 10.1285L10.1954 9.66083L8.72938 6.7609C8.23118 5.77404 6.61223 5.77404 6.11441 6.7609L4.64804 9.66083L1.25868 10.1285C0.702114 10.2071 0.240155 10.5977 0.0700192 11.1325C-0.101642 11.6677 0.0482754 12.2529 0.454541 12.6405L2.91273 14.8862L2.35617 18.0505C2.26042 18.5983 2.48205 19.1533 2.9299 19.4825C3.38423 19.8182 3.98237 19.8568 4.46913 19.6069L7.4217 18.0905L10.3758 19.6069C10.8721 19.8644 11.4641 19.8129 11.9135 19.4825C12.3614 19.1522 12.583 18.5971 12.4872 18.0505L11.9307 14.8862L14.2912 12.6405C14.6975 12.2529 14.8474 11.6677 14.6757 11.1325Z" fill="#11A21B"/>
<path d="M32.3242 25C32.3242 29.0451 29.0451 32.3242 25 32.3242C20.9549 32.3242 17.6758 29.0451 17.6758 25C17.6758 20.9549 20.9549 17.6758 25 17.6758C29.0451 17.6758 32.3242 20.9549 32.3242 25Z" fill="#11A21B"/>
<path d="M11.8164 30.8594C11.8164 33.2863 9.84879 35.2539 7.42188 35.2539C4.99496 35.2539 3.02734 33.2863 3.02734 30.8594C3.02734 28.4321 4.99496 26.4648 7.42188 26.4648C9.84879 26.4648 11.8164 28.4321 11.8164 30.8594Z" fill="#11A21B"/>
<path d="M46.9727 30.8594C46.9727 33.2863 45.005 35.2539 42.5781 35.2539C40.1512 35.2539 38.1836 33.2863 38.1836 30.8594C38.1836 28.4321 40.1512 26.4648 42.5781 26.4648C45.005 26.4648 46.9727 28.4321 46.9727 30.8594Z" fill="#11A21B"/>
<path d="M14.7461 50H35.2539V45.5078C35.2539 39.8445 30.6629 35.2539 25 35.2539C19.3371 35.2539 14.7461 39.8445 14.7461 45.5078V50Z" fill="#11A21B"/>
<path d="M43.951 38.3103C41.2705 37.817 38.8237 38.8047 37.2036 40.5659C37.825 42.0948 38.1836 43.7584 38.1836 45.5079V50H48.5352C49.3443 50 50 49.3443 50 48.5352V45.8184C50 42.239 47.4709 38.9576 43.951 38.3103Z" fill="#11A21B"/>
<path d="M1.46484 50H11.8164V45.5079C11.8164 43.7584 12.175 42.0948 12.7964 40.5659C11.1763 38.8047 8.72955 37.817 6.04897 38.3103C2.52914 38.9576 0 42.239 0 45.8184V48.5352C0 49.3443 0.655746 50 1.46484 50Z" fill="#11A21B"/>
</g>
<defs>
<clipPath id="clip0_454_361">
<rect width="50" height="50" fill="white"/>
</clipPath>
</defs>
</svg>
