<svg width="50" height="50" viewBox="0 0 50 50" fill="none" xmlns="http://www.w3.org/2000/svg">
<path d="M39.0385 32.0728L44.9621 42.3275L38.4929 41.0514C38.3076 41.0154 38.1156 41.0475 37.9521 41.1418C37.7887 41.2362 37.6648 41.3864 37.6034 41.5649L35.4776 47.8034L29.6777 37.7625C33.3483 36.8281 36.5888 34.8118 39.0385 32.0728Z" fill="#11A21B"/>
<path d="M11.0403 32.0713C13.4904 34.8115 16.7306 36.8298 20.4025 37.7641L14.6027 47.8034L12.4768 41.565C12.4154 41.3865 12.2916 41.2363 12.1281 41.1419C11.9647 41.0475 11.7726 41.0154 11.5874 41.0515L5.11816 42.3276L11.0403 32.0713Z" fill="#11A21B"/>
<path d="M25.0392 2.34448C15.5226 2.34448 7.82617 10.047 7.82617 19.5636C7.82617 29.0802 15.5226 36.7767 25.0392 36.7767C34.5558 36.7767 42.2523 29.0802 42.2523 19.5636C42.2523 10.047 34.5558 2.34448 25.0392 2.34448ZM25.0392 5.47593C32.8087 5.47593 39.1223 11.7942 39.1223 19.5636C39.1223 27.3331 32.8087 33.6468 25.0392 33.6468C17.2698 33.6468 10.9576 27.3331 10.9576 19.5636C10.9576 11.7942 17.2698 5.47593 25.0392 5.47593ZM25.0392 7.04089C18.1155 7.04089 12.5165 12.6399 12.5165 19.5636C12.5165 26.4873 18.1155 32.0803 25.0392 32.0803C31.9629 32.0803 37.5558 26.4873 37.5558 19.5636C37.5558 12.6399 31.9629 7.04089 25.0392 7.04089ZM25.0392 10.8478C25.5944 10.8478 25.6898 11.0908 25.837 11.2406C26.7386 12.3298 27.4537 13.6939 28.2685 14.9375C29.6852 15.2951 31.1492 15.5561 32.5308 16.1036C32.7188 16.1973 33.024 16.2758 33.1498 16.7455C33.2756 17.2149 33.1001 17.7106 32.6699 18.1775C31.917 19.1396 31.061 20.1414 30.2614 21.0766C30.2973 21.6127 30.574 24.2694 30.4692 25.4903C30.4382 25.698 30.5027 25.9495 30.0535 26.2758C29.6044 26.6022 29.3819 26.4664 29.1747 26.4317C27.807 26.0794 26.4272 25.4006 25.0392 24.8729C24.3476 25.1481 22.1357 26.1335 20.9037 26.4317C20.6965 26.4664 20.4756 26.6022 20.0264 26.2758C19.5773 25.9495 19.6403 25.698 19.6092 25.4903C19.5126 24.0726 19.7311 22.6522 19.8186 21.0766C19.4736 20.6622 17.6812 18.6786 17.0509 17.6227C16.9539 17.4364 16.7586 17.2735 16.9301 16.7455C17.1017 16.2175 17.3596 16.1973 17.5476 16.1036C18.8437 15.5941 20.3712 15.2974 21.81 14.9375C22.2364 14.2642 23.3878 12.229 24.243 11.2406C24.3902 11.0908 24.484 10.8478 25.0392 10.8478ZM25.0392 12.7475C24.8199 13.0565 24.5582 13.4648 24.2888 13.9029C23.9373 14.4791 23.5339 15.1607 23.1212 15.7689C23.0157 15.9177 22.9788 16.021 22.7284 16.2029C22.4781 16.3848 22.3783 16.3854 22.2042 16.4398C21.0527 16.7498 19.904 16.9845 18.7381 17.3293C19.3923 18.1623 20.2714 19.1544 21.0137 20.0894C21.1226 20.2357 21.2069 20.2978 21.3026 20.5922C21.3982 20.8865 21.3672 20.9875 21.3652 21.1699C21.3099 22.364 21.1789 23.5269 21.1406 24.7445C22.2637 24.3228 23.3391 23.8572 24.4737 23.4287C24.6466 23.3704 24.7297 23.3064 25.0392 23.3064C26.2512 23.5661 27.6385 24.2949 28.9379 24.7445C28.8832 23.5454 28.7713 22.3819 28.7132 21.1699C28.7112 20.9875 28.6818 20.8865 28.7774 20.5922C28.873 20.2978 28.9574 20.2357 29.0662 20.0894C29.81 19.1569 30.6086 18.2994 31.3418 17.3293C30.1879 17.0062 29.0457 16.7522 27.8757 16.4398C27.7016 16.3854 27.6003 16.3849 27.35 16.2029C27.0996 16.021 27.0628 15.9177 26.9572 15.7689C26.3031 14.7712 25.7265 13.7507 25.0392 12.7475Z" fill="#11A21B"/>
</svg>
