<svg width="72" height="60" viewBox="0 0 72 60" fill="none" xmlns="http://www.w3.org/2000/svg">
<path d="M29.5385 0H3.69231C1.65637 0 0 1.65637 0 3.69231V27.6923C0 29.7282 1.65637 31.3846 3.69231 31.3846H18.9905C17.2602 39.8756 9.67514 46.1538 0.923077 46.1538C0.413354 46.1538 0 46.567 0 47.0769V59.0769C0 59.5868 0.413354 60 0.923077 60C18.7375 60 33.2308 45.5068 33.2308 27.6923V3.69231C33.2308 1.65637 31.5744 0 29.5385 0ZM31.3846 27.6923C31.3846 44.1803 18.2177 57.6506 1.84615 58.1402V47.9791C6.42831 47.7707 10.8089 46.0161 14.2695 42.9849C17.9234 39.7846 20.3138 35.3836 21.0007 30.5926C21.0388 30.3275 20.9599 30.0591 20.7846 29.8569C20.6092 29.6546 20.3546 29.5385 20.0871 29.5385H3.69231C2.67434 29.5385 1.84615 28.7103 1.84615 27.6923V3.69231C1.84615 2.67434 2.67434 1.84615 3.69231 1.84615H29.5385C30.5564 1.84615 31.3846 2.67434 31.3846 3.69231V27.6923ZM68.3077 0H42.4615C40.4256 0 38.7692 1.65637 38.7692 3.69231V27.6923C38.7692 29.7282 40.4256 31.3846 42.4615 31.3846H57.7604C56.0302 39.8756 48.4449 46.1538 39.6923 46.1538C39.1824 46.1538 38.7692 46.567 38.7692 47.0769V59.0769C38.7692 59.5868 39.1824 60 39.6923 60C57.5068 60 72 45.5068 72 27.6923V3.69231C72 1.65637 70.3438 0 68.3077 0ZM70.1538 27.6923C70.1538 44.1803 56.9869 57.6506 40.6154 58.1402V47.9791C45.1975 47.7709 49.5783 46.0161 53.0391 42.9849C56.6932 39.7846 59.0838 35.3836 59.7707 30.5926C59.8087 30.3275 59.7297 30.0591 59.5545 29.8569C59.3791 29.6546 59.1247 29.5385 58.857 29.5385H42.4615C41.4436 29.5385 40.6154 28.7103 40.6154 27.6923V3.69231C40.6154 2.67434 41.4436 1.84615 42.4615 1.84615H68.3077C69.3257 1.84615 70.1538 2.67434 70.1538 3.69231V27.6923Z" fill="#11A21B"/>
</svg>
