<svg version="1.2" baseProfile="tiny-ps" xmlns="http://www.w3.org/2000/svg" viewBox="0 0 124 104" width="124" height="104">
	<title>New Project</title>
	<style>
		tspan { white-space:pre }
		.shp0 { fill: #268a3f } 
		.shp1 { fill: #d22d23 } 
	</style>
	<g id="Folder 1">
		<path id="Path 159" fill-rule="evenodd" class="shp0" d="M123 91.44C122.94 91.44 122.88 91.44 122.82 91.44L118.06 91.44C118.01 91.44 117.96 91.43 117.91 91.44C117.77 91.45 117.71 91.39 117.72 91.25C117.72 91.19 117.72 91.13 117.72 91.07C117.72 89.36 117.72 82.52 117.72 80.81C117.72 80.74 117.72 80.67 117.72 80.6C117.72 80.5 117.77 80.45 117.87 80.45C118.31 80.45 118.75 80.45 119.2 80.45C119.31 80.45 119.36 80.5 119.36 80.61C119.36 80.69 119.37 80.77 119.37 80.85C119.37 83.73 119.37 86.61 119.37 89.49C119.37 89.52 119.37 89.55 119.37 89.58C119.37 89.95 119.37 89.95 119.72 89.95C120.75 89.95 121.77 89.95 122.8 89.95C122.87 89.95 122.93 89.95 123 89.95C123.1 89.95 123.15 90 123.15 90.1C123.15 90.5 123.15 90.9 123.15 91.3C123.15 91.39 123.1 91.44 123 91.44ZM117.87 96.96C117.87 97.09 117.86 97.22 117.87 97.35C117.88 97.48 117.82 97.53 117.7 97.52C117.37 97.52 117.05 97.52 116.72 97.52C116.42 97.53 116.42 97.53 116.42 97.84C116.42 99.43 116.42 101.02 116.42 102.61C116.42 102.68 116.42 102.75 116.42 102.82C116.43 102.95 116.36 103 116.24 102.99C116.08 102.99 115.92 102.99 115.77 102.99C115.54 102.99 115.54 102.98 115.53 102.75C115.53 102.11 115.53 101.47 115.53 100.83C115.53 100.64 115.53 100.45 115.53 100.26C115.53 99.46 115.53 98.66 115.53 97.86C115.53 97.52 115.53 97.52 115.19 97.52C114.88 97.52 114.58 97.52 114.27 97.53C114.13 97.53 114.07 97.48 114.08 97.33C114.08 97.17 114.08 97.01 114.08 96.85C114.07 96.69 114.15 96.65 114.3 96.65C114.7 96.66 115.1 96.65 115.51 96.65C116.2 96.65 116.89 96.65 117.58 96.66C117.87 96.66 117.87 96.66 117.87 96.96ZM115.48 81.9C115.41 81.89 115.34 81.9 115.27 81.9C114.08 81.9 112.89 81.9 111.69 81.9C111.62 81.9 111.54 81.9 111.46 81.9C111.38 81.9 111.33 81.95 111.33 82.03C111.33 82.08 111.33 82.13 111.33 82.18C111.33 83.08 111.33 83.98 111.33 84.88C111.33 85.18 111.33 85.18 111.62 85.18C112.85 85.18 114.07 85.18 115.29 85.18C115.35 85.18 115.41 85.19 115.47 85.18C115.61 85.17 115.66 85.23 115.66 85.37C115.66 85.7 115.66 86.03 115.66 86.36C115.66 86.62 115.65 86.62 115.39 86.63C114.46 86.63 113.54 86.63 112.61 86.63C112.25 86.63 111.9 86.63 111.54 86.62C111.4 86.62 111.33 86.67 111.33 86.83C111.33 87.79 111.33 88.75 111.33 89.71C111.33 89.91 111.36 89.92 111.57 89.93C112.02 89.93 112.47 89.93 112.93 89.93C113.75 89.93 114.56 89.93 115.38 89.93C115.66 89.93 115.66 89.93 115.66 90.21C115.66 90.55 115.66 90.89 115.66 91.23C115.66 91.44 115.65 91.45 115.44 91.45C115.11 91.45 114.79 91.45 114.46 91.45L110.02 91.45C109.95 91.45 109.87 91.45 109.79 91.45C109.71 91.44 109.66 91.4 109.66 91.32C109.66 91.24 109.66 91.16 109.66 91.08C109.66 89.36 109.66 87.64 109.66 85.92C109.66 84.21 109.66 82.5 109.66 80.79C109.66 80.72 109.66 80.65 109.66 80.58C109.66 80.46 109.72 80.41 109.83 80.42C109.89 80.42 109.95 80.42 110 80.42C111.78 80.42 113.55 80.42 115.33 80.42C115.38 80.42 115.43 80.42 115.48 80.42C115.6 80.41 115.66 80.46 115.66 80.59C115.66 80.97 115.66 81.35 115.66 81.73C115.66 81.86 115.6 81.9 115.48 81.9ZM108.22 97.52C107.91 97.53 107.59 97.52 107.28 97.52C107.06 97.53 107.06 97.53 107.06 97.74C107.05 98.08 107.06 98.42 107.06 98.76L107.06 102.66C107.06 102.72 107.05 102.78 107.06 102.84C107.06 102.94 107.01 102.99 106.91 102.99C106.7 102.99 106.5 102.99 106.29 102.99C106.19 102.99 106.15 102.93 106.15 102.83C106.15 102.75 106.15 102.67 106.15 102.59C106.15 100.99 106.15 99.39 106.15 97.79C106.15 97.53 106.15 97.53 105.9 97.52C105.6 97.52 105.3 97.52 105.01 97.52C104.71 97.52 104.71 97.52 104.71 97.23C104.71 97.15 104.73 97.07 104.67 96.99C104.55 97.03 104.54 97.15 104.51 97.24C104.19 98.11 103.87 98.98 103.55 99.85C103.17 100.86 102.8 101.87 102.43 102.88C102.4 102.96 102.36 103.05 102.33 103.13C102.22 103.11 102.21 103.02 102.18 102.96C101.44 100.96 100.7 98.95 99.96 96.95C99.95 96.92 99.93 96.88 99.92 96.84C99.88 96.69 99.9 96.66 100.05 96.66C100.22 96.65 100.39 96.66 100.56 96.65C100.72 96.64 100.81 96.71 100.86 96.86C100.99 97.24 101.09 97.64 101.27 97.99C101.3 98.05 101.26 97.99 101.33 98.14C101.33 98.15 101.34 98.16 101.34 98.16C101.34 98.17 101.35 98.16 101.35 98.17C101.4 98.27 101.39 98.37 101.45 98.47C101.51 98.63 101.56 98.8 101.63 98.96C101.84 99.59 102.1 100.2 102.29 100.84L103.28 98.11C103.37 97.96 103.39 97.78 103.46 97.63C103.55 97.38 103.63 97.14 103.72 96.89C103.81 96.66 103.81 96.66 104.06 96.65C104.82 96.65 105.58 96.65 106.34 96.65C106.95 96.65 107.56 96.65 108.17 96.65C108.49 96.66 108.49 96.66 108.49 96.99C108.49 97.08 108.5 97.17 108.49 97.26C108.49 97.52 108.49 97.52 108.22 97.52ZM101.23 89.76C102.38 90.23 103.54 90.19 104.67 89.67C105.08 89.48 105.44 89.22 105.73 88.87C105.85 88.72 105.98 88.67 106.16 88.68C106.66 88.69 107.15 88.68 107.64 88.68C107.94 88.68 107.95 88.71 107.8 88.95C107.06 90.22 105.99 91.05 104.59 91.43C103.36 91.77 102.1 91.8 100.89 91.37C98.64 90.55 97.23 88.97 96.96 86.51C96.71 84.24 97.66 82.5 99.46 81.22C100.73 80.31 102.18 80.07 103.72 80.26C104.76 80.39 105.7 80.76 106.53 81.42C107.08 81.86 107.51 82.4 107.83 83.03C107.85 83.06 107.86 83.08 107.88 83.11C107.92 83.22 107.89 83.28 107.77 83.28C107.49 83.28 107.22 83.28 106.94 83.28C106.68 83.28 106.43 83.28 106.17 83.29C106.05 83.29 105.97 83.26 105.89 83.16C104.94 82.03 103.69 81.69 102.29 81.84C100.45 82.03 99.12 83.39 98.76 85.07C98.38 86.85 99.13 88.91 101.23 89.76ZM97.61 96.65C97.87 96.65 98.12 96.66 98.38 96.68C98.97 96.71 99.39 96.99 99.6 97.56C99.84 98.19 99.82 98.81 99.51 99.41C99.32 99.79 99.02 100 98.61 100.07C98.31 100.13 98.01 100.14 97.7 100.14C97.33 100.13 97.33 100.14 97.33 100.5C97.33 101.23 97.33 101.96 97.33 102.69C97.32 102.99 97.32 102.99 97.03 102.99C96.39 102.98 96.49 103.08 96.49 102.43C96.49 100.64 96.49 98.84 96.49 97.04C96.49 96.99 96.49 96.94 96.49 96.89C96.5 96.67 96.51 96.66 96.73 96.66C97.02 96.65 97.3 96.65 97.59 96.65C97.6 96.65 97.6 96.65 97.61 96.65ZM97.37 97.74C97.38 97.96 97.37 98.18 97.37 98.4C97.37 98.64 97.38 98.86 97.37 99.09C97.37 99.23 97.42 99.29 97.56 99.3C97.83 99.3 98.09 99.27 98.35 99.21C98.58 99.15 98.73 99 98.8 98.77C98.86 98.52 98.86 98.28 98.77 98.03C98.69 97.82 98.54 97.69 98.33 97.62C98.08 97.55 97.83 97.53 97.57 97.53C97.41 97.52 97.37 97.59 97.37 97.74ZM92.23 91.26C91.48 91.56 90.82 91.66 89.8 91.66C88.05 91.66 86.46 90.88 85.26 89.33C83.74 87.38 83.57 84.11 85.8 81.93C87.24 80.53 88.96 80.01 90.93 80.27C92.63 80.5 93.97 81.37 94.98 82.76C95.5 83.5 95.8 84.33 95.89 85.23C95.99 86.27 95.88 87.27 95.46 88.22C94.81 89.69 93.69 90.67 92.23 91.26ZM94.06 84.86C93.64 83.15 91.69 81.28 89 81.92C86.61 82.49 85.27 85.08 86.14 87.41C86.74 89.02 88.29 90.08 90.03 90.08C91.12 90.08 92.09 89.74 92.88 88.97C94.06 87.84 94.45 86.45 94.06 84.86ZM84.64 96.93C84.64 98.86 84.64 100.79 84.64 102.72C84.64 102.99 84.64 102.99 84.38 102.99C84.27 102.99 84.16 102.99 84.05 102.99C83.76 102.99 83.76 102.99 83.76 102.7C83.75 102.43 83.76 102.16 83.76 101.89L83.76 99.82C83.76 98.86 83.76 97.9 83.76 96.94C83.76 96.66 83.76 96.66 84.03 96.65C84.15 96.65 84.27 96.65 84.38 96.65C84.64 96.66 84.64 96.66 84.64 96.93ZM81.9 102.52C81.47 101.79 81 101.09 80.54 100.38C80.49 100.3 80.46 100.15 80.35 100.18C80.23 100.21 80.3 100.35 80.3 100.44C80.29 101.22 80.29 102 80.29 102.78C80.29 102.94 80.24 103 80.09 102.99C79.3 102.98 79.46 103.1 79.45 102.38C79.45 100.61 79.45 98.84 79.45 97.07C79.45 97.01 79.45 96.95 79.45 96.89C79.46 96.68 79.48 96.66 79.67 96.66C80.2 96.66 80.73 96.63 81.26 96.68C81.69 96.72 82.04 96.89 82.27 97.27C82.33 97.35 82.36 97.42 82.4 97.51C82.65 98.09 82.64 98.68 82.44 99.26C82.29 99.67 81.98 99.92 81.56 100.04C81.36 100.1 81.35 100.11 81.47 100.29C81.93 101.02 82.4 101.74 82.87 102.47C82.97 102.62 83.07 102.77 83.17 102.93C83.03 103.03 82.89 102.97 82.76 102.99C82.34 103.08 82.11 102.88 81.9 102.52ZM81.67 98.58C81.7 98.06 81.54 97.74 81.19 97.62C80.97 97.55 80.75 97.53 80.52 97.53C80.39 97.53 80.34 97.57 80.34 97.7C80.35 97.93 80.34 98.16 80.34 98.39C80.34 98.64 80.35 98.89 80.34 99.14C80.34 99.28 80.4 99.34 80.53 99.33C80.72 99.32 80.91 99.32 81.09 99.29C81.48 99.22 81.64 99.01 81.67 98.58ZM80.42 87.14C80.24 87.18 80.05 87.17 79.88 87.24C79.87 87.35 79.94 87.4 79.99 87.46C80.95 88.7 81.9 89.93 82.86 91.17C82.88 91.19 82.9 91.21 82.91 91.24C82.95 91.28 83.01 91.33 82.99 91.39C82.96 91.48 82.87 91.45 82.81 91.45C82.27 91.45 81.72 91.44 81.18 91.45C80.99 91.46 80.9 91.35 80.8 91.22C80.15 90.34 79.49 89.47 78.84 88.59C78.35 87.95 77.87 87.3 77.39 86.66C77.33 86.58 77.29 86.48 77.16 86.47C77.12 86.57 77.14 86.67 77.14 86.77C77.14 88.21 77.14 89.65 77.14 91.09C77.14 91.15 77.14 91.21 77.14 91.27C77.14 91.39 77.09 91.45 76.97 91.45C76.52 91.45 76.08 91.45 75.63 91.45C75.51 91.45 75.46 91.39 75.46 91.26C75.47 91.2 75.46 91.14 75.46 91.08C75.46 87.66 75.46 84.24 75.46 80.82C75.46 80.75 75.47 80.68 75.46 80.61C75.46 80.48 75.52 80.41 75.66 80.42C75.7 80.42 75.74 80.42 75.78 80.42C76.81 80.42 77.85 80.41 78.88 80.42C79.59 80.43 80.3 80.51 80.97 80.77C82.22 81.24 82.91 82.15 83.04 83.5C83.11 84.13 83.07 84.76 82.79 85.35C82.3 86.35 81.48 86.92 80.42 87.14ZM80.35 82.22C80.05 82.09 79.73 82.02 79.41 81.97C78.75 81.88 78.09 81.91 77.43 81.91C77.14 81.91 77.14 81.91 77.14 82.21C77.14 82.81 77.14 83.41 77.14 84.01C77.14 84.63 77.14 85.25 77.14 85.87C77.14 86.13 77.15 86.14 77.41 86.14C77.6 86.15 77.78 86.15 77.97 86.14C78.6 86.13 79.23 86.1 79.85 85.93C80.77 85.68 81.31 85.12 81.42 84.24C81.52 83.36 81.21 82.57 80.35 82.22ZM78.62 96.65C78.73 96.65 78.78 96.7 78.78 96.82C78.78 97 78.78 97.18 78.78 97.35C78.79 97.49 78.72 97.53 78.6 97.52C78.27 97.52 77.95 97.52 77.62 97.52C77.34 97.53 77.34 97.53 77.34 97.8C77.34 99.41 77.34 101.02 77.34 102.63C77.34 102.99 77.34 102.99 76.99 102.99C76.45 102.99 76.45 102.99 76.45 102.46L76.45 100.24C76.45 99.42 76.45 98.6 76.45 97.78C76.45 97.53 76.45 97.53 76.21 97.52C75.89 97.52 75.58 97.53 75.26 97.52C74.99 97.52 74.99 97.52 74.99 97.24C74.99 97.11 75 96.98 74.99 96.85C74.98 96.7 75.05 96.65 75.19 96.65C75.22 96.66 75.26 96.65 75.3 96.65L78.47 96.65C78.52 96.65 78.57 96.66 78.62 96.65ZM74.22 102.49C73.65 103.38 71.92 103.38 71.38 102.5C71.32 102.4 71.26 102.34 71.21 102.19C71.06 101.77 71.06 101.77 71.33 101.59C71.35 101.58 71.36 101.57 71.38 101.56C71.72 101.36 71.72 101.36 71.91 101.7C72.16 102.14 72.76 102.34 73.22 102.13C73.7 101.91 73.84 101.19 73.49 100.74C73.33 100.53 73.11 100.39 72.89 100.26C72.5 100.04 72.12 99.81 71.78 99.52C70.97 98.86 71.1 97.51 71.71 96.95C72.17 96.52 72.71 96.5 73.28 96.57C73.76 96.64 74.11 96.87 74.33 97.31C74.45 97.53 74.44 97.55 74.22 97.68C74.14 97.72 74.07 97.77 73.99 97.82C73.76 97.95 73.76 97.95 73.59 97.75C73.45 97.57 73.28 97.44 73.05 97.41C72.72 97.36 72.41 97.48 72.26 97.75C72.09 98.03 72.12 98.4 72.33 98.67C72.5 98.89 72.72 99.04 72.95 99.17C73.18 99.3 73.4 99.42 73.62 99.56C73.87 99.72 74.11 99.9 74.29 100.15C74.35 100.21 74.38 100.27 74.41 100.33C74.72 101.08 74.66 101.8 74.22 102.49ZM69.17 91.57C67.87 91.78 66.61 91.68 65.42 91.09C63.87 90.31 62.78 89.11 62.35 87.4C61.8 85.19 62.37 83.29 64.03 81.74C65.11 80.73 66.4 80.26 67.85 80.21C69.02 80.17 70.13 80.36 71.16 80.95C72 81.43 72.64 82.1 73.1 82.96C73.22 83.2 73.21 83.22 72.93 83.22C72.41 83.22 71.89 83.21 71.36 83.22C71.23 83.22 71.13 83.18 71.03 83.08C70.01 81.97 68.74 81.65 67.31 81.87C65.68 82.12 64.37 83.39 64 85.03C63.61 86.8 64.34 88.89 66.45 89.76C68.22 90.49 70.46 90.04 71.7 87.98C71.75 87.9 71.81 87.81 71.86 87.73C71.91 87.63 72.05 87.53 71.86 87.43C70.25 87.43 68.65 87.43 67.04 87.43C66.77 87.43 66.77 87.43 66.77 87.17C66.77 86.81 66.77 86.45 66.77 86.09C66.76 85.94 66.83 85.87 66.98 85.88C67.04 85.88 67.1 85.88 67.15 85.88L73.55 85.88C73.6 85.88 73.66 85.88 73.72 85.88C73.9 85.89 73.92 85.92 73.91 86.1C73.82 87.31 73.49 88.42 72.75 89.39C71.85 90.6 70.65 91.33 69.17 91.57ZM61.92 91.45C61.55 91.45 61.17 91.45 60.8 91.45C60.5 91.45 60.49 91.45 60.39 91.18C60.05 90.32 59.71 89.45 59.37 88.59C59.35 88.55 59.33 88.52 59.32 88.48C59.27 88.3 59.17 88.24 58.98 88.24C57.65 88.25 56.32 88.25 54.99 88.24C54.79 88.24 54.71 88.32 54.64 88.49C54.28 89.39 53.91 90.28 53.56 91.18C53.47 91.39 53.36 91.46 53.14 91.45C52.67 91.44 52.2 91.45 51.67 91.45C51.85 91 52.01 90.6 52.18 90.21C53.45 87.09 54.73 83.97 56.01 80.86C56.04 80.78 56.08 80.71 56.1 80.63C56.15 80.45 56.26 80.41 56.43 80.41C56.8 80.42 57.16 80.43 57.53 80.41C57.73 80.4 57.84 80.47 57.92 80.68C58.39 81.84 58.87 83 59.35 84.16C60.29 86.46 61.23 88.76 62.17 91.05C62.35 91.5 62.33 91.45 61.92 91.45ZM57.02 82.58C56.91 82.65 56.89 82.75 56.86 82.83C56.39 84.03 55.91 85.24 55.44 86.44C55.35 86.67 55.35 86.68 55.59 86.68C56.53 86.68 57.46 86.68 58.4 86.68C58.47 86.68 58.54 86.69 58.59 86.61C58.07 85.27 57.55 83.93 57.02 82.58ZM51.72 99.79C51.72 98.85 51.72 97.91 51.72 96.97C51.72 96.66 51.72 96.65 52.03 96.66C52.22 96.66 52.43 96.63 52.57 96.71C52.63 96.77 52.61 97.06 52.61 97.23C52.61 99.02 52.61 100.81 52.61 102.6C52.61 102.67 52.61 102.74 52.61 102.81C52.62 102.94 52.57 103 52.44 102.99C52.26 102.99 52.09 102.99 51.91 102.99C51.77 102.99 51.72 102.93 51.72 102.79C51.73 102.61 51.72 102.43 51.72 102.25L51.72 99.79ZM53.95 96.5C54.65 97.21 55.29 97.96 55.95 98.69C56.61 99.42 57.29 100.13 57.89 100.91C58 100.84 57.95 100.74 57.95 100.66C57.96 99.45 57.96 98.25 57.96 97.04C57.96 96.97 57.96 96.9 57.96 96.83C57.95 96.72 58 96.65 58.11 96.66C58.28 96.66 58.45 96.66 58.61 96.66C58.72 96.66 58.78 96.7 58.78 96.82C58.78 96.86 58.78 96.9 58.78 96.94C58.78 98.96 58.78 100.98 58.78 102.99C58.78 103.03 58.77 103.07 58.77 103.11C58.68 103.16 58.64 103.09 58.59 103.04C57.94 102.3 57.26 101.59 56.63 100.84C56.21 100.35 55.77 99.88 55.34 99.4C55.14 99.18 54.96 98.94 54.77 98.72C54.68 98.76 54.71 98.84 54.71 98.91C54.71 100.17 54.71 101.43 54.71 102.69C54.71 102.75 54.71 102.81 54.71 102.87C54.7 102.93 54.67 103.05 54.6 103.06C54.58 103.07 54.56 103.07 54.54 103.07C53.89 103.1 53.89 103.06 53.89 102.4C53.89 100.54 53.89 98.68 53.89 96.82C53.89 96.73 53.87 96.44 53.95 96.5ZM60.02 97.03C60.02 96.96 60.02 96.89 60.02 96.82C60.02 96.7 60.08 96.65 60.19 96.66C61 96.67 61.83 96.61 62.64 96.74C63.31 96.84 63.82 97.22 64.17 97.8C64.34 98.06 64.42 98.36 64.52 98.65C64.74 99.51 64.73 100.36 64.46 101.2C64.12 102.23 63.44 102.86 62.33 102.96C61.63 103.02 60.92 102.98 60.21 102.99C60.06 102.99 60.01 102.93 60.02 102.79C60.03 102.73 60.02 102.67 60.02 102.61C60.02 100.75 60.02 98.89 60.02 97.03ZM61.08 102.06C61.49 102.05 61.89 102.08 62.29 102.03C62.93 101.94 63.33 101.57 63.54 100.98C63.8 100.25 63.82 99.5 63.59 98.77C63.37 98.08 62.93 97.65 62.18 97.6C61.85 97.58 61.53 97.57 61.2 97.57C60.92 97.57 60.92 97.57 60.92 97.85C60.92 98.5 60.92 99.15 60.92 99.8C60.92 100.48 60.92 101.16 60.92 101.84C60.92 101.97 60.92 102.07 61.08 102.06ZM65.66 96.78C65.66 96.72 65.7 96.67 65.76 96.66C65.79 96.66 65.82 96.66 65.85 96.65C66.54 96.6 66.54 96.6 66.54 97.3C66.54 98.34 66.54 99.38 66.55 100.42C66.55 100.73 66.56 101.04 66.66 101.34C66.8 101.79 67.09 102.09 67.56 102.18C68.51 102.36 69.15 101.87 69.24 100.9C69.26 100.7 69.26 100.5 69.26 100.3C69.26 99.21 69.26 98.13 69.26 97.04C69.26 96.97 69.26 96.91 69.26 96.86C69.25 96.72 69.3 96.65 69.44 96.65C69.59 96.66 69.74 96.65 69.89 96.65C70.15 96.66 70.15 96.66 70.15 96.92C70.15 97.51 70.15 98.1 70.15 98.69L70.15 98.93L70.15 98.93C70.15 99.52 70.15 100.11 70.15 100.7C70.15 101.09 70.1 101.48 69.97 101.85C69.72 102.56 69.24 102.97 68.51 103.1C68.02 103.18 67.53 103.19 67.05 103.04C66.26 102.8 65.88 102.21 65.73 101.43C65.68 101.12 65.65 100.81 65.65 100.5C65.66 99.32 65.65 98.14 65.65 96.96C65.65 96.9 65.65 96.84 65.66 96.78ZM85.91 96.8C85.91 96.71 85.97 96.66 86.06 96.66C86.11 96.65 86.16 96.65 86.21 96.65C87.03 96.65 87.84 96.65 88.66 96.65C88.97 96.65 88.97 96.66 88.97 96.97C88.97 97.52 88.97 97.52 88.42 97.52C87.96 97.52 87.49 97.52 87.03 97.52C86.82 97.53 86.81 97.53 86.81 97.75C86.81 98.13 86.81 98.5 86.81 98.88C86.82 99.09 86.83 99.1 87.03 99.11C87.59 99.11 88.14 99.11 88.69 99.11C88.96 99.11 88.96 99.11 88.97 99.39C88.97 99.52 88.97 99.66 88.97 99.78C88.96 99.99 88.94 100 88.74 100.01C88.38 100.01 88.01 100.01 87.65 100.01C87.43 100.01 87.21 100.01 87 100C86.87 100 86.81 100.04 86.81 100.17C86.81 100.75 86.81 101.33 86.81 101.91C86.81 102.08 86.93 102.07 87.04 102.07C87.56 102.07 88.08 102.07 88.6 102.07C88.98 102.07 88.97 102.04 88.97 102.45C88.97 102.54 88.97 102.63 88.97 102.72C88.96 102.99 88.96 102.99 88.71 102.99C88.32 102.99 87.94 102.99 87.56 102.99C87.12 102.99 86.69 102.99 86.25 102.99C85.91 102.99 85.91 102.99 85.91 102.65C85.91 101.7 85.91 100.75 85.91 99.8C85.91 98.87 85.91 97.94 85.91 97.01C85.91 96.94 85.91 96.87 85.91 96.8ZM90.24 101.42C90.32 101.37 90.39 101.38 90.42 101.48C90.44 101.53 90.46 101.58 90.48 101.62C90.72 102.11 91.24 102.33 91.75 102.16C92.3 101.97 92.48 101.19 92.08 100.71C91.89 100.47 91.63 100.33 91.37 100.18C91.04 100 90.72 99.8 90.43 99.56C89.85 99.09 89.7 98.4 89.92 97.63C90.1 96.98 90.55 96.62 91.23 96.55C91.55 96.51 91.88 96.54 92.19 96.64C92.56 96.75 92.81 97.02 92.98 97.36C93.03 97.48 93.03 97.57 92.9 97.64C92.85 97.66 92.8 97.7 92.75 97.73C92.63 97.79 92.52 97.92 92.39 97.91C92.25 97.9 92.21 97.74 92.12 97.65C91.87 97.4 91.48 97.32 91.17 97.47C90.78 97.66 90.64 98.19 90.88 98.58C91.03 98.82 91.24 98.98 91.47 99.12C91.79 99.31 92.14 99.47 92.44 99.7C92.76 99.94 93.04 100.22 93.14 100.63C93.28 101.22 93.25 101.81 92.93 102.34C92.59 102.93 92.04 103.16 91.43 103.15C90.54 103.15 89.96 102.72 89.72 101.94C89.67 101.78 89.7 101.69 89.85 101.63C89.98 101.56 90.11 101.49 90.24 101.42ZM111.77 96.65C111.91 96.65 112.04 96.66 112.18 96.65C112.3 96.65 112.37 96.71 112.36 96.83C112.36 96.89 112.36 96.95 112.36 97.01C112.36 98.56 112.36 100.11 112.36 101.66C112.36 101.7 112.36 101.74 112.36 101.78C112.36 102.06 112.36 102.07 112.64 102.07C113.09 102.07 113.54 102.07 114 102.07C114.07 102.07 114.13 102.07 114.2 102.07C114.29 102.07 114.36 102.11 114.36 102.21C114.36 102.43 114.36 102.65 114.36 102.87C114.36 102.94 114.32 102.98 114.25 102.99C114.22 102.99 114.19 102.99 114.16 102.99C113.33 102.99 112.51 102.99 111.68 102.99C111.49 102.99 111.48 102.97 111.48 102.72C111.48 101.75 111.48 100.78 111.48 99.81C111.48 98.86 111.48 97.91 111.48 96.96C111.48 96.66 111.48 96.66 111.77 96.65ZM118.54 96.84C118.53 96.72 118.58 96.65 118.71 96.65C119.53 96.67 120.35 96.61 121.16 96.74C121.87 96.85 122.38 97.26 122.74 97.88C122.78 97.95 122.82 98.03 122.87 98.11C122.97 98.34 123.01 98.58 123.06 98.83C123.23 99.71 123.25 100.52 122.92 101.42C122.9 101.46 122.89 101.49 122.87 101.53C122.72 101.79 122.57 102.05 122.36 102.26C121.95 102.69 121.45 102.9 120.87 102.95C120.15 103.02 119.43 102.98 118.71 102.99C118.58 102.99 118.53 102.93 118.54 102.81C118.54 102.75 118.54 102.69 118.54 102.63L118.54 97.02C118.54 96.96 118.54 96.9 118.54 96.84ZM119.44 100.34C119.44 100.84 119.44 101.34 119.44 101.84C119.44 102.05 119.45 102.06 119.65 102.06C120.04 102.06 120.42 102.08 120.81 102.03C121.44 101.94 121.85 101.57 122.06 100.98C122.32 100.27 122.33 99.53 122.11 98.8C121.91 98.1 121.46 97.66 120.7 97.6C120.39 97.58 120.09 97.57 119.78 97.57C119.44 97.57 119.44 97.57 119.44 97.91C119.44 98.54 119.44 99.17 119.44 99.8L119.44 100.34ZM79.89 0.89C80.14 1.58 80.33 2.28 80.53 2.98C80.96 4.5 81.36 6.02 81.71 7.56C82.02 8.96 82.29 10.36 82.51 11.77C82.81 13.71 83 15.66 83 17.62C83.01 19.31 82.86 20.98 82.48 22.62C81.72 25.88 80.04 28.53 77.4 30.56C75.98 31.65 74.42 32.5 72.8 33.24C70.98 34.06 69.11 34.75 67.23 35.4C64.31 36.42 61.37 37.39 58.5 38.58C55.9 39.65 53.39 40.88 51.02 42.41C50.15 42.96 49.29 43.53 48.51 44.21C47.62 44.99 46.92 45.93 46.31 46.94C45.53 48.23 44.92 49.61 44.4 51.02C43.62 53.11 43.03 55.25 42.52 57.42C42.15 59.03 41.83 60.65 41.55 62.27C41.25 64.02 40.99 65.78 40.76 67.55C40.5 69.58 40.27 71.62 40.07 73.66C39.92 75.29 39.79 76.92 39.66 78.56C39.54 80.21 39.43 81.87 39.32 83.52C39.24 84.71 39.18 85.9 39.11 87.09C39.04 87.55 39.07 88.02 39.03 88.48C39 89.01 38.99 89.54 38.97 90.07C38.89 91.48 38.86 92.89 38.8 94.31C38.77 94.89 38.74 95.48 38.72 96.07C38.69 97.64 38.63 99.22 38.56 100.79C38.53 101.51 38.52 102.23 38.49 102.94C38.49 103.07 38.49 103.2 38.48 103.33C38.46 103.36 38.43 103.38 38.4 103.36C38.37 103.31 38.37 103.26 38.37 103.2C38.3 102.37 38.21 101.54 38.12 100.71C38.06 100.05 38.03 99.39 37.93 98.73C37.8 97.55 37.72 96.36 37.63 95.17C37.5 93.43 37.4 91.68 37.3 89.93C37.25 88.97 37.21 88 37.17 87.03C37.04 83.48 36.96 79.93 37.01 76.38C37.03 74.42 37.08 72.46 37.17 70.5C37.27 68.49 37.4 66.48 37.58 64.48C37.71 62.99 37.88 61.5 38.08 60.01C38.35 58 38.69 56 39.13 54.02C39.69 51.53 40.39 49.08 41.42 46.75C42.1 45.18 42.93 43.69 44.02 42.37C44.69 41.55 45.48 40.88 46.31 40.26C49.93 37.55 53.73 35.14 57.67 32.96C60.29 31.51 62.96 30.16 65.61 28.76C67.53 27.74 69.42 26.7 71.21 25.46C72.88 24.3 74.4 22.98 75.66 21.36C76.78 19.91 77.63 18.3 78.23 16.56C78.71 15.17 79.05 13.74 79.26 12.29C79.28 12.13 79.32 11.97 79.35 11.82C79.45 11.4 79.45 10.97 79.5 10.55C79.65 9.39 79.67 8.21 79.73 7.04C79.77 6.08 79.78 5.12 79.7 4.16C79.66 3.68 79.66 3.19 79.64 2.7C79.61 1.85 79.54 0.99 79.5 0.14C79.5 0.07 79.47 0 79.54 -0.06C79.66 -0.06 79.63 0.01 79.66 0.11L79.66 0.11C79.71 0.38 79.81 0.63 79.89 0.89Z" />
		<path id="Path 160" class="shp1" d="M0.18 20.7C0.13 20.25 0.12 19.99 0.09 19.63C0.02 18.73 0 17.84 0.02 16.94C0.02 16.86 0.01 16.78 0 16.71C0.06 16.19 0.03 15.67 0.07 15.15C0.15 14.26 0.26 13.38 0.36 12.49C0.47 11.59 0.64 10.71 0.8 9.82C1.01 8.59 1.3 7.37 1.58 6.16C1.6 6.08 1.6 6 1.66 5.94C1.88 5.12 2.09 4.3 2.32 3.48C2.66 2.23 3.04 0.99 3.43 -0.25C3.46 -0.35 3.5 -0.43 3.59 -0.52C3.51 0.49 3.44 1.48 3.4 2.47C3.3 4.59 3.28 6.71 3.41 8.83C3.48 10.05 3.6 11.28 3.8 12.49C4.23 15.13 4.99 17.64 6.39 19.93C7.4 21.59 8.68 23 10.17 24.24C11.78 25.58 13.56 26.68 15.38 27.7C17.6 28.95 19.88 30.09 22.14 31.27C25.16 32.85 28.15 34.5 31.04 36.32C33.14 37.65 35.19 39.05 37.18 40.55C38.21 41.31 39.04 42.27 39.77 43.33C39.81 43.39 39.83 43.45 39.88 43.51C39.9 43.53 39.92 43.55 39.93 43.57C40.13 43.9 40.33 44.22 40.53 44.54C40.59 44.64 40.61 44.73 40.53 44.84C39.95 45.65 39.59 46.57 39.24 47.49C38.92 48.32 38.66 49.17 38.46 50.03C38.45 50.07 38.45 50.11 38.39 50.13C38.3 50.12 38.3 50.02 38.27 49.95C37.84 48.94 37.37 47.95 36.81 47.01C35.88 45.41 34.66 44.1 33.11 43.08C30.88 41.6 28.54 40.33 26.09 39.25C23.76 38.23 21.37 37.36 18.97 36.53C16.68 35.74 14.39 34.98 12.14 34.08C10.11 33.27 8.12 32.35 6.3 31.09C4.55 29.86 3.08 28.37 2.02 26.48C1.28 25.17 0.78 23.76 0.46 22.29C0.35 21.76 0.28 21.23 0.18 20.7Z" />
		<path id="Path 161" class="shp0" d="M35.36 17.58C35.37 15.73 35.6 13.92 36.16 12.15C36.74 10.36 37.6 8.74 38.91 7.38C39.61 6.65 40.41 6.06 41.3 5.58C41.46 5.48 41.59 5.49 41.76 5.58C43.22 6.37 44.39 7.47 45.31 8.86C46.28 10.32 46.89 11.94 47.25 13.65C47.65 15.58 47.73 17.51 47.54 19.47C47.34 21.59 46.84 23.64 45.98 25.6C45.3 27.17 44.4 28.61 43.2 29.84C42.75 30.29 42.26 30.69 41.74 31.06C41.58 31.18 41.46 31.18 41.29 31.06C40.14 30.28 39.2 29.28 38.4 28.13C37.33 26.57 36.59 24.84 36.09 23.01C35.6 21.23 35.37 19.42 35.36 17.58ZM27.74 28.57C24.91 26.63 22.93 24.02 21.86 20.72C21.27 18.9 21.07 17.02 21.18 15.1C21.28 13.36 21.66 11.68 22.25 10.05C22.4 9.62 22.57 9.21 22.74 8.8C22.8 8.66 22.87 8.62 23.02 8.65C25.79 9.22 28.3 10.32 30.25 12.49C31.24 13.58 31.97 14.84 32.56 16.2C33.14 17.54 33.56 18.93 33.95 20.34C34.4 21.99 34.81 23.66 35.33 25.3C35.86 26.93 36.5 28.5 37.46 29.93C37.68 30.26 37.92 30.58 38.17 30.89C38.21 30.94 38.28 30.98 38.27 31.06C35.6 31.53 31.44 31.04 27.92 28.69M51.66 13.92C53.09 11.7 55.09 10.23 57.52 9.34C58.31 9.05 59.12 8.82 59.94 8.66C60.18 8.62 60.19 8.62 60.28 8.83C60.95 10.41 61.44 12.04 61.69 13.74C61.88 15.09 61.92 16.45 61.76 17.81C61.44 20.58 60.45 23.09 58.75 25.29C56.84 27.75 54.4 29.46 51.47 30.44C49.43 31.12 47.35 31.33 45.22 31.16C45.06 31.14 44.89 31.14 44.74 31.08C44.73 31 44.76 30.97 44.79 30.93C45.78 29.75 46.49 28.41 47.07 26.99C47.6 25.66 47.99 24.29 48.37 22.91C48.78 21.38 49.16 19.84 49.65 18.33C50.12 16.89 50.68 15.5 51.47 14.21" />
		<path id="Path 162" class="shp1" d="M44.68 103.19C44.66 103.24 44.64 103.29 44.58 103.29C44.52 103.28 44.51 103.22 44.51 103.17C44.5 102.91 44.47 102.65 44.47 102.4C44.46 100.7 44.35 99 44.29 97.31C44.27 96.65 44.27 95.99 44.24 95.33C44.18 93.97 44.16 92.6 44.1 91.23C44.05 89.93 44 88.62 43.93 87.32C43.87 86.29 43.83 85.27 43.75 84.25C43.65 82.83 43.57 81.42 43.45 80.01C43.36 78.99 43.31 77.97 43.19 76.95C43.13 76.49 43.11 76.02 43.08 75.55C43.09 75.14 43.02 74.74 42.99 74.33C42.81 72.35 42.63 70.37 42.42 68.39C42.36 67.82 42.39 67.27 42.46 66.72C42.65 65.18 42.89 63.65 43.17 62.13C43.5 60.32 43.87 58.52 44.3 56.73C44.31 56.66 44.3 56.57 44.39 56.52C44.46 56.54 44.46 56.61 44.47 56.67C44.64 57.72 44.81 58.78 44.96 59.84C45.17 61.39 45.34 62.95 45.48 64.51C45.61 65.98 45.72 67.44 45.79 68.91C45.85 70.25 45.92 71.59 45.96 72.93C46.03 75.64 46.06 78.34 46.01 81.05C45.97 83.33 45.92 85.61 45.81 87.89C45.8 88.1 45.8 88.31 45.79 88.52C45.75 89.1 45.74 89.67 45.72 90.25C45.68 91.21 45.58 92.16 45.54 93.11C45.51 94.09 45.41 95.06 45.34 96.03C45.29 96.81 45.24 97.58 45.14 98.35C45.06 98.89 45.07 99.45 45 99.99C44.9 100.7 44.9 101.42 44.78 102.13" />
	</g>
</svg>