<svg width="169" height="104" viewBox="0 0 169 104" fill="none" xmlns="http://www.w3.org/2000/svg">
<path d="M44.8071 47.1169H63.921V52.6815H58.3771V65.8998H50.4337V52.6815H44.8071V47.1169Z" fill="#F8F5EC"/>
<path d="M73.5396 54.7501L69.5265 65.8998H61.9141L69.361 47.1169H77.6354L85.3513 65.8998H77.6354L73.5396 54.7501Z" fill="#F8F5EC"/>
<path d="M83.488 47.1169H102.602V52.6815H97.1408V65.8998H89.1974V52.6815H83.488V47.1169Z" fill="#F8F5EC"/>
<path d="M112.218 54.7501L108.205 65.8998H100.592L108.06 47.1169H116.314L124.03 65.8998H116.314L112.218 54.7501Z" fill="#F8F5EC"/>
<path d="M112.556 12.5978C111.832 11.2946 110.86 10.012 109.743 8.8536C107.095 6.10237 103.393 3.88897 98.9864 2.3582C94.5803 0.744696 89.595 0 84.4649 0C79.3347 0 74.2667 0.765382 69.8606 2.3582C65.5165 3.88897 61.8344 6.12305 59.1866 8.8536C58.0695 9.99133 57.0973 11.2946 56.3733 12.5978C62.0619 11.2946 71.7844 9.61899 80.8448 9.39144C81.7343 9.39144 82.3756 9.61899 82.6859 10.1568C83.1617 10.6947 83.1617 12.7633 83.1617 13.7562L82.9134 37.6485C83.3892 37.6485 83.8857 37.7312 84.4442 37.7312C84.92 37.7312 85.4785 37.7312 85.975 37.6485L85.7267 13.7562C85.7267 12.7633 85.644 10.6947 86.1404 10.1568C86.5335 9.61899 87.1747 9.39144 87.9815 9.39144C97.0626 9.61899 106.847 11.2946 112.556 12.5978Z" fill="#F8F5EC"/>
<path d="M113.752 15.7384C105.394 13.9801 99.7886 13.6077 94.3275 13.3802C89.5077 13.0699 89.5077 14.7454 89.9214 17.807C90.0041 18.0345 90.0041 18.2621 90.0869 18.4896C91.7004 27.5707 93.7069 35.3694 94.0172 36.6726C105.725 34.1489 114.165 27.1363 114.165 18.8826C114.145 17.7863 114 16.7313 113.752 15.7384Z" fill="#F8F5EC"/>
<path d="M78.912 17.7883C79.3878 14.7268 79.3051 13.0512 74.5887 13.3615C69.0448 13.589 63.5217 13.9821 55.1645 15.7197C54.9163 16.7126 54.7715 17.7883 54.7715 18.8433C54.7715 22.3599 56.3022 25.8765 59.1776 28.8553C61.8254 31.5238 65.5282 33.7372 69.8516 35.268C71.4651 35.8885 73.1406 36.3436 74.8369 36.716C75.1679 35.4128 77.2365 27.4693 78.85 18.2434C78.912 18.0986 78.912 17.9538 78.912 17.7883Z" fill="#F8F5EC"/>
<path d="M0 84.6893H19.0725V90.2539H13.5493V103.431H5.60591V90.2539H0V84.6893Z" fill="#F8F5EC"/>
<path d="M28.6836 92.3018L24.6706 103.431H17.0581L24.5051 84.6893H32.7588L40.454 103.431H32.7588L28.6836 92.3018Z" fill="#F8F5EC"/>
<path d="M38.624 84.6893H57.6965V90.2539H52.2354V103.431H44.3127V90.2539H38.624V84.6893Z" fill="#F8F5EC"/>
<path d="M67.287 92.3018L63.2946 103.431H55.6821L63.1291 84.6893H71.3828L79.078 103.431H71.3828L67.287 92.3018Z" fill="#F8F5EC"/>
<path fill-rule="evenodd" clip-rule="evenodd" d="M157.858 92.632H160.216C161.664 92.632 162.574 92.5699 162.967 92.4665C163.361 92.3424 163.671 92.1149 163.919 91.7425C164.167 91.3702 164.291 90.8944 164.291 90.2945C164.291 89.7153 164.167 89.2602 163.919 88.9085C163.671 88.5569 163.34 88.3086 162.926 88.1845C162.637 88.1018 161.768 88.0604 160.34 88.0604H157.858V92.632ZM154.672 103.099V84.9575H161.375C163.092 84.9575 164.312 85.123 165.057 85.454C165.781 85.7849 166.401 86.3435 166.856 87.1502C167.332 87.957 167.56 88.9292 167.56 90.0463C167.56 91.4736 167.208 92.6113 166.484 93.4801C165.76 94.349 164.746 94.8868 163.402 95.1143C164.085 95.5694 164.643 96.0866 165.098 96.6244C165.553 97.1829 166.153 98.1552 166.919 99.5825L168.822 103.12H165.036L162.719 99.1688C161.892 97.7415 161.333 96.852 161.023 96.5003C160.733 96.1486 160.402 95.9004 160.071 95.7556C159.74 95.6315 159.203 95.5487 158.479 95.5487H157.858V103.12H154.672V103.099ZM140.006 103.099V84.9575H151.694V88.019H143.171V92.0321H151.094V95.073H143.171V100.017H151.983V103.078H140.006V103.099ZM121.43 103.099L117.665 84.9575H120.934L123.292 97.4105L126.167 84.9575H129.953L132.725 97.6173L135.145 84.9575H138.351L134.524 103.099H131.132L127.987 89.5498L124.864 103.099H121.43ZM104.716 94.018C104.716 96.1073 105.129 97.6587 105.978 98.7137C106.826 99.7687 107.86 100.286 109.101 100.286C110.342 100.286 111.377 99.7687 112.204 98.7344C113.031 97.7001 113.425 96.1073 113.425 93.9766C113.425 91.8666 113.031 90.3152 112.225 89.3016C111.418 88.288 110.384 87.7915 109.08 87.7915C107.798 87.7915 106.722 88.3086 105.916 89.3223C105.129 90.3152 104.716 91.8873 104.716 94.018ZM101.447 94.1421C101.447 91.9701 101.778 90.2118 102.461 88.8051C103.144 87.3985 104.033 86.3642 105.109 85.6815C106.205 84.9989 107.529 84.6472 109.08 84.6472C111.335 84.6472 113.176 85.454 114.604 87.0882C116.031 88.7224 116.734 91.0185 116.734 94.0387C116.734 97.0795 115.99 99.4377 114.48 101.155C113.156 102.665 111.377 103.43 109.101 103.43C106.826 103.43 105.026 102.685 103.702 101.196C102.192 99.4584 101.447 97.1209 101.447 94.1421ZM90.5665 88.019V93.1698H92.3248C93.5039 93.1698 94.3107 93.0871 94.7244 92.9423C95.1381 92.7975 95.4898 92.5079 95.7587 92.0942C96.0276 91.6805 96.1724 91.184 96.1724 90.5841C96.1724 89.9842 96.0276 89.4671 95.7587 89.074C95.4691 88.6603 95.1381 88.3914 94.7244 88.2466C94.3107 88.1018 93.4419 88.0397 92.118 88.0397H90.5665V88.019ZM87.3809 103.099V84.9575H92.4903C94.3934 84.9575 95.6346 85.0402 96.2345 85.2264C97.1653 85.4953 97.9307 86.0952 98.5513 87.0261C99.1512 87.9363 99.4615 89.1154 99.4615 90.5634C99.4615 91.8666 99.1926 92.9837 98.6754 93.8525C98.1583 94.742 97.4963 95.3626 96.7102 95.7142C95.9242 96.0659 94.5796 96.2521 92.6558 96.2521H90.5665V103.099H87.3809Z" fill="#F8F5EC"/>
</svg>
